<svg width="76" height="76" viewBox="0 0 76 76" fill="none" xmlns="http://www.w3.org/2000/svg">
<g clip-path="url(#clip0_39:102)">
<path d="M38.0154 73.3035C57.4357 73.3035 73.179 57.5602 73.179 38.14C73.179 18.7197 57.4357 2.97646 38.0154 2.97646C18.5952 2.97646 2.85193 18.7197 2.85193 38.14C2.85193 57.5602 18.5952 73.3035 38.0154 73.3035Z" stroke="white" stroke-width="3.84695" stroke-miterlimit="10"/>
<path d="M29.8106 29.9352L38.0154 38.14" stroke="white" stroke-width="3.84695" stroke-miterlimit="10" stroke-linecap="round"/>
<path d="M38.0154 38.14L51.4948 24.6606" stroke="white" stroke-width="3.84695" stroke-miterlimit="10" stroke-linecap="round"/>
<path d="M17.7024 17.8389L13.1546 13.2911" stroke="white" stroke-width="3.84695" stroke-miterlimit="10" stroke-linecap="round"/>
<path d="M62.8643 63.0006L58.3165 58.4528" stroke="white" stroke-width="3.84695" stroke-miterlimit="10" stroke-linecap="round"/>
<path d="M38.0166 38.1527L38.0038 38.14" stroke="white" stroke-width="3.84695" stroke-miterlimit="10" stroke-linecap="round"/>
<path d="M38.0154 9.41139V2.98819" stroke="white" stroke-width="3.84695" stroke-miterlimit="10" stroke-linecap="round"/>
<path d="M38.0154 73.2918V66.8686" stroke="white" stroke-width="3.84695" stroke-miterlimit="10" stroke-linecap="round"/>
<path d="M62.8643 13.2911L58.3282 17.8272" stroke="white" stroke-width="3.84695" stroke-miterlimit="10" stroke-linecap="round"/>
<path d="M17.7024 58.4528L13.1546 63.0006" stroke="white" stroke-width="3.84695" stroke-miterlimit="10" stroke-linecap="round"/>
<path d="M38.0166 38.14H38.0038" stroke="white" stroke-width="3.84695" stroke-miterlimit="10" stroke-linecap="round"/>
<path d="M9.28679 38.14H2.86359" stroke="white" stroke-width="3.84695" stroke-miterlimit="10" stroke-linecap="round"/>
<path d="M73.1672 38.14H66.744" stroke="white" stroke-width="3.84695" stroke-miterlimit="10" stroke-linecap="round"/>
<path d="M32.3004 52.7311V54.0005H27.2128V52.9907L29.8095 50.5383C30.0852 50.2754 30.2711 50.051 30.3673 49.8651C30.4634 49.6727 30.5115 49.4836 30.5115 49.2977C30.5115 49.0284 30.4186 48.8232 30.2326 48.6821C30.0531 48.5347 29.787 48.4609 29.4344 48.4609C29.1394 48.4609 28.8734 48.5186 28.6361 48.6341C28.3989 48.7431 28.2002 48.9098 28.0399 49.1342L26.905 48.4032C27.1679 48.0121 27.5301 47.7076 27.9918 47.4896C28.4534 47.2652 28.9824 47.153 29.5786 47.153C30.0787 47.153 30.5147 47.2363 30.8866 47.403C31.2649 47.5633 31.5566 47.7941 31.7618 48.0955C31.9734 48.3904 32.0792 48.7398 32.0792 49.1438C32.0792 49.5092 32.0022 49.8523 31.8483 50.1728C31.6945 50.4934 31.3963 50.8589 30.9539 51.2692L29.4055 52.7311H32.3004ZM39.014 52.5868H37.9177V54.0005H36.3981V52.5868H32.7724V51.5385L35.9461 47.2684H37.581L34.6381 51.3173H36.4462V50.0574H37.9177V51.3173H39.014V52.5868ZM42.1961 45.9027H43.5329L40.3592 54.9623H39.0224L42.1961 45.9027ZM48.8171 47.2684V48.2782L46.3165 54.0005H44.6239L47.0378 48.5379H44.8066V49.6343H43.4217V47.2684H48.8171Z" fill="white"/>
</g>
<defs>
<clipPath id="clip0_39:102">
<rect width="75.0155" height="75.0155" fill="white" transform="translate(0.50769 0.632233)"/>
</clipPath>
</defs>
</svg>
