<svg width="76" height="76" viewBox="0 0 76 76" fill="none" xmlns="http://www.w3.org/2000/svg">
<g clip-path="url(#clip0_39:125)">
<path d="M69.161 6.49282H58.612V3.56253C58.612 3.4071 58.5502 3.25803 58.4403 3.14812C58.3304 3.03822 58.1813 2.97647 58.0259 2.97647H17.0018C16.8464 2.97647 16.6973 3.03822 16.5874 3.14812C16.4775 3.25803 16.4157 3.4071 16.4157 3.56253V6.49282H5.86669C4.9341 6.49282 4.0397 6.86329 3.38026 7.52274C2.72081 8.18218 2.35034 9.07658 2.35034 10.0092V18.4484C2.35448 22.3496 3.788 26.114 6.37979 29.0298C8.97158 31.9455 12.542 33.8105 16.4157 34.272V34.6236C16.3816 39.4506 18.0036 44.1433 21.0112 47.9188C24.0188 51.6943 28.2302 54.3244 32.9426 55.3701L30.4812 62.7544H22.3935C21.6722 62.7726 20.9757 63.0215 20.4062 63.4644C19.8366 63.9074 19.424 64.5212 19.2288 65.2159L16.9549 71.7446C16.893 71.9218 16.8745 72.1114 16.901 72.2972C16.9276 72.4831 16.9984 72.6599 17.1076 72.8127C17.2167 72.9655 17.361 73.0898 17.5282 73.1752C17.6954 73.2606 17.8807 73.3046 18.0684 73.3035H56.9593C57.147 73.3046 57.3323 73.2606 57.4995 73.1752C57.6668 73.0898 57.811 72.9655 57.9201 72.8127C58.0293 72.6599 58.1001 72.4831 58.1267 72.2972C58.1532 72.1114 58.1348 71.9218 58.0728 71.7446L55.7989 65.2159C55.6037 64.5212 55.1911 63.9074 54.6215 63.4644C54.052 63.0215 53.3555 62.7726 52.6342 62.7544H44.5466L42.0851 55.3701C46.7975 54.3244 51.0089 51.6943 54.0165 47.9188C57.0241 44.1433 58.6461 39.4506 58.612 34.6236V34.272C62.4857 33.8105 66.0561 31.9455 68.6479 29.0298C71.2397 26.114 72.6732 22.3496 72.6774 18.4484V10.0092C72.6774 9.07658 72.3069 8.18218 71.6475 7.52274C70.988 6.86329 70.0936 6.49282 69.161 6.49282ZM16.4157 27.2393C14.4499 26.7327 12.7015 25.6019 11.4334 24.0167C10.1652 22.4315 9.44571 20.4775 9.38304 18.4484V14.6976C9.38304 14.3868 9.50654 14.0886 9.72635 13.8688C9.94616 13.649 10.2443 13.5255 10.5552 13.5255H16.4157V27.2393ZM65.6447 18.4484C65.6336 20.4916 64.9332 22.4712 63.6568 24.0666C62.3804 25.6621 60.6029 26.78 58.612 27.2393V13.5255H64.4725C64.7834 13.5255 65.0815 13.649 65.3014 13.8688C65.5212 14.0886 65.6447 14.3868 65.6447 14.6976V18.4484Z" stroke="white" stroke-width="3.84695" stroke-miterlimit="10"/>
<path d="M36.9565 19.9294C37.1319 19.3895 37.8958 19.3895 38.0712 19.9294L39.7507 25.0983C39.8291 25.3397 40.0542 25.5032 40.3081 25.5032H45.7429C46.3106 25.5032 46.5467 26.2297 46.0874 26.5634L41.6905 29.7579C41.4851 29.9072 41.3991 30.1717 41.4776 30.4132L43.1571 35.582C43.3325 36.1219 42.7145 36.5709 42.2552 36.2372L37.8583 33.0427C37.6529 32.8935 37.3748 32.8935 37.1694 33.0427L32.7725 36.2372C32.3132 36.5709 31.6952 36.1219 31.8707 35.582L33.5501 30.4132C33.6286 30.1717 33.5426 29.9072 33.3372 29.7579L28.9403 26.5634C28.481 26.2297 28.7171 25.5032 29.2848 25.5032H34.7196C34.9735 25.5032 35.1986 25.3397 35.277 25.0983L36.9565 19.9294Z" fill="white"/>
</g>
<defs>
<clipPath id="clip0_39:125">
<rect width="75.0155" height="75.0155" fill="white" transform="translate(0.00610352 0.632248)"/>
</clipPath>
</defs>
</svg>
