<svg width="76" height="76" viewBox="0 0 76 76" fill="none" xmlns="http://www.w3.org/2000/svg">
<g clip-path="url(#clip0_39:73)">
<path d="M47.3924 33.9788V28.6386C47.3924 26.1517 46.4045 23.7666 44.646 22.0081C42.8875 20.2496 40.5024 19.2617 38.0155 19.2617C35.5286 19.2617 33.1435 20.2496 31.385 22.0081C29.6265 23.7666 28.6385 26.1517 28.6385 28.6386V33.9788C27.9281 34.387 27.3376 34.9749 26.9261 35.6834C26.5147 36.3919 26.2968 37.1962 26.2943 38.0155V49.7367C26.2956 50.9798 26.7899 52.1716 27.6689 53.0506C28.5479 53.9296 29.7397 54.4239 30.9828 54.4252H45.0482C46.2913 54.4239 47.4831 53.9296 48.3621 53.0506C49.2411 52.1716 49.7354 50.9798 49.7367 49.7367V38.0155C49.7342 37.1962 49.5163 36.3919 49.1048 35.6834C48.6934 34.9749 48.1028 34.387 47.3924 33.9788ZM38.0155 23.9501C39.2586 23.9514 40.4504 24.4457 41.3294 25.3247C42.2083 26.2037 42.7027 27.3955 42.7039 28.6386V33.3271H33.327V28.6386C33.3283 27.3955 33.8226 26.2037 34.7016 25.3247C35.5806 24.4457 36.7724 23.9514 38.0155 23.9501ZM45.0482 49.7367H30.9828V38.0155H45.0482V49.7367Z" fill="white"/>
<path d="M71.8054 41.3303C72.6843 40.4511 73.1781 39.2588 73.1781 38.0156C73.1781 36.7724 72.6843 35.5801 71.8054 34.7008L58.2393 21.1348L65.0376 14.4256C66.0403 14.6752 67.0974 14.5869 68.0448 14.1744C68.9923 13.7618 69.7771 13.0481 70.2775 12.144C70.7779 11.2399 70.9659 10.1959 70.8123 9.17404C70.6588 8.15216 70.1723 7.20952 69.4283 6.49239C68.6843 5.77525 67.7244 5.32372 66.6975 5.20784C65.6707 5.09197 64.6343 5.31823 63.7492 5.85152C62.8641 6.38481 62.1798 7.19532 61.8023 8.15728C61.4249 9.11924 61.3755 10.1789 61.6619 11.1718L54.9245 17.82L41.3303 4.22346C40.4511 3.34451 39.2588 2.85074 38.0156 2.85074C36.7724 2.85074 35.58 3.34451 34.7008 4.22346L21.1347 17.7942L14.4255 10.9913C14.6739 9.98828 14.5843 8.93138 14.1706 7.98453C13.757 7.03767 13.0424 6.25379 12.1378 5.75449C11.2332 5.25519 10.1891 5.06838 9.16743 5.22305C8.14581 5.37772 7.20378 5.86521 6.48749 6.6099C5.7712 7.35459 5.32069 8.31486 5.20585 9.34172C5.09101 10.3686 5.31826 11.4046 5.85235 12.2892C6.38643 13.1737 7.19749 13.8573 8.15971 14.2338C9.12193 14.6103 10.1815 14.6588 11.1741 14.3716L17.82 21.1066L4.22343 34.7008C3.34448 35.5801 2.85071 36.7724 2.85071 38.0156C2.85071 39.2588 3.34448 40.4511 4.22343 41.3303L17.82 54.9246L11.1741 61.6595C10.1836 61.3743 9.12669 61.4237 8.16715 61.8001C7.20762 62.1765 6.39905 62.859 5.86678 63.7417C5.33451 64.6243 5.10827 65.6579 5.22313 66.6823C5.33798 67.7066 5.78752 68.6644 6.50206 69.4073C7.21659 70.1502 8.15622 70.6366 9.1753 70.7912C10.1944 70.9457 11.236 70.7598 12.1387 70.2623C13.0414 69.7647 13.7547 68.9833 14.1682 68.0391C14.5816 67.0949 14.6721 66.0407 14.4255 65.0399L21.1347 58.2416L34.7008 71.8054C35.58 72.6843 36.7724 73.1781 38.0156 73.1781C39.2588 73.1781 40.4511 72.6843 41.3303 71.8054L54.9269 58.2112L61.6595 64.8594C61.3742 65.8499 61.4236 66.9068 61.8001 67.8663C62.1765 68.8259 62.859 69.6345 63.7416 70.1667C64.6243 70.699 65.6579 70.9252 66.6822 70.8104C67.7066 70.6955 68.6644 70.246 69.4072 69.5314C70.1501 68.8169 70.6365 67.8773 70.7911 66.8582C70.9457 65.8391 70.7598 64.7975 70.2623 63.8948C69.7647 62.9921 68.9833 62.2788 68.0391 61.8653C67.0949 61.4519 66.0407 61.3614 65.0399 61.608L58.2416 54.8964L71.8054 41.3303ZM38.0156 68.4906L7.54052 38.0156L38.0156 7.54055L68.4906 38.0156L38.0156 68.4906Z" fill="white"/>
</g>
<defs>
<clipPath id="clip0_39:73">
<rect width="75.0155" height="75.0155" fill="white" transform="translate(0.50769 0.507812)"/>
</clipPath>
</defs>
</svg>
