<svg width="76" height="76" viewBox="0 0 76 76" fill="none" xmlns="http://www.w3.org/2000/svg">
<g clip-path="url(#clip0_39:86)">
<path d="M18.848 18.5951H16.4927V17.3276C16.47 16.9036 16.5338 16.4794 16.6803 16.0808C16.9152 15.6596 17.2101 15.2747 17.5557 14.9379L19.0982 13.4833C19.2638 13.3086 19.3932 13.103 19.479 12.8784C19.5648 12.6537 19.6054 12.4144 19.5984 12.1741C19.6073 11.9368 19.5676 11.7001 19.4816 11.4785C19.3955 11.257 19.2651 11.0553 19.0982 10.8858C18.9289 10.7184 18.7267 10.5876 18.5043 10.5018C18.2819 10.416 18.0441 10.3769 17.8059 10.3871C17.3136 10.3389 16.8214 10.4801 16.4302 10.7819C16.0709 11.1293 15.8489 11.5939 15.8049 12.091H13.2828C13.3173 11.5332 13.4643 10.9881 13.715 10.4882C13.9657 9.98836 14.315 9.54403 14.7419 9.18183C15.6214 8.48669 16.7271 8.13899 17.8475 8.20518C18.9538 8.15432 20.0392 8.51748 20.8907 9.22339C21.2851 9.57727 21.5947 10.0149 21.7967 10.5041C21.9988 10.9932 22.088 11.5213 22.0579 12.0495C22.0825 12.8014 21.8388 13.5377 21.3701 14.1275C21.1887 14.4119 20.9866 14.6828 20.7656 14.9379L20.2029 15.4781L19.6192 16.0392L19.2232 16.4548C18.9495 16.8266 18.8166 17.283 18.848 17.7432V18.5951ZM17.7016 23.2498C17.4926 23.2548 17.2848 23.2168 17.0911 23.1382C16.8974 23.0595 16.7221 22.9419 16.5761 22.7927C16.4178 22.6606 16.2908 22.4952 16.2043 22.3084C16.1178 22.1215 16.074 21.9179 16.0759 21.7121C16.0751 21.5055 16.1174 21.301 16.1999 21.1114C16.2824 20.9219 16.4034 20.7514 16.5553 20.6108C16.8615 20.3199 17.2682 20.1576 17.6912 20.1576C18.1142 20.1576 18.521 20.3199 18.8272 20.6108C18.984 20.7429 19.1086 20.9088 19.1917 21.096C19.2747 21.2832 19.314 21.4868 19.3066 21.6913C19.3087 21.8963 19.2692 22.0995 19.1904 22.2888C19.1116 22.4781 18.9951 22.6495 18.848 22.7927C18.5411 23.0894 18.1292 23.2537 17.7016 23.2498Z" fill="white"/>
<path d="M28.0818 29.9826H6.73816C5.03915 29.9771 3.4116 29.3003 2.21217 28.1007C1.01273 26.901 0.339224 25.2762 0.339233 23.5824L0.339233 6.79218C0.339224 5.09833 1.01273 3.47356 2.21217 2.27388C3.4116 1.0742 5.03915 0.397467 6.73816 0.391968L28.0818 0.391968C29.7808 0.397467 31.4084 1.0742 32.6078 2.27388C33.8073 3.47356 34.4808 5.09833 34.4808 6.79218V16.8912L39.2747 21.4836L38.8996 22.6473C38.7735 22.9625 38.5547 23.2325 38.272 23.4216C37.9893 23.6107 37.6559 23.7102 37.3155 23.707H34.4808C34.4481 25.3792 33.7602 26.9722 32.5643 28.145C31.3683 29.3179 29.7594 29.9775 28.0818 29.9826ZM6.73816 3.50896C6.30666 3.50895 5.87942 3.59402 5.48103 3.75927C5.08264 3.92452 4.72096 4.16669 4.41682 4.47184C4.11267 4.77699 3.87206 5.1391 3.70884 5.53731C3.54561 5.93553 3.463 6.36201 3.46575 6.79218V23.5824C3.463 24.0125 3.54561 24.439 3.70884 24.8372C3.87206 25.2354 4.11267 25.5975 4.41682 25.9027C4.72096 26.2078 5.08264 26.45 5.48103 26.6153C5.87942 26.7805 6.30666 26.8656 6.73816 26.8656H28.0818C28.5133 26.8656 28.9406 26.7805 29.339 26.6153C29.7374 26.45 30.099 26.2078 30.4032 25.9027C30.7073 25.5975 30.9479 25.2354 31.1112 24.8372C31.2744 24.439 31.357 24.0125 31.3542 23.5824V20.59H33.8346L31.3542 18.2211V6.79218C31.357 6.36201 31.2744 5.93553 31.1112 5.53731C30.9479 5.1391 30.7073 4.77699 30.4032 4.47184C30.099 4.16669 29.7374 3.92452 29.339 3.75927C28.9406 3.59402 28.5133 3.50895 28.0818 3.50896H6.73816Z" fill="white"/>
<path d="M62.8696 20.7978C64.248 19.6988 65.3238 18.2688 65.9962 16.6419L66.1212 16.3509V10.6572C66.089 7.95187 64.9995 5.36572 63.0844 3.44872C61.1694 1.53171 58.5798 0.435066 55.8663 0.391968L47.5289 0.391968V4.81809C47.5289 6.00255 47.5289 7.72728 47.5289 9.84683C47.5289 11.3222 47.5289 11.9248 47.5289 12.4028C47.5289 12.8807 47.5289 12.9223 47.5289 13.1508C47.5885 14.6083 47.9552 16.0368 48.6052 17.3436C49.2552 18.6504 50.1739 19.8061 51.3016 20.7355C47.6849 20.901 44.271 22.4481 41.7678 25.0558C39.2647 27.6635 37.8644 31.1318 37.8575 34.7412V41.1206H75.3757V34.7412C75.3675 31.2929 74.0892 27.9678 71.7837 25.3973C69.4782 22.8268 66.306 21.19 62.8696 20.7978ZM58.9719 23.8317L56.7417 26.0344L54.6573 23.8317H58.9719ZM50.6346 3.50896H55.9288C57.2177 3.52394 58.4787 3.88503 59.5791 4.55424C60.6795 5.22344 61.5786 6.17601 62.1818 7.31168H50.572V3.50896H50.6346ZM50.6346 12.4859C50.6346 12.1534 50.6346 11.5508 50.6346 10.4079H63.1406C63.1406 10.4079 63.1406 10.5533 63.1406 10.6365V15.7483C62.6496 16.9659 61.8072 18.0109 60.72 18.7507C59.6328 19.4906 58.3498 19.8921 57.0335 19.9043C55.3039 19.7604 53.6896 18.9813 52.5034 17.7182C51.3173 16.455 50.6439 14.7978 50.6137 13.0677L50.6346 12.4859ZM72.2283 38.0036H40.9632V34.7412C40.9633 32.1181 41.915 29.5835 43.6427 27.6052C45.3704 25.6269 47.7575 24.3383 50.3636 23.9772L56.7417 30.4605L63.2031 24.0187C65.7299 24.4671 68.0183 25.7867 69.668 27.7467C71.3178 29.7067 72.2241 32.1825 72.2283 34.7412V38.0036Z" fill="white"/>
<path d="M68.9557 75.4074H47.612C45.9075 75.3964 44.2768 74.7122 43.0774 73.5047C41.8779 72.2973 41.2075 70.665 41.2131 68.9656V58.5757L36.1064 53.6924L36.4608 52.5495C36.5873 52.2287 36.8084 51.9537 37.0949 51.7607C37.3815 51.5678 37.72 51.4661 38.0657 51.4689H41.2548C41.4565 49.928 42.212 48.5124 43.381 47.4845C44.55 46.4566 46.0533 45.8862 47.612 45.8792H68.9557C70.6475 45.8791 72.271 46.5448 73.4732 47.7316C74.6753 48.9185 75.359 50.5304 75.3754 52.217V68.9656C75.3782 69.8089 75.2143 70.6444 74.8932 71.4244C74.572 72.2045 74.0999 72.9139 73.5038 73.5121C72.9076 74.1102 72.1992 74.5855 71.4188 74.9107C70.6384 75.2359 69.8015 75.4047 68.9557 75.4074ZM41.5466 54.6275L44.3396 57.2873V68.9656C44.3368 69.3958 44.4195 69.8223 44.5827 70.2205C44.7459 70.6187 44.9865 70.9808 45.2907 71.286C45.5948 71.5911 45.9565 71.8333 46.3549 71.9985C46.7533 72.1638 47.1805 72.2489 47.612 72.2489H68.9557C69.3872 72.2489 69.8144 72.1638 70.2128 71.9985C70.6112 71.8333 70.9729 71.5911 71.277 71.286C71.5812 70.9808 71.8218 70.6187 71.985 70.2205C72.1482 69.8223 72.2308 69.3958 72.2281 68.9656V52.217C72.2308 51.7868 72.1482 51.3604 71.985 50.9622C71.8218 50.5639 71.5812 50.2018 71.277 49.8967C70.9729 49.5915 70.6112 49.3494 70.2128 49.1841C69.8144 49.0189 69.3872 48.9338 68.9557 48.9338H47.612C47.1805 48.9338 46.7533 49.0189 46.3549 49.1841C45.9565 49.3494 45.5948 49.5915 45.2907 49.8967C44.9865 50.2018 44.7459 50.5639 44.5827 50.9622C44.4195 51.3604 44.3368 51.7868 44.3396 52.217V54.5236L41.5466 54.6275Z" fill="white"/>
<path d="M57.2832 64.976C56.8886 64.9781 56.5081 64.8294 56.2202 64.5604L51.7597 60.4044C51.4719 60.1096 51.3109 59.7144 51.3109 59.3031C51.3109 58.8917 51.4719 58.4965 51.7597 58.2017C52.0528 57.9099 52.4501 57.7459 52.8644 57.7459C53.2786 57.7459 53.676 57.9099 53.9691 58.2017L57.304 61.2979L62.7025 55.625C62.9956 55.3332 63.3929 55.1692 63.8072 55.1692C64.2214 55.1692 64.6188 55.3332 64.9119 55.625C65.2046 55.9172 65.369 56.3133 65.369 56.7263C65.369 57.1393 65.2046 57.5355 64.9119 57.8277L58.4504 64.6227C58.2889 64.7556 58.1026 64.8552 57.9023 64.9158C57.7019 64.9765 57.4915 64.9969 57.2832 64.976Z" fill="white"/>
<path d="M24.9553 55.0432C26.0834 54.1082 27.0035 52.9489 27.6567 51.6393C28.3099 50.3297 28.6818 48.8987 28.7488 47.4377V46.6896C28.7488 46.2948 28.7488 45.6091 28.7488 44.1129C28.7488 42.0349 28.7488 40.2686 28.7488 39.105V34.6788H20.4115C17.6871 34.7058 15.0816 35.7953 13.1531 37.714C11.2246 39.6328 10.1265 42.2281 10.094 44.9441V50.6794L10.219 50.9703C10.8796 52.5926 11.9407 54.0222 13.3038 55.1263C9.801 55.4059 6.52937 56.9803 4.13084 59.5407C1.73231 62.1011 0.380006 65.4626 0.339233 68.9657L0.339233 75.4075H37.9616V68.9657C37.9455 65.4401 36.5983 62.0499 34.1881 59.4699C31.7779 56.89 28.4816 55.3095 24.9553 55.0432ZM21.5787 58.0978L19.3693 60.3213L17.1807 58.0978H21.5787ZM20.2655 37.7958H25.5598V39.0842C25.5598 39.7491 25.5598 40.6011 25.5598 41.5778H13.9708C14.5784 40.4383 15.4848 39.4847 16.5934 38.8187C17.702 38.1526 18.9712 37.7991 20.2655 37.7958ZM13.0746 44.9441C13.0645 44.8613 13.0645 44.7776 13.0746 44.6948H25.5806C25.5806 45.8169 25.5806 46.4403 25.5806 46.7727V47.2922C25.5454 49.0187 24.8697 50.6708 23.684 51.9296C22.4984 53.1884 20.8869 53.9645 19.1608 54.1081C17.8426 54.1042 16.5559 53.706 15.4671 52.9651C14.3783 52.2241 13.5376 51.1745 13.0537 49.9521L13.0746 44.9441ZM34.8351 72.2905H3.46575V68.9657C3.47738 66.3326 4.44389 63.7925 6.18692 61.8142C7.92996 59.8358 10.3319 58.5528 12.9495 58.2017L19.3484 64.8097L25.8099 58.3679C28.3175 58.8086 30.5918 60.1089 32.2398 62.044C33.8877 63.9791 34.8057 66.4274 34.8351 68.9657V72.2905Z" fill="white"/>
</g>
<defs>
<clipPath id="clip0_39:86">
<rect width="75.0155" height="75.0155" fill="white" transform="translate(0.339233 0.391968)"/>
</clipPath>
</defs>
</svg>
