<svg width="100" height="100" viewBox="0 0 100 100" fill="none" xmlns="http://www.w3.org/2000/svg">
<circle cx="50" cy="50" r="50" fill="#0088E0"/>
<g clip-path="url(#clip0)">
<path d="M50.4434 80.5095L50.1837 80.4284C44.8379 78.6519 40.005 75.5994 36.1033 71.5348C32.2015 67.4703 29.3482 62.5159 27.7902 57.1004C27.0633 54.5976 26.6117 52.0228 26.4434 49.4219V27.977H27.2547C28.8968 27.9527 30.4662 27.2957 31.6361 26.1426C32.2396 25.5339 32.7167 24.8117 33.0397 24.0176C33.3628 23.2236 33.5255 22.3733 33.5184 21.516V21.1751L34.2324 20.4446H66.6868L67.3521 21.1102V21.5322C67.3364 22.385 67.4889 23.2326 67.8007 24.0264C68.1126 24.8203 68.5777 25.5449 69.1695 26.1589C70.3307 27.2931 71.8796 27.9431 73.5022 27.977H74.3135V49.4056C74.1301 52.0576 73.6567 54.6815 72.9018 57.2303C71.5735 61.8196 69.2957 66.0784 66.2162 69.7303C62.1382 74.6168 56.8015 78.2939 50.7841 80.3634L50.4434 80.5095ZM28.0661 29.5517V49.3732C28.2324 51.8363 28.6622 54.2744 29.348 56.6459C30.6432 61.0769 32.8546 65.1862 35.8389 68.7076C39.718 73.2995 44.7634 76.7598 50.4434 78.7238C56.1285 76.77 61.1764 73.308 65.0478 68.7076C67.9687 65.2183 70.1346 61.161 71.4089 56.792C72.133 54.366 72.5848 51.8668 72.7557 49.3407V29.5517C70.9773 29.3531 69.3186 28.5577 68.0499 27.2952C66.6646 25.8976 65.8489 24.0342 65.7618 22.068H35.1249C35.0288 24.0354 34.208 25.8975 32.8206 27.2952C31.5393 28.5676 29.8617 29.3638 28.0661 29.5517Z" fill="white"/>
<path d="M50.4438 75.2173L50.1679 75.1199C45.3822 73.4384 41.1195 70.5338 37.8028 66.6946C33.5478 61.684 31.0713 55.4047 30.7602 48.8375L30.6953 31.8082L31.3119 31.7108C31.8376 31.5856 32.3488 31.406 32.8373 31.1751C33.6768 30.7918 34.4281 30.2391 35.0442 29.5517C35.628 28.8795 36.0795 28.1029 36.3748 27.2628C36.4798 26.9653 36.5665 26.6617 36.6345 26.3537L36.7481 25.6881H64.1233L64.2531 26.3537C64.3193 26.6569 64.406 26.9552 64.5128 27.2466V27.3927C64.8045 28.1883 65.2451 28.9211 65.8109 29.5517C66.4229 30.2366 67.1684 30.7891 68.0016 31.1751C68.4916 31.3985 69.0025 31.5725 69.527 31.6946L70.2572 31.8082V35.5582C70.2572 39.6005 70.2572 43.6751 70.2572 47.7336V48.8699C69.9451 55.4399 67.4624 61.7206 63.1984 66.7271C59.8643 70.5614 55.5843 73.4551 50.7846 75.1199L50.4438 75.2173ZM32.318 33.1232L32.4154 48.8699C32.7281 55.0369 35.0603 60.9297 39.0523 65.6394C42.1115 69.1796 46.0203 71.8833 50.4113 73.4966C54.8023 71.8833 58.7112 69.1796 61.7704 65.6394C65.7914 60.9254 68.1369 55.0109 68.4397 48.8212V47.7336C68.4397 43.6751 68.4397 39.6167 68.4397 35.5582V33.1232C68.0317 32.9867 67.631 32.8296 67.2389 32.6524C66.2221 32.1694 65.3103 31.4907 64.5558 30.6551C63.8012 29.8194 63.2186 28.8432 62.8414 27.7823V27.6362C62.7962 27.5251 62.7583 27.4112 62.7278 27.2953H38.0625C38.0625 27.4576 37.9651 27.6199 37.9002 27.7823C37.5267 28.832 36.9412 29.7935 36.1801 30.6069C35.4473 31.4623 34.5471 32.1585 33.5351 32.6524C33.139 32.8331 32.7326 32.9903 32.318 33.1232Z" fill="white"/>
<path d="M50.4431 61.1264C47.3541 61.0372 44.4258 59.729 42.2976 57.4874C40.1695 55.2458 39.0142 52.2529 39.084 49.1622C39.0185 46.0726 40.1752 43.0822 42.3025 40.8415C44.4298 38.6009 47.3555 37.2913 50.4431 37.1979C53.5306 37.2913 56.4564 38.6009 58.5837 40.8415C60.711 43.0822 61.8677 46.0726 61.8021 49.1622C61.8677 52.2517 60.711 55.2421 58.5837 57.4828C56.4564 59.7234 53.5306 61.033 50.4431 61.1264ZM50.4431 38.8213C47.7859 38.9145 45.2728 40.0529 43.4498 41.9892C41.6267 43.9254 40.641 46.5031 40.7068 49.1622C40.641 51.8213 41.6267 54.3989 43.4498 56.3352C45.2728 58.2714 47.7859 59.4098 50.4431 59.5031C53.1003 59.4098 55.6134 58.2714 57.4364 56.3352C59.2594 54.3989 60.2451 51.8213 60.1794 49.1622C60.2451 46.5031 59.2594 43.9254 57.4364 41.9892C55.6134 40.0529 53.1003 38.9145 50.4431 38.8213Z" fill="white"/>
<path d="M56.6902 44.9088C56.6162 44.8332 56.5278 44.7732 56.4303 44.7322C56.3328 44.6912 56.2281 44.67 56.1223 44.67C56.0165 44.67 55.9118 44.6912 55.8143 44.7322C55.7167 44.7732 55.6284 44.8332 55.5543 44.9088L48.5766 52.3276L45.3312 48.8698C45.2558 48.7938 45.1661 48.7334 45.0672 48.6922C44.9683 48.651 44.8623 48.6297 44.7551 48.6297C44.648 48.6297 44.542 48.651 44.4431 48.6922C44.3442 48.7334 44.2545 48.7938 44.1791 48.8698C44.1035 48.9439 44.0435 49.0323 44.0025 49.1299C43.9615 49.2274 43.9404 49.3322 43.9404 49.438C43.9404 49.5438 43.9615 49.6486 44.0025 49.7462C44.0435 49.8437 44.1035 49.9321 44.1791 50.0062L48.0249 54.0971C48.0753 54.1354 48.1297 54.1681 48.1872 54.1945H48.2846C48.3789 54.2371 48.4813 54.2591 48.5848 54.2591C48.6883 54.2591 48.7906 54.2371 48.885 54.1945H48.9823C49.0398 54.1681 49.0943 54.1354 49.1446 54.0971L56.6902 45.9802C56.8203 45.8321 56.892 45.6417 56.892 45.4445C56.892 45.2473 56.8203 45.0569 56.6902 44.9088Z" fill="white"/>
</g>
<defs>
<clipPath id="clip0">
<rect width="48" height="60" fill="white" transform="translate(26.4434 20.4446)"/>
</clipPath>
</defs>
</svg>
