<svg width="60" height="60" viewBox="0 0 60 60" fill="none" xmlns="http://www.w3.org/2000/svg">
<g clip-path="url(#clip0)">
<path d="M55.1891 22.5203L51.3304 18.66V11.0104C51.3304 8.4254 49.2273 6.32236 46.6424 6.32236H39.0009L33.0269 0.344803C32.8071 0.125052 32.5091 0.0014064 32.1983 0.0012892L27.8322 0C27.8321 0 27.832 0 27.8319 0C27.5212 0 27.2231 0.123412 27.0034 0.343045L21.0203 6.32248H13.3576C10.7726 6.32248 8.66955 8.42551 8.66955 11.0105V18.6723L4.81344 22.5195C3.67249 23.6599 3.04407 25.1763 3.04407 26.7896V53.963C3.04407 55.5892 3.69148 57.066 4.74066 58.1526C4.76328 58.1796 4.78683 58.2063 4.81227 58.2318C4.83758 58.2571 4.86407 58.2804 4.89102 58.3029C5.97759 59.3524 7.45466 60 9.08104 60H24.7261C25.3734 60 25.8981 59.4752 25.8981 58.828C25.8981 58.1808 25.3734 57.656 24.7261 57.656H9.08093C8.48942 57.656 7.93049 57.5155 7.43427 57.2671L21.2485 43.4529L25.746 47.9476C26.8861 49.0872 28.4015 49.7145 30.0133 49.7145H30.0152C31.6278 49.7141 33.1435 49.0856 34.2834 47.945L38.7621 43.4635L52.5657 57.2671C52.0696 57.5154 51.5105 57.656 50.919 57.656H35.2741C34.6268 57.656 34.1021 58.1808 34.1021 58.828C34.1021 59.4752 34.6268 60 35.2741 60H50.9192C52.5454 60 54.0225 59.3525 55.109 58.3032C55.1361 58.2806 55.1627 58.2571 55.188 58.2318C55.2136 58.2063 55.237 58.1796 55.2598 58.1525C56.3088 57.0659 56.9562 55.5891 56.9562 53.963V26.7878C56.9561 25.1761 56.3286 23.6606 55.1891 22.5203ZM51.3305 21.9756L53.5312 24.1773C53.7344 24.3807 53.9101 24.604 54.0583 24.8422L51.3305 27.5718V21.9756ZM28.317 2.34412L31.7121 2.34529L35.6869 6.32248H24.3362L28.317 2.34412ZM6.46971 24.1783L8.66967 21.9833V27.5679L5.94254 24.8426C6.0908 24.6045 6.2666 24.3813 6.46971 24.1783ZM5.77682 55.6097C5.52859 55.1136 5.38807 54.5546 5.38807 53.9631V27.6021L19.5906 41.7959L5.77682 55.6097ZM32.6256 46.2882C31.9283 46.9859 31.0011 47.3702 30.0146 47.3705C30.0143 47.3705 30.0139 47.3705 30.0136 47.3705C29.0276 47.3705 28.1005 46.9867 27.4031 46.2896L11.0137 29.9104V11.0104C11.0137 9.71788 12.0652 8.66636 13.3577 8.66636H46.6425C47.935 8.66636 48.9865 9.71788 48.9865 11.0104V18.9957C48.9754 19.0888 48.9754 19.1828 48.9865 19.276V29.9171L32.6256 46.2882ZM54.6121 53.9631C54.6121 54.5546 54.4716 55.1136 54.2234 55.6097L40.4193 41.8056L54.6121 27.6041V53.9631Z" fill="white"/>
<path d="M30.0001 57.6555C29.6919 57.6555 29.3895 57.7809 29.1715 57.9989C28.9535 58.2169 28.8281 58.5193 28.8281 58.8275C28.8281 59.1358 28.9535 59.4381 29.1715 59.6561C29.3895 59.8753 29.6919 59.9995 30.0001 59.9995C30.3084 59.9995 30.6107 59.8753 30.8287 59.6561C31.0467 59.4381 31.1721 59.1358 31.1721 58.8275C31.1721 58.5193 31.0467 58.2169 30.8287 57.9989C30.6107 57.781 30.3084 57.6555 30.0001 57.6555Z" fill="white"/>
<path d="M30.0001 13.5814C23.8984 13.5814 18.9344 18.5453 18.9344 24.647C18.9344 30.8321 23.9664 35.8641 30.1515 35.8641H37.2748C37.9221 35.8641 38.4468 35.3393 38.4468 34.6921C38.4468 34.0449 37.9221 33.5201 37.2748 33.5201H30.1515C25.2589 33.5201 21.2784 29.5396 21.2784 24.647C21.2784 19.8379 25.1909 15.9254 30.0001 15.9254C34.8093 15.9254 38.7218 19.8379 38.7218 24.647V27.0488C38.7218 27.9718 37.9708 28.7227 37.0477 28.7227C36.1246 28.7227 35.3736 27.9718 35.3736 27.0488V24.3359C35.3736 21.1271 32.7631 18.5166 29.5543 18.5166C26.1801 18.5166 23.4351 21.2617 23.4351 24.6358C23.4351 28.0099 26.1802 30.755 29.5543 30.755H31.4187C32.066 30.755 32.5907 30.2302 32.5907 29.583C32.5907 28.9358 32.066 28.411 31.4187 28.411H29.5543C27.4727 28.411 25.7791 26.7174 25.7791 24.6357C25.7791 22.5541 27.4727 20.8606 29.5543 20.8606C31.4706 20.8606 33.0296 22.4197 33.0296 24.3359V27.0488C33.0296 29.2643 34.832 31.0667 37.0477 31.0667C39.2634 31.0667 41.0658 29.2643 41.0658 27.0488V24.647C41.0657 18.5453 36.1017 13.5814 30.0001 13.5814Z" fill="white"/>
</g>
<defs>
<clipPath id="clip0">
<rect width="60" height="60" fill="white"/>
</clipPath>
</defs>
</svg>
