<svg width="60" height="60" viewBox="0 0 60 60" fill="none" xmlns="http://www.w3.org/2000/svg">
<path d="M24.7266 31.7578H35.2734V35.2734H24.7266V31.7578Z" fill="white"/>
<path d="M48.6772 35.2733H38.7891V37.0312C38.7891 38.0025 38.0026 38.789 37.0312 38.789H22.9688C21.9974 38.789 21.2109 38.0025 21.2109 37.0312V35.2733H11.3228C9.04999 35.2733 7.03995 33.8245 6.32034 31.6685L0 12.7042V51.0937C0 54.0014 2.36572 56.3671 5.27344 56.3671H54.7266C57.6343 56.3671 60 54.0014 60 51.0937V12.7056L53.6792 31.6685C52.9601 33.8245 50.95 35.2733 48.6772 35.2733Z" fill="white"/>
<path d="M37.0312 3.63281H22.9688C20.061 3.63281 17.6953 5.99854 17.6953 8.90625V10.6641H3.02444L9.65424 30.5562C9.89456 31.2753 10.5656 31.7578 11.3228 31.7578H21.2109V30C21.2109 29.0286 21.9974 28.2422 22.9688 28.2422H37.0312C38.0026 28.2422 38.7891 29.0286 38.7891 30V31.7578H48.6772C49.4344 31.7578 50.1054 31.2753 50.3458 30.5562L56.976 10.6641H42.3047V8.90625C42.3047 5.99854 39.939 3.63281 37.0312 3.63281ZM21.2109 10.6641V8.90625C21.2109 7.93625 21.9987 7.14844 22.9688 7.14844H37.0312C38.0013 7.14844 38.7891 7.93625 38.7891 8.90625V10.6641H21.2109Z" fill="white"/>
</svg>
