<svg width="129" height="32" viewBox="0 0 129 32" fill="none" xmlns="http://www.w3.org/2000/svg">
<g clip-path="url(#clip0)">
<path d="M88.7661 26.8769H83.0146L86.612 5.19305H92.3632L88.7661 26.8769Z" fill="#00579F"/>
<path d="M109.616 5.72315C108.482 5.28441 106.682 4.79999 104.458 4.79999C98.7778 4.79999 94.7781 7.75252 94.7536 11.9738C94.7064 15.0882 97.6172 16.818 99.7943 17.8564C102.019 18.9176 102.776 19.6102 102.776 20.556C102.753 22.0087 100.978 22.6783 99.3219 22.6783C97.0256 22.6783 95.7952 22.3331 93.9255 21.5249L93.1681 21.1784L92.3633 26.046C93.7122 26.6451 96.1975 27.1767 98.7778 27.2C104.813 27.2 108.742 24.2931 108.788 19.7947C108.811 17.3263 107.274 15.4349 103.96 13.8894C101.949 12.8972 100.717 12.2282 100.717 11.2131C100.74 10.2902 101.759 9.34499 104.03 9.34499C105.899 9.29869 107.273 9.73682 108.314 10.1753L108.834 10.4055L109.616 5.72315Z" fill="#00579F"/>
<path d="M117.261 19.195C117.734 17.9493 119.557 13.1281 119.557 13.1281C119.533 13.1744 120.03 11.8594 120.314 11.0521L120.716 12.9205C120.716 12.9205 121.805 18.1109 122.041 19.195C121.143 19.195 118.397 19.195 117.261 19.195ZM124.36 5.19305H119.912C118.54 5.19305 117.497 5.58489 116.905 6.99217L108.362 26.8765H114.397C114.397 26.8765 115.391 24.2003 115.604 23.6238C116.266 23.6238 122.137 23.6238 122.989 23.6238C123.154 24.3851 123.675 26.8765 123.675 26.8765H129L124.36 5.19305Z" fill="#00579F"/>
<path d="M78.2107 5.19305L72.5781 19.9793L71.9626 16.9805C70.9212 13.5202 67.6553 9.76074 64.0107 7.89142L69.17 26.8539H75.2521L84.2924 5.19305H78.2107Z" fill="#00579F"/>
<path d="M67.3483 5.19305H58.0947L58 5.63118C65.2184 7.4306 69.999 11.768 71.9631 16.9814L69.9515 7.01578C69.6203 5.63088 68.6025 5.23874 67.3483 5.19305Z" fill="#FAA61A"/>
</g>
<g clip-path="url(#clip1)">
<path d="M7.64185 32.2301V30.1062C7.64185 29.292 7.13714 28.761 6.2719 28.761C5.83928 28.761 5.37061 28.9026 5.04615 29.3628C4.79379 28.9734 4.43327 28.761 3.8925 28.761C3.53198 28.761 3.17147 28.8672 2.88306 29.2566V28.8318H2.12598V32.2301H2.88306V30.3539C2.88306 29.7522 3.20752 29.469 3.71224 29.469C4.21696 29.469 4.46932 29.7876 4.46932 30.3539V32.2301H5.22641V30.3539C5.22641 29.7522 5.58692 29.469 6.05559 29.469C6.56031 29.469 6.81267 29.7876 6.81267 30.3539V32.2301H7.64185ZM18.8539 28.8318H17.6281V27.8053H16.871V28.8318H16.1861V29.5044H16.871V31.0619C16.871 31.8407 17.1955 32.3008 18.0607 32.3008C18.3852 32.3008 18.7457 32.1947 18.9981 32.0531L18.7818 31.4159C18.5655 31.5575 18.3131 31.5929 18.1328 31.5929C17.7723 31.5929 17.6281 31.3805 17.6281 31.0265V29.5044H18.8539V28.8318ZM25.271 28.761C24.8384 28.761 24.55 28.9734 24.3697 29.2566V28.8318H23.6127V32.2301H24.3697V30.3186C24.3697 29.7522 24.6221 29.4336 25.0908 29.4336C25.235 29.4336 25.4152 29.469 25.5595 29.5044L25.7758 28.7964C25.6316 28.761 25.4152 28.761 25.271 28.761ZM15.5732 29.115C15.2127 28.8672 14.7079 28.761 14.1672 28.761C13.3019 28.761 12.7251 29.1858 12.7251 29.8584C12.7251 30.4247 13.1577 30.7433 13.9148 30.8495L14.2753 30.8849C14.6719 30.9557 14.8882 31.0619 14.8882 31.2389C14.8882 31.4867 14.5998 31.6637 14.0951 31.6637C13.5903 31.6637 13.1938 31.4867 12.9414 31.3097L12.5809 31.8761C12.9775 32.1593 13.5183 32.3008 14.059 32.3008C15.0685 32.3008 15.6453 31.8407 15.6453 31.2035C15.6453 30.6017 15.1766 30.2831 14.4556 30.177L14.0951 30.1416C13.7706 30.1062 13.5183 30.0354 13.5183 29.823C13.5183 29.5752 13.7706 29.4336 14.1672 29.4336C14.5998 29.4336 15.0324 29.6106 15.2487 29.7168L15.5732 29.115ZM35.6899 28.761C35.2573 28.761 34.9689 28.9734 34.7886 29.2566V28.8318H34.0316V32.2301H34.7886V30.3186C34.7886 29.7522 35.041 29.4336 35.5097 29.4336C35.6539 29.4336 35.8341 29.469 35.9783 29.5044L36.1946 28.7964C36.0504 28.761 35.8341 28.761 35.6899 28.761ZM26.0281 30.5309C26.0281 31.5575 26.7492 32.3008 27.8667 32.3008C28.3715 32.3008 28.732 32.1947 29.0925 31.9115L28.732 31.3097C28.4436 31.5221 28.1552 31.6283 27.8307 31.6283C27.2178 31.6283 26.7852 31.2035 26.7852 30.5309C26.7852 29.8938 27.2178 29.469 27.8307 29.4336C28.1552 29.4336 28.4436 29.5398 28.732 29.7522L29.0925 29.1504C28.732 28.8672 28.3715 28.761 27.8667 28.761C26.7492 28.761 26.0281 29.5044 26.0281 30.5309ZM33.0221 30.5309V28.8318H32.265V29.2566C32.0127 28.938 31.6522 28.761 31.1835 28.761C30.2101 28.761 29.453 29.5044 29.453 30.5309C29.453 31.5575 30.2101 32.3008 31.1835 32.3008C31.6882 32.3008 32.0487 32.1239 32.265 31.8053V32.2301H33.0221V30.5309ZM30.2462 30.5309C30.2462 29.9292 30.6427 29.4336 31.2916 29.4336C31.9045 29.4336 32.3371 29.8938 32.3371 30.5309C32.3371 31.1327 31.9045 31.6283 31.2916 31.6283C30.6427 31.5929 30.2462 31.1327 30.2462 30.5309ZM21.1972 28.761C20.1878 28.761 19.4668 29.469 19.4668 30.5309C19.4668 31.5929 20.1878 32.3008 21.2333 32.3008C21.738 32.3008 22.2427 32.1593 22.6393 31.8407L22.2788 31.3097C21.9904 31.5221 21.6298 31.6637 21.2693 31.6637C20.8007 31.6637 20.332 31.4513 20.2238 30.8495H22.7835C22.7835 30.7433 22.7835 30.6725 22.7835 30.5663C22.8195 29.469 22.1706 28.761 21.1972 28.761ZM21.1972 29.3982C21.6659 29.3982 21.9904 29.6814 22.0625 30.2124H20.2599C20.332 29.7522 20.6564 29.3982 21.1972 29.3982ZM39.9801 30.5309V27.4867H39.223V29.2566C38.9706 28.938 38.6101 28.761 38.1414 28.761C37.168 28.761 36.411 29.5044 36.411 30.5309C36.411 31.5575 37.168 32.3008 38.1414 32.3008C38.6461 32.3008 39.0067 32.1239 39.223 31.8053V32.2301H39.9801V30.5309ZM37.2041 30.5309C37.2041 29.9292 37.6007 29.4336 38.2496 29.4336C38.8625 29.4336 39.2951 29.8938 39.2951 30.5309C39.2951 31.1327 38.8625 31.6283 38.2496 31.6283C37.6007 31.5929 37.2041 31.1327 37.2041 30.5309ZM11.8959 30.5309V28.8318H11.1389V29.2566C10.8865 28.938 10.526 28.761 10.0573 28.761C9.08392 28.761 8.32683 29.5044 8.32683 30.5309C8.32683 31.5575 9.08392 32.3008 10.0573 32.3008C10.562 32.3008 10.9225 32.1239 11.1389 31.8053V32.2301H11.8959V30.5309ZM9.08391 30.5309C9.08391 29.9292 9.48048 29.4336 10.1294 29.4336C10.7423 29.4336 11.1749 29.8938 11.1749 30.5309C11.1749 31.1327 10.7423 31.6283 10.1294 31.6283C9.48048 31.5929 9.08391 31.1327 9.08391 30.5309Z" fill="white"/>
<path d="M26.6765 2.72565H15.3203V22.761H26.6765V2.72565Z" fill="#FF5F00"/>
<path d="M16.0419 12.7434C16.0419 8.67257 17.9887 5.06195 20.981 2.72567C18.7819 1.02655 16.0059 0 12.9776 0C5.80332 0 -0.000976562 5.69912 -0.000976562 12.7434C-0.000976562 19.7876 5.80332 25.4867 12.9776 25.4867C16.0059 25.4867 18.7819 24.4602 20.981 22.7611C17.9887 20.4602 16.0419 16.8142 16.0419 12.7434Z" fill="#EB001B"/>
<path d="M41.9976 12.7434C41.9976 19.7876 36.1933 25.4867 29.0191 25.4867C25.9907 25.4867 23.2148 24.4602 21.0156 22.7611C24.0439 20.4248 25.9547 16.8142 25.9547 12.7434C25.9547 8.67257 24.0079 5.06195 21.0156 2.72567C23.2148 1.02655 25.9907 0 29.0191 0C36.1933 0 41.9976 5.73451 41.9976 12.7434Z" fill="#F79E1B"/>
</g>
<defs>
<clipPath id="clip0">
<rect width="71" height="32" fill="white" transform="translate(58)"/>
</clipPath>
<clipPath id="clip1">
<rect width="42" height="32" fill="white"/>
</clipPath>
</defs>
</svg>
