<svg width="27" height="20" viewBox="0 0 27 20" fill="none" xmlns="http://www.w3.org/2000/svg">
<path d="M4.91311 19.9558V18.6283C4.91311 18.1195 4.58865 17.7876 4.03242 17.7876C3.75431 17.7876 3.45303 17.8761 3.24444 18.1637C3.08221 17.9204 2.85045 17.7876 2.50281 17.7876C2.27105 17.7876 2.03929 17.854 1.85388 18.0973V17.8319H1.36719V19.9558H1.85388V18.7832C1.85388 18.4071 2.06247 18.2301 2.38693 18.2301C2.71139 18.2301 2.87363 18.4292 2.87363 18.7832V19.9558H3.36032V18.7832C3.36032 18.4071 3.59208 18.2301 3.89337 18.2301C4.21783 18.2301 4.38006 18.4292 4.38006 18.7832V19.9558H4.91311ZM12.1208 17.8319H11.3329V17.1903H10.8462V17.8319H10.4058V18.2522H10.8462V19.2257C10.8462 19.7124 11.0547 20 11.611 20C11.8195 20 12.0513 19.9336 12.2135 19.8451L12.0745 19.4469C11.9354 19.5354 11.7732 19.5575 11.6573 19.5575C11.4256 19.5575 11.3329 19.4248 11.3329 19.2035V18.2522H12.1208V17.8319ZM16.2462 17.7876C15.968 17.7876 15.7826 17.9204 15.6668 18.0973V17.8319H15.1801V19.9558H15.6668V18.7611C15.6668 18.4071 15.829 18.208 16.1303 18.208C16.223 18.208 16.3389 18.2301 16.4316 18.2522L16.5706 17.8097C16.4779 17.7876 16.3389 17.7876 16.2462 17.7876ZM10.0118 18.0088C9.78006 17.854 9.4556 17.7876 9.10796 17.7876C8.55174 17.7876 8.18092 18.0531 8.18092 18.4734C8.18092 18.8274 8.45903 19.0265 8.94572 19.0929L9.17748 19.115C9.43242 19.1593 9.57148 19.2257 9.57148 19.3363C9.57148 19.4911 9.38607 19.6018 9.0616 19.6018C8.73714 19.6018 8.48221 19.4911 8.31998 19.3805L8.08822 19.7345C8.34315 19.9115 8.69079 20 9.03843 20C9.68736 20 10.0582 19.7124 10.0582 19.3142C10.0582 18.9381 9.75688 18.7389 9.29336 18.6726L9.0616 18.6504C8.85302 18.6283 8.69079 18.5841 8.69079 18.4513C8.69079 18.2965 8.85302 18.208 9.10796 18.208C9.38607 18.208 9.66418 18.3186 9.80324 18.385L10.0118 18.0088ZM22.944 17.7876C22.6659 17.7876 22.4805 17.9204 22.3646 18.0973V17.8319H21.8779V19.9558H22.3646V18.7611C22.3646 18.4071 22.5268 18.208 22.8281 18.208C22.9208 18.208 23.0367 18.2301 23.1294 18.2522L23.2685 17.8097C23.1758 17.7876 23.0367 17.7876 22.944 17.7876ZM16.7329 18.8938C16.7329 19.5354 17.1964 20 17.9148 20C18.2393 20 18.471 19.9336 18.7028 19.7566L18.471 19.3805C18.2856 19.5133 18.1002 19.5796 17.8916 19.5796C17.4977 19.5796 17.2195 19.3142 17.2195 18.8938C17.2195 18.4956 17.4977 18.2301 17.8916 18.208C18.1002 18.208 18.2856 18.2743 18.471 18.4071L18.7028 18.031C18.471 17.854 18.2393 17.7876 17.9148 17.7876C17.1964 17.7876 16.7329 18.2522 16.7329 18.8938ZM21.229 18.8938V17.8319H20.7423V18.0973C20.5801 17.8982 20.3483 17.7876 20.047 17.7876C19.4213 17.7876 18.9346 18.2522 18.9346 18.8938C18.9346 19.5354 19.4213 20 20.047 20C20.3715 20 20.6032 19.8894 20.7423 19.6903V19.9558H21.229V18.8938ZM19.4444 18.8938C19.4444 18.5177 19.6994 18.208 20.1165 18.208C20.5105 18.208 20.7886 18.4956 20.7886 18.8938C20.7886 19.2699 20.5105 19.5796 20.1165 19.5796C19.6994 19.5575 19.4444 19.2699 19.4444 18.8938ZM13.6273 17.7876C12.9783 17.7876 12.5148 18.2301 12.5148 18.8938C12.5148 19.5575 12.9783 20 13.6505 20C13.9749 20 14.2994 19.9115 14.5543 19.7124L14.3226 19.3805C14.1371 19.5133 13.9054 19.6018 13.6736 19.6018C13.3723 19.6018 13.071 19.469 13.0015 19.0929H14.647C14.647 19.0265 14.647 18.9823 14.647 18.9159C14.6702 18.2301 14.253 17.7876 13.6273 17.7876ZM13.6273 18.1858C13.9286 18.1858 14.1371 18.3628 14.1835 18.6947H13.0247C13.071 18.4071 13.2796 18.1858 13.6273 18.1858ZM25.702 18.8938V16.9911H25.2153V18.0973C25.053 17.8982 24.8213 17.7876 24.52 17.7876C23.8942 17.7876 23.4075 18.2522 23.4075 18.8938C23.4075 19.5354 23.8942 20 24.52 20C24.8444 20 25.0762 19.8894 25.2153 19.6903V19.9558H25.702V18.8938ZM23.9174 18.8938C23.9174 18.5177 24.1723 18.208 24.5895 18.208C24.9835 18.208 25.2616 18.4956 25.2616 18.8938C25.2616 19.2699 24.9835 19.5796 24.5895 19.5796C24.1723 19.5575 23.9174 19.2699 23.9174 18.8938ZM7.64788 18.8938V17.8319H7.16118V18.0973C6.99895 17.8982 6.76719 17.7876 6.4659 17.7876C5.84015 17.7876 5.35345 18.2522 5.35345 18.8938C5.35345 19.5354 5.84015 20 6.4659 20C6.79036 20 7.02212 19.8894 7.16118 19.6903V19.9558H7.64788V18.8938ZM5.84015 18.8938C5.84015 18.5177 6.09508 18.208 6.51225 18.208C6.90624 18.208 7.18436 18.4956 7.18436 18.8938C7.18436 19.2699 6.90624 19.5796 6.51225 19.5796C6.09508 19.5575 5.84015 19.2699 5.84015 18.8938Z" fill="white"/>
<path d="M17.15 1.70355H9.84961V14.2257H17.15V1.70355Z" fill="#FF5F00"/>
<path d="M10.3133 7.9646C10.3133 5.42035 11.5648 3.16372 13.4884 1.70354C12.0747 0.641596 10.2901 0 8.34335 0C3.73133 0 0 3.56195 0 7.9646C0 12.3673 3.73133 15.9292 8.34335 15.9292C10.2901 15.9292 12.0747 15.2876 13.4884 14.2257C11.5648 12.7876 10.3133 10.5089 10.3133 7.9646Z" fill="#EB001B"/>
<path d="M27.0001 7.9646C27.0001 12.3673 23.2688 15.9292 18.6568 15.9292C16.71 15.9292 14.9255 15.2876 13.5117 14.2257C15.4585 12.7655 16.6868 10.5089 16.6868 7.9646C16.6868 5.42035 15.4353 3.16372 13.5117 1.70354C14.9255 0.641596 16.71 0 18.6568 0C23.2688 0 27.0001 3.58407 27.0001 7.9646Z" fill="#F79E1B"/>
</svg>
