<svg width="95" height="32" viewBox="0 0 95 32" fill="none" xmlns="http://www.w3.org/2000/svg">
<path d="M78.1948 11.8296C78.2548 11.2626 78.3311 10.7337 78.3638 10.2048C78.4183 9.39239 78.3202 8.59634 78.1293 7.80575C77.9113 6.91701 77.4968 6.13186 76.8753 5.46668C76.112 4.65428 75.1687 4.16356 74.0565 3.99454C73.0914 3.84732 72.1482 3.9182 71.2212 4.20172C70.0381 4.56159 69.0567 5.23222 68.2443 6.16458C66.8976 7.71851 66.0362 9.51234 65.5673 11.5079C65.4145 12.1622 65.3328 12.8219 65.2892 13.4926C65.2565 14.0052 65.2456 14.5067 65.2947 15.0138C65.4092 16.1969 65.818 17.2492 66.576 18.1707C67.4538 19.2394 68.6096 19.6647 69.9509 19.7083C71.1831 19.7465 72.2572 19.2885 73.2714 18.6506C74.0347 18.1761 74.7216 17.5983 75.3705 16.9876C76.5373 15.8862 77.6114 14.6921 78.6746 13.4926C79.1598 12.9419 79.656 12.4075 80.1467 11.8569C80.9536 10.9572 81.7715 10.0739 82.5567 9.15795C83.5544 7.99658 84.7593 7.16236 86.2042 6.67711C86.7495 6.49718 87.3111 6.4263 87.889 6.39359C88.6523 6.34452 89.3992 6.4154 90.1299 6.64439C91.7002 7.1351 92.7743 8.18197 93.4176 9.67046C93.8156 10.5919 93.9955 11.5679 94.0391 12.5657C94.0556 12.9473 94.1047 13.3345 94.0937 13.7162C94.0501 15.559 93.7175 17.3419 92.8452 18.9941C92.1309 20.3408 91.2203 21.5185 89.9881 22.4345C89.0012 23.1706 87.9108 23.634 86.6841 23.7867C85.7571 23.9012 84.852 23.8576 83.9525 23.6231C83.0855 23.3941 82.3167 22.9743 81.6733 22.3418C81.5152 22.1892 81.3626 22.031 81.1554 21.8293C80.5666 24.6481 79.9886 27.407 79.4106 30.1714C77.8895 30.1714 76.4119 30.1714 74.907 30.1714C75.0106 29.6752 75.1088 29.19 75.207 28.7047C75.4959 27.298 75.7904 25.8859 76.0793 24.4791C76.1284 24.2447 76.2156 24.043 76.3846 23.863C77.3388 22.8325 78.2766 21.7856 79.2144 20.7442C80.1194 19.741 81.0245 18.7323 81.9623 17.691C82.0059 17.7945 82.0442 17.8763 82.0768 17.9636C82.3549 18.7105 82.7421 19.3758 83.3909 19.8665C84.334 20.5807 85.3537 20.6406 86.4168 20.1826C87.3492 19.7846 87.9926 19.0704 88.4561 18.1871C89.0776 17.0094 89.4593 15.7553 89.6392 14.4414C89.7537 13.6126 89.7373 12.7838 89.5137 11.9659C89.3611 11.4098 88.7286 10.8973 88.1507 10.8536C87.4637 10.7991 86.8585 11.0281 86.2751 11.3607C85.5609 11.7751 84.9284 12.2985 84.3287 12.8546C83.2927 13.8252 82.3876 14.9157 81.5262 16.0389C80.6102 17.2329 79.6996 18.427 78.7455 19.5883C78.0531 20.4335 77.3279 21.2513 76.4883 21.9655C75.9593 22.4127 75.3814 22.7616 74.7326 23.0016C73.6204 23.4105 72.4807 23.7104 71.2976 23.7703C70.6651 23.8031 70.0326 23.8521 69.4003 23.8249C67.2574 23.7322 65.3165 23.0943 63.6644 21.6548C62.3613 20.5207 61.5434 19.114 61.0745 17.4729C60.7474 16.3333 60.5784 15.1665 60.6275 13.9778C60.682 12.8001 60.8455 11.6333 61.1345 10.4883C61.4452 9.24518 61.8488 8.02929 62.4213 6.8843C63.1355 5.46123 64.0351 4.16901 65.2238 3.10034C66.805 1.67182 68.626 0.706747 70.7252 0.281462C71.3685 0.150604 72.0228 0.0960809 72.677 0.0361046C73.3913 -0.0347764 74.0946 0.00884267 74.798 0.0797237C76.6572 0.265105 78.342 0.892128 79.7923 2.10801C81.2208 3.30753 82.1369 4.81785 82.6384 6.60078C82.682 6.76435 82.6602 6.87884 82.5457 7.00425C81.8097 7.8112 81.0736 8.62361 80.3429 9.43601C79.7106 10.1394 79.0835 10.8427 78.4511 11.5406C78.3911 11.6497 78.3039 11.726 78.1948 11.8296Z" fill="#00B3FF"/>
<path fill-rule="evenodd" clip-rule="evenodd" d="M7.16 0.00366685H6.70923C5.47075 5.98385 4.23545 11.9287 3.00091 17.8698C2.60456 19.7771 2.2083 21.6841 1.81204 23.5918C1.80837 23.614 1.80955 23.6388 1.81078 23.6644C1.8114 23.6774 1.81204 23.6907 1.81204 23.704C1.81448 23.7114 1.81584 23.7178 1.81709 23.7234C1.81867 23.7307 1.82005 23.7371 1.82316 23.7434C1.82595 23.7462 1.83012 23.7489 1.83638 23.7532C1.84264 23.7574 1.85099 23.763 1.86213 23.7714H6.61464C6.9058 22.4089 7.19018 21.0487 7.4744 19.6892C7.82031 18.0346 8.166 16.381 8.52343 14.7259H9.02427C9.71428 14.7191 10.4043 14.7106 11.0943 14.702C12.1294 14.6892 13.1646 14.6764 14.1998 14.6697C15.1791 14.6641 16.1475 14.5462 17.1047 14.344C18.2066 14.1082 19.2472 13.7376 20.171 13.0639C21.2673 12.2609 22.0575 11.2166 22.6252 9.98692C23.3875 8.33052 23.6936 6.60676 23.4321 4.79316C23.0926 2.42368 21.5288 0.778519 19.2082 0.284411C18.1286 0.0542007 17.0434 0.0148966 15.9526 0.00928173C13.862 -0.00274939 11.7684 -0.000458642 9.67405 0.001833C8.83613 0.00274986 7.99806 0.00366685 7.16 0.00366685ZM9.78111 10.8067H9.29138C9.47325 9.9351 9.6528 9.0759 9.83091 8.22364C10.1324 6.7809 10.4298 5.35801 10.7271 3.92846C10.7814 3.92635 10.8333 3.92346 10.8834 3.92066C10.967 3.916 11.0457 3.91162 11.1223 3.91162C11.4729 3.91162 11.8235 3.91009 12.1741 3.90858C12.9922 3.90505 13.8101 3.9015 14.6282 3.91723C15.296 3.92846 15.9693 3.97899 16.6371 4.04637C18.0786 4.18674 18.8354 5.2648 18.6851 6.74151C18.4737 8.81901 16.9321 10.2396 15.0957 10.5147C14.3555 10.627 13.6098 10.7 12.8642 10.7393C12.1775 10.773 11.4933 10.7817 10.8083 10.7905C10.4663 10.7948 10.124 10.7992 9.78111 10.8067Z" fill="#0B41BE"/>
<path fill-rule="evenodd" clip-rule="evenodd" d="M26.275 9.1879C25.8593 9.75622 25.5449 10.3733 25.3211 11.0985C26.6149 11.2153 27.8828 11.3234 29.1405 11.4306C29.2815 11.4426 29.4223 11.4546 29.5631 11.4666C29.5725 11.445 29.5814 11.4244 29.59 11.4046C29.6353 11.3001 29.6711 11.2175 29.7069 11.131C30.0108 10.4003 30.5383 9.93484 31.2898 9.71834C31.8654 9.55596 32.4516 9.54513 33.0271 9.63173C33.3308 9.68044 33.6453 9.79412 33.9118 9.95108C34.3807 10.2271 34.6418 10.6601 34.6526 11.2284C34.6631 11.6777 34.5673 12.1053 34.4607 12.5384C34.418 12.7332 34.3114 12.8305 34.1249 12.8684C33.9409 12.9023 33.7576 12.9412 33.5743 12.9801C33.2585 13.0472 32.9424 13.1142 32.6221 13.1553C31.8647 13.2497 31.1048 13.3295 30.3441 13.4092C29.9701 13.4485 29.5961 13.4878 29.2221 13.5287C28.3534 13.6262 27.5008 13.8156 26.6747 14.1188C25.1666 14.6763 24.1593 15.7209 23.7329 17.3013C23.4931 18.1728 23.4665 19.055 23.6157 19.9427C23.8556 21.3824 24.6069 22.4704 25.8593 23.1849C26.9731 23.8235 28.1722 23.8885 29.398 23.6287C30.6556 23.358 31.7374 22.7465 32.6488 21.8262C32.6897 21.7847 32.7306 21.7443 32.7754 21.6998C32.8299 21.646 32.8902 21.5865 32.9631 21.5124C32.991 21.6868 33.0139 21.8571 33.0362 22.0235C33.0989 22.4924 33.1575 22.9303 33.3149 23.3418C33.8638 23.4122 37.2851 23.3905 37.5463 23.3093C37.537 23.2716 37.5287 23.235 37.5206 23.1988C37.51 23.152 37.4998 23.1062 37.4877 23.0603C37.1786 21.8912 37.1306 20.7004 37.3545 19.5097C37.4872 18.8053 37.6298 18.1025 37.7723 17.4005C37.8871 16.8348 38.0018 16.2698 38.1112 15.7046C38.1902 15.2928 38.2785 14.8831 38.3668 14.4735C38.5998 13.3918 38.8327 12.3109 38.8945 11.196C38.9425 10.3733 38.82 9.59385 38.4096 8.87938C37.7594 7.73733 36.7575 7.06617 35.5266 6.71977C34.6791 6.48161 33.8105 6.40583 32.9312 6.40042C32.0198 6.395 31.1139 6.44372 30.2186 6.6494C28.6092 7.02287 27.2715 7.83476 26.275 9.1879ZM33.3429 15.7408C33.4828 15.7169 33.6298 15.6918 33.7891 15.6667C33.7762 15.742 33.7659 15.81 33.7563 15.8729C33.7382 15.991 33.723 16.091 33.6987 16.1863C33.6526 16.3582 33.6086 16.531 33.5647 16.7036C33.4508 17.151 33.3369 17.5985 33.187 18.032C32.7181 19.3798 31.7001 20.078 30.3626 20.3541C29.9521 20.4406 29.5472 20.4569 29.1368 20.3541C28.4014 20.17 27.8791 19.7262 27.7299 18.9685C27.5807 18.2161 27.7246 17.5179 28.4654 16.9875C28.9183 16.6627 29.4406 16.4949 29.9682 16.3488C30.8577 16.1047 31.7669 15.9753 32.6768 15.8457C32.7154 15.8401 32.754 15.8347 32.7926 15.8292C32.9715 15.8041 33.1505 15.7736 33.3429 15.7408Z" fill="#0B41BE"/>
<path d="M0.761423 28.3411L0 32L40.5486 30.1678L42.5238 26.5142L0.761423 28.3411Z" fill="#0B41BE"/>
<path d="M59.3638 6.40554C58.037 6.40554 56.7048 6.41105 55.3779 6.40002C55.1191 6.40002 54.9897 6.48826 54.8656 6.71434C53.7599 8.83175 52.6434 10.9437 51.527 13.0556C50.4861 15.0131 49.5099 16.9982 48.7817 19.1046C48.7656 19.1542 48.7223 19.1983 48.6685 19.281C48.5282 17.092 48.2208 14.969 47.9403 12.8405C47.6598 10.7066 47.3686 8.56708 47.0827 6.43311C45.5888 6.43311 44.1433 6.43311 42.687 6.43311C42.6817 6.5048 42.6708 6.55442 42.6762 6.59854C42.9298 8.09286 43.1886 9.59271 43.4422 11.087C43.6741 12.4601 43.9113 13.8331 44.1433 15.206C44.4022 16.728 44.6611 18.2499 44.9199 19.7718C45.1087 20.8857 45.4809 23.1134 45.4809 23.1134L41.6191 30.1715C44.4184 30.1715 46.1605 30.1715 46.1605 30.1715C46.1605 30.1715 52.5949 19.4134 54.2076 16.4799C56.0036 13.2155 57.7997 9.95113 59.5957 6.68676C59.6388 6.61508 59.6659 6.53237 59.7143 6.42208C59.5795 6.41657 59.4717 6.40554 59.3638 6.40554Z" fill="#0B41BE"/>
</svg>
