<svg width="119" height="32" viewBox="0 0 119 32" fill="none" xmlns="http://www.w3.org/2000/svg">
<path d="M44.3474 6.54449H37.7842C37.335 6.54449 36.9531 6.87419 36.883 7.32219L34.2286 24.3278C34.1758 24.6633 34.433 24.9658 34.7698 24.9658H37.9032C38.3523 24.9658 38.7343 24.6361 38.8043 24.1872L39.5202 19.6005C39.5893 19.1515 39.9722 18.8218 40.4204 18.8218H42.4981C46.8215 18.8218 49.3166 16.7079 49.9682 12.5188C50.2619 10.6861 49.9807 9.24607 49.1314 8.23759C48.1986 7.13019 46.5441 6.54449 44.3474 6.54449ZM45.1046 12.7554C44.7457 15.135 42.9463 15.135 41.2064 15.135H40.216L40.9108 10.6909C40.9521 10.4223 41.1824 10.2245 41.4511 10.2245H41.905C43.0902 10.2245 44.2083 10.2245 44.786 10.9072C45.1305 11.3144 45.2361 11.9195 45.1046 12.7554Z" fill="#253B80"/>
<path d="M63.9659 12.6788H60.823C60.5553 12.6788 60.324 12.8766 60.2827 13.1452L60.1436 14.0335L59.9238 13.7115C59.2434 12.7137 57.7261 12.3801 56.2118 12.3801C52.7387 12.3801 49.7723 15.0381 49.1946 18.7666C48.8942 20.6264 49.3213 22.4049 50.3654 23.6451C51.3232 24.7855 52.6936 25.2606 54.3241 25.2606C57.1225 25.2606 58.6743 23.4424 58.6743 23.4424L58.5342 24.3249C58.4814 24.6623 58.7386 24.9649 59.0735 24.9649H61.9046C62.3546 24.9649 62.7347 24.6352 62.8057 24.1862L64.5043 13.3169C64.5581 12.9823 64.3018 12.6788 63.9659 12.6788ZM59.585 18.8596C59.2818 20.6739 57.8566 21.8919 56.039 21.8919C55.1264 21.8919 54.397 21.5961 53.9287 21.0356C53.4642 20.479 53.2876 19.6868 53.4354 18.8044C53.7185 17.0056 55.1676 15.7479 56.9574 15.7479C57.8499 15.7479 58.5754 16.0475 59.0534 16.6129C59.5322 17.184 59.7223 17.9811 59.585 18.8596Z" fill="#253B80"/>
<path d="M80.7049 12.6788H77.5466C77.2452 12.6788 76.9621 12.83 76.7913 13.0831L72.4353 19.5665L70.5889 13.3362C70.4728 12.9464 70.1168 12.6788 69.7137 12.6788H66.6101C66.2329 12.6788 65.9709 13.0511 66.0909 13.4099L69.5697 23.7256L66.2992 28.3908C66.042 28.7583 66.3011 29.2635 66.7454 29.2635H69.8999C70.1993 29.2635 70.4795 29.1161 70.6494 28.8679L81.154 13.5467C81.4054 13.1801 81.1473 12.6788 80.7049 12.6788Z" fill="#253B80"/>
<path d="M91.1619 6.54449H84.5977C84.1495 6.54449 83.7675 6.87419 83.6975 7.32219L81.043 24.3278C80.9902 24.6633 81.2474 24.9658 81.5824 24.9658H84.9508C85.2637 24.9658 85.5314 24.735 85.5804 24.4209L86.3337 19.6005C86.4028 19.1515 86.7857 18.8218 87.2339 18.8218H89.3106C93.635 18.8218 96.1292 16.7079 96.7817 12.5188C97.0764 10.6861 96.7932 9.24607 95.9439 8.23759C95.0121 7.13019 93.3586 6.54449 91.1619 6.54449ZM91.919 12.7554C91.5611 15.135 89.7617 15.135 88.0208 15.135H87.0314L87.7272 10.6909C87.7684 10.4223 87.9968 10.2245 88.2665 10.2245H88.7204C89.9047 10.2245 91.0237 10.2245 91.6014 10.9072C91.9459 11.3144 92.0505 11.9195 91.919 12.7554Z" fill="#179BD7"/>
<path d="M110.779 12.6788H107.638C107.369 12.6788 107.139 12.8766 107.099 13.1452L106.96 14.0335L106.739 13.7115C106.059 12.7137 104.542 12.3801 103.028 12.3801C99.5549 12.3801 96.5894 15.0381 96.0117 18.7666C95.7123 20.6264 96.1374 22.4049 97.1816 23.6451C98.1412 24.7855 99.5097 25.2606 101.14 25.2606C103.939 25.2606 105.49 23.4424 105.49 23.4424L105.35 24.3249C105.298 24.6623 105.555 24.9649 105.892 24.9649H108.722C109.17 24.9649 109.552 24.6352 109.622 24.1862L111.321 13.3169C111.373 12.9823 111.116 12.6788 110.779 12.6788ZM106.398 18.8596C106.097 20.6739 104.67 21.8919 102.852 21.8919C101.942 21.8919 101.21 21.5961 100.742 21.0356C100.277 20.479 100.103 19.6868 100.249 18.8044C100.534 17.0056 101.981 15.7479 103.771 15.7479C104.663 15.7479 105.389 16.0475 105.867 16.6129C106.347 17.184 106.537 17.9811 106.398 18.8596Z" fill="#179BD7"/>
<path d="M114.485 7.01091L111.791 24.3278C111.738 24.6633 111.995 24.9658 112.33 24.9658H115.039C115.489 24.9658 115.871 24.6361 115.94 24.1872L118.596 7.18255C118.649 6.84703 118.392 6.54352 118.057 6.54352H115.024C114.756 6.54449 114.526 6.74231 114.485 7.01091Z" fill="#179BD7"/>
<path d="M6.97335 28.2706L7.47526 25.0492L6.35724 25.023H1.01855L4.72867 1.25286C4.74018 1.1811 4.77761 1.11419 4.83231 1.06668C4.88701 1.01916 4.95707 0.992981 5.03001 0.992981H14.0318C17.0202 0.992981 19.0826 1.62134 20.1593 2.86159C20.6641 3.44341 20.9856 4.05141 21.1411 4.7205C21.3042 5.42256 21.3071 6.26134 21.1478 7.28438L21.1363 7.35904V8.01456L21.6411 8.30353C22.0662 8.5314 22.404 8.79225 22.6631 9.09092C23.095 9.58838 23.3742 10.2206 23.4923 10.9702C23.6142 11.7411 23.5739 12.6584 23.3742 13.697C23.1439 14.8916 22.7716 15.9321 22.2687 16.7835C21.8061 17.568 21.2169 18.2187 20.5173 18.7229C19.8493 19.202 19.0557 19.5656 18.1584 19.7983C17.2889 20.0272 16.2976 20.1426 15.2103 20.1426H14.5097C14.0087 20.1426 13.5222 20.3249 13.1402 20.6516C12.7573 20.9852 12.504 21.441 12.4262 21.9394L12.3735 22.2293L11.4867 27.9069L11.4464 28.1154C11.4359 28.1813 11.4176 28.2143 11.3907 28.2366C11.3668 28.257 11.3322 28.2706 11.2986 28.2706H6.97335Z" fill="#253B80"/>
<path d="M22.1183 7.43469C22.0914 7.60827 22.0607 7.78572 22.0262 7.96803C20.8391 14.1266 16.7777 16.2541 11.5907 16.2541H8.94963C8.31528 16.2541 7.78074 16.7195 7.68189 17.3518L6.32971 26.017L5.94679 28.4732C5.8825 28.8883 6.19919 29.2626 6.61377 29.2626H11.298C11.8526 29.2626 12.3239 28.8553 12.4112 28.3026L12.4572 28.0621L13.3392 22.4068L13.3958 22.0965C13.4822 21.5418 13.9543 21.1346 14.509 21.1346H15.2096C19.7479 21.1346 23.3006 19.2728 24.339 13.8851C24.7728 11.6345 24.5482 9.75518 23.4004 8.43348C23.053 8.03493 22.6222 7.70427 22.1183 7.43469Z" fill="#179BD7"/>
<path d="M20.8772 6.93433C20.6958 6.881 20.5087 6.83251 20.3168 6.78888C20.1239 6.74621 19.9262 6.70839 19.7227 6.67542C19.0107 6.55906 18.2304 6.50378 17.3946 6.50378H10.339C10.1653 6.50378 10.0002 6.54354 9.85245 6.6153C9.52712 6.77336 9.28528 7.08463 9.22674 7.46572L7.7258 17.0715L7.68262 17.3518C7.78146 16.7195 8.316 16.2541 8.95035 16.2541H11.5914C16.7784 16.2541 20.8398 14.1256 22.0269 7.96803C22.0624 7.78572 22.0922 7.60827 22.119 7.43469C21.8187 7.27372 21.4933 7.13603 21.1431 7.01869C21.0567 6.9896 20.9674 6.96148 20.8772 6.93433Z" fill="#222D65"/>
<path d="M9.22633 7.4657C9.28487 7.08461 9.52671 6.77333 9.85204 6.61624C10.0008 6.54449 10.1649 6.50473 10.3386 6.50473H17.3941C18.23 6.50473 19.0102 6.56 19.7223 6.67636C19.9258 6.70933 20.1235 6.74715 20.3164 6.78982C20.5083 6.83345 20.6954 6.88194 20.8768 6.93527C20.967 6.96242 21.0563 6.99055 21.1436 7.01867C21.4939 7.136 21.8192 7.27467 22.1196 7.43467C22.4728 5.15879 22.1167 3.60921 20.8989 2.20606C19.5563 0.661333 17.1331 0 14.0324 0H5.03062C4.39723 0 3.85693 0.465455 3.75905 1.09867L0.00958605 25.1132C-0.0643091 25.5884 0.298449 26.017 0.77253 26.017H6.33002L7.72539 17.0715L9.22633 7.4657Z" fill="#253B80"/>
</svg>
