<svg width="110" height="110" viewBox="0 0 110 110" fill="none" xmlns="http://www.w3.org/2000/svg">
<rect width="110" height="110" rx="10" fill="#0088E0"/>
<rect width="110" height="110" rx="10" fill="url(#paint0_linear)"/>
<path d="M57.2632 74C36.6489 74 25.9471 56.8392 25.4893 56.113L25 55.2921L25.4893 54.4711C25.9313 53.7291 36.6962 36 57.7525 36H57.9262C78.2722 36.0947 89.0529 52.9082 89.4949 53.6344L90 54.4238L89.5265 55.2447C89.1003 56.0183 78.6668 73.8895 57.3895 74H57.2632ZM28.7251 55.2763C31.0454 58.639 40.6265 70.8425 57.2632 70.8425H57.3737C74.3103 70.8425 84.0177 57.897 86.2749 54.4869C83.9388 51.2032 74.3261 39.2364 57.863 39.1575H57.7052C40.9264 39.1575 31.0454 51.9136 28.7251 55.2763Z" fill="white"/>
<path d="M57.8472 67.3536C55.4042 67.3567 53.015 66.6355 50.9815 65.2812C48.948 63.9269 47.3614 62.0002 46.4222 59.7445C45.483 57.4887 45.2332 55.0052 45.7045 52.6076C46.1758 50.21 47.3469 48.0058 49.07 46.2736C50.7931 44.5414 52.9908 43.3588 55.3856 42.8752C57.7803 42.3916 60.2646 42.6287 62.5247 43.5566C64.7848 44.4845 66.7192 46.0615 68.0836 48.0884C69.448 50.1154 70.1812 52.5013 70.1906 54.9448C70.1947 56.5702 69.8788 58.1805 69.2607 59.6837C68.6426 61.187 67.7346 62.5538 66.5884 63.706C65.4422 64.8583 64.0803 65.7735 62.5805 66.3993C61.0807 67.0252 59.4723 67.3494 57.8472 67.3536ZM57.8472 45.8039C56.0238 45.8008 54.2406 46.3396 52.7239 47.3519C51.2072 48.3641 50.0253 49.8043 49.3283 51.4895C48.6312 53.1747 48.4505 55.029 48.8089 56.8172C49.1673 58.6053 50.0488 60.2467 51.3415 61.5329C52.6341 62.8191 54.2797 63.6923 56.0693 64.0415C57.859 64.3908 59.712 64.2004 61.3933 63.4945C63.0746 62.7887 64.5083 61.5992 65.5125 60.077C66.5168 58.5547 67.0462 56.7684 67.0337 54.9448C67.0171 52.5174 66.0424 50.1949 64.3218 48.4829C62.6012 46.7709 60.2742 45.808 57.8472 45.8039Z" fill="white"/>
<path d="M57.5 60.8965C56.3344 60.8965 55.195 60.5514 54.2252 59.9047C53.2555 59.2579 52.4988 58.3386 52.0507 57.2624C51.6025 56.1863 51.4829 55.0015 51.7068 53.8575C51.9308 52.7135 52.4884 51.6613 53.3092 50.8337C54.1301 50.0061 55.1775 49.4401 56.3195 49.2069C57.4615 48.9738 58.647 49.084 59.7265 49.5236C60.806 49.9633 61.7312 50.7127 62.3855 51.6774C63.0398 52.6421 63.394 53.779 63.4033 54.9447C63.4096 55.7241 63.2615 56.497 62.9676 57.2188C62.6737 57.9406 62.2399 58.5972 61.6911 59.1505C61.1423 59.7038 60.4894 60.1429 59.7701 60.4426C59.0507 60.7423 58.2792 60.8966 57.5 60.8965ZM57.5 52.2609C56.9541 52.261 56.4207 52.4239 55.9678 52.7286C55.5148 53.0333 55.163 53.4661 54.9571 53.9718C54.7512 54.4774 54.7006 55.0329 54.8118 55.5674C54.923 56.102 55.1909 56.5912 55.5814 56.9727C55.9718 57.3543 56.4671 57.6108 57.0039 57.7096C57.5408 57.8083 58.0949 57.7448 58.5955 57.5272C59.0961 57.3096 59.5205 56.9477 59.8146 56.4877C60.1086 56.0277 60.259 55.4906 60.2465 54.9447C60.23 54.2272 59.9333 53.5446 59.42 53.043C58.9068 52.5414 58.2176 52.2607 57.5 52.2609Z" fill="white"/>
<defs>
<linearGradient id="paint0_linear" x1="110" y1="0" x2="0" y2="110" gradientUnits="userSpaceOnUse">
<stop stop-color="#0088E0"/>
<stop offset="1" stop-color="#870AA7"/>
</linearGradient>
</defs>
</svg>
