<svg width="100" height="84" viewBox="0 0 100 84" fill="none" xmlns="http://www.w3.org/2000/svg">
<path d="M89.8 9.03202C89.9711 9.02908 90.1411 9.06012 90.3001 9.12333C90.459 9.18654 90.6037 9.28065 90.7258 9.40017C90.8478 9.51969 90.9448 9.66223 91.0109 9.81947C91.0771 9.97671 91.1111 10.1455 91.1111 10.316V61.5971C91.1111 61.9376 90.9753 62.2642 90.7336 62.505C90.4919 62.7457 90.1641 62.881 89.8222 62.881H10.2C10.0289 62.884 9.85889 62.8529 9.69994 62.7897C9.54099 62.7265 9.39627 62.6324 9.27422 62.5129C9.15217 62.3933 9.05524 62.2508 8.98908 62.0936C8.92292 61.9363 8.88886 61.7675 8.88889 61.5971V10.316C8.88886 10.1455 8.92292 9.97671 8.98908 9.81947C9.05524 9.66223 9.15217 9.51969 9.27422 9.40017C9.39627 9.28065 9.54099 9.18654 9.69994 9.12333C9.85889 9.06012 10.0289 9.02908 10.2 9.03202H89.8ZM89.8 6.81829H10.2C9.73705 6.81537 9.27809 6.90369 8.84953 7.07816C8.42098 7.25263 8.03129 7.5098 7.70289 7.83488C7.3745 8.15997 7.11388 8.54653 6.93605 8.97234C6.75821 9.39815 6.66666 9.85479 6.66667 10.316V61.5971C6.66667 62.5247 7.03659 63.4143 7.69505 64.0703C8.35351 64.7262 9.24657 65.0947 10.1778 65.0947H89.8C90.263 65.0977 90.7219 65.0093 91.1505 64.8349C91.579 64.6604 91.9687 64.4032 92.2971 64.0782C92.6255 63.7531 92.8861 63.3665 93.064 62.9407C93.2418 62.5149 93.3333 62.0582 93.3333 61.5971V10.316C93.3333 9.38834 92.9634 8.49869 92.305 7.84274C91.6465 7.1868 90.7534 6.81829 89.8222 6.81829H89.8Z" fill="#0088E0"/>
<path d="M93.0333 0H6.96667C5.11899 0 3.34699 0.731181 2.04049 2.03269C0.733986 3.3342 0 5.09943 0 6.94004L0 64.7184C0 66.559 0.733986 68.3242 2.04049 69.6258C3.34699 70.9273 5.11899 71.6584 6.96667 71.6584H35.9444L34.4444 80.6794H28.6778C28.2358 80.6794 27.8118 80.8543 27.4993 81.1657C27.1867 81.4771 27.0111 81.8994 27.0111 82.3397C27.0111 82.78 27.1867 83.2023 27.4993 83.5137C27.8118 83.8251 28.2358 84 28.6778 84H71.3222C71.7643 84 72.1882 83.8251 72.5007 83.5137C72.8133 83.2023 72.9889 82.78 72.9889 82.3397C72.9889 81.8994 72.8133 81.4771 72.5007 81.1657C72.1882 80.8543 71.7643 80.6794 71.3222 80.6794H66.1222L64.5778 71.6584H93.0333C94.881 71.6584 96.653 70.9273 97.9595 69.6258C99.266 68.3242 100 66.559 100 64.7184V6.94004C100 5.09943 99.266 3.3342 97.9595 2.03269C96.653 0.731181 94.881 0 93.0333 0V0ZM62.7444 80.6794H37.7778L39.3222 71.6584H44.6333C44.6333 73.0763 45.1987 74.4362 46.2052 75.4388C47.2116 76.4414 48.5767 77.0046 50 77.0046C51.4233 77.0046 52.7884 76.4414 53.7948 75.4388C54.8013 74.4362 55.3667 73.0763 55.3667 71.6584H61.2L62.7444 80.6794ZM46.8556 71.6584H53.1444C53.1444 72.4892 52.8132 73.286 52.2235 73.8734C51.6338 74.4609 50.834 74.7909 50 74.7909C49.166 74.7909 48.3662 74.4609 47.7765 73.8734C47.1868 73.286 46.8556 72.4892 46.8556 71.6584ZM95.5556 64.7184C95.5556 65.3848 95.2898 66.0239 94.8168 66.4951C94.3438 66.9663 93.7023 67.231 93.0333 67.231H6.96667C6.29773 67.231 5.65619 66.9663 5.18319 66.4951C4.71018 66.0239 4.44444 65.3848 4.44444 64.7184V6.94004C4.44444 6.27367 4.71018 5.63458 5.18319 5.16338C5.65619 4.69218 6.29773 4.42746 6.96667 4.42746H93.0333C93.7023 4.42746 94.3438 4.69218 94.8168 5.16338C95.2898 5.63458 95.5556 6.27367 95.5556 6.94004V64.7184Z" fill="#0088E0"/>
<g clip-path="url(#clip0)">
<path d="M47.6455 42.0619L66.2677 40.623C66.4974 40.6055 66.716 40.5172 66.8932 40.3705C67.0704 40.2237 67.1974 40.0257 67.2566 39.8039L71.4566 23.6326C71.4995 23.4725 71.5059 23.3049 71.4751 23.1421C71.4443 22.9792 71.3773 22.8254 71.2788 22.6918C71.1799 22.5601 71.0528 22.4521 70.9067 22.3755C70.7607 22.2989 70.5993 22.2557 70.4344 22.249L45.2122 21.0315L36.201 20.6552L30.7455 15.7849C30.5246 15.6082 30.2443 15.5222 29.9619 15.5446C29.6794 15.5669 29.4163 15.6959 29.2261 15.9051C29.036 16.1143 28.9332 16.388 28.9389 16.6701C28.9445 16.9523 29.0582 17.2216 29.2566 17.4231L34.8121 22.3487L40.2233 41.4199L38.1899 47.4192C38.1899 47.4192 38.1899 47.5188 38.1899 47.5741C38.1899 47.6295 38.1899 47.6737 38.1899 47.7291C38.1899 47.7844 38.1899 47.7291 38.1899 47.7955C38.1794 47.8689 38.1794 47.9434 38.1899 48.0169C38.1966 48.0825 38.2154 48.1463 38.2455 48.205C38.274 48.2724 38.3114 48.3356 38.3566 48.3932C38.3946 48.4469 38.4354 48.4987 38.4788 48.5482C38.5289 48.5958 38.5849 48.6367 38.6455 48.6699C38.7072 48.7151 38.7744 48.7523 38.8455 48.7806C38.934 48.7913 39.0236 48.7913 39.1122 48.7806H39.7344C39.2711 49.307 38.9429 49.9375 38.7779 50.618C38.613 51.2986 38.6163 52.0088 38.7874 52.6878C38.9586 53.3668 39.2925 53.9943 39.7606 54.5164C40.2287 55.0386 40.817 55.4399 41.475 55.6858C42.1329 55.9317 42.841 56.0149 43.5383 55.9284C44.2357 55.8418 44.9016 55.588 45.4788 55.1887C46.0561 54.7894 46.5275 54.2566 46.8526 53.6359C47.1777 53.0153 47.3469 52.3253 47.3455 51.6252C47.3434 50.6532 47.006 49.7115 46.3899 48.9577L61.1677 49.334C60.7277 50.018 60.4926 50.8128 60.4899 51.6252C60.481 52.2954 60.6281 52.9585 60.9196 53.5625C61.2111 54.1666 61.6391 54.6951 62.1701 55.1068C62.7011 55.5184 63.3205 55.8019 63.9799 55.935C64.6393 56.0682 65.3207 56.0473 65.9706 55.8741C66.6205 55.7009 67.2214 55.3801 67.726 54.9368C68.2306 54.4935 68.6252 53.9398 68.879 53.3191C69.1327 52.6983 69.2387 52.0275 69.1885 51.3591C69.1384 50.6908 68.9335 50.0431 68.5899 49.4669C68.8359 49.4224 69.0596 49.2966 69.225 49.1098C69.3903 48.923 69.4876 48.6861 69.501 48.4375C69.501 48.1439 69.384 47.8624 69.1756 47.6548C68.9672 47.4472 68.6846 47.3306 68.3899 47.3306L40.6899 46.6222L42.2233 42.5047L47.6455 42.0619ZM43.0566 53.85C42.6342 53.8522 42.2206 53.7295 41.8684 53.4973C41.5161 53.2651 41.2409 52.934 41.0777 52.5458C40.9146 52.1577 40.8707 51.7301 40.9518 51.3171C41.0329 50.9041 41.2352 50.5244 41.5331 50.2261C41.831 49.9278 42.2111 49.7243 42.6252 49.6414C43.0393 49.5585 43.4688 49.5999 43.8593 49.7604C44.2498 49.9209 44.5836 50.1933 44.8185 50.543C45.0534 50.8928 45.1788 51.3041 45.1788 51.7249C45.1788 52.2866 44.9556 52.8255 44.5579 53.2237C44.1602 53.6219 43.6205 53.8471 43.0566 53.85ZM42.2233 40.2799L40.001 32.6425H45.3788L46.3233 39.9478L42.2233 40.2799ZM47.6788 32.6536H52.901L52.9677 39.4387L48.5344 39.8482L47.6788 32.6536ZM55.1233 32.6536H60.6788L60.1899 38.852L55.1566 39.2394L55.1233 32.6536ZM55.1233 30.4398L55.0566 23.7212L61.3899 24.02L60.8899 30.4509L55.1233 30.4398ZM52.901 30.4398H47.3455L46.4344 23.3448L52.7677 23.6437L52.901 30.4398ZM65.3677 38.4646L62.401 38.7413L62.8677 32.7311H66.801L65.3677 38.4646ZM67.4455 30.4841H63.1122L63.6122 24.1418L68.9677 24.3521L67.4455 30.4841ZM44.1788 23.2452L45.101 30.4398H39.3677L37.2344 22.9242L44.1788 23.2452ZM64.8899 53.85C64.468 53.85 64.0555 53.7254 63.7047 53.4919C63.3539 53.2584 63.0805 52.9265 62.919 52.5381C62.7575 52.1498 62.7153 51.7225 62.7976 51.3103C62.8799 50.898 63.0831 50.5193 63.3814 50.2221C63.6798 49.9249 64.0599 49.7225 64.4737 49.6405C64.8876 49.5585 65.3165 49.6006 65.7063 49.7615C66.0961 49.9223 66.4293 50.1947 66.6637 50.5442C66.8981 50.8937 67.0233 51.3045 67.0233 51.7249C67.0233 52.2885 66.7985 52.829 66.3984 53.2276C65.9983 53.6261 65.4557 53.85 64.8899 53.85Z" fill="#0088E0"/>
</g>
<defs>
<clipPath id="clip0">
<rect width="42.6" height="40.5666" fill="white" transform="translate(28.8889 15.4961)"/>
</clipPath>
</defs>
</svg>
