<svg width="18" height="13" viewBox="0 0 18 13" fill="none" xmlns="http://www.w3.org/2000/svg">
<path d="M6.36031 7.45329L7.33879 6.45952L0.978651 0L0.00016821 0.993772L6.36031 7.45329Z" fill="white"/>
<path d="M7.33879 6.45952L6.36014 5.46611L0 11.9256L0.978483 12.9194L7.33879 6.45952Z" fill="white"/>
<path d="M11.3603 7.45329L12.3388 6.45952L5.97865 0L5.00017 0.993772L11.3603 7.45329Z" fill="white"/>
<path d="M12.3388 6.45952L11.3601 5.46611L5 11.9256L5.97848 12.9194L12.3388 6.45952Z" fill="white"/>
<path d="M16.3603 7.45329L17.3388 6.45952L10.9787 0L10.0002 0.993772L16.3603 7.45329Z" fill="white"/>
<path d="M17.3388 6.45952L16.3601 5.46611L10 11.9256L10.9785 12.9194L17.3388 6.45952Z" fill="white"/>
</svg>
