<svg width="110" height="110" viewBox="0 0 110 110" fill="none" xmlns="http://www.w3.org/2000/svg">
<rect width="110" height="110" rx="10" fill="#0088E0"/>
<rect width="110" height="110" rx="10" fill="url(#paint0_linear)"/>
<g clip-path="url(#clip0)">
<path d="M54.5 91.0768L54.1917 90.9808C47.8435 88.8787 42.1045 85.2666 37.4711 80.4568C32.8378 75.647 29.4495 69.7845 27.5994 63.3761C26.7362 60.4144 26.1999 57.3675 26 54.2898V28.9134H26.9635C28.9134 28.8847 30.7771 28.1071 32.1663 26.7427C32.883 26.0224 33.4495 25.1678 33.8332 24.2281C34.2168 23.2885 34.41 22.2823 34.4016 21.2679V20.8644L35.2495 20H73.789L74.5791 20.7876V21.2871C74.5605 22.2962 74.7416 23.2991 75.1119 24.2385C75.4822 25.1779 76.0345 26.0354 76.7373 26.7619C78.1163 28.1041 79.9556 28.8732 81.8824 28.9134H82.8458V54.2706C82.628 57.4088 82.0659 60.5137 81.1694 63.5298C79.592 68.9604 76.8871 74 73.2302 78.3214C68.3876 84.1038 62.0503 88.455 54.9047 90.904L54.5 91.0768ZM27.927 30.7768V54.2321C28.1245 57.1468 28.6348 60.032 29.4493 62.8382C30.9874 68.0816 33.6134 72.9443 37.1572 77.1112C41.7637 82.545 47.755 86.6397 54.5 88.9638C61.2511 86.6517 67.2454 82.555 71.8428 77.1112C75.3113 72.9822 77.8833 68.1811 79.3966 63.0111C80.2565 60.1403 80.7929 57.1829 80.9959 54.1937V30.7768C78.8841 30.5417 76.9143 29.6005 75.4077 28.1066C73.7627 26.4528 72.7941 24.2477 72.6907 21.921H36.3093C36.1952 24.2491 35.2205 26.4526 33.573 28.1066C32.0514 29.6123 30.0593 30.5544 27.927 30.7768Z" fill="white"/>
<path d="M54.5 84.8144L54.1724 84.6991C48.4894 82.7093 43.4274 79.2722 39.4888 74.7291C34.436 68.7999 31.4952 61.3694 31.1258 53.5982L31.0487 33.4469L31.7809 33.3317C32.4051 33.1834 33.0121 32.971 33.5923 32.6977C34.5892 32.2441 35.4814 31.5901 36.213 30.7767C36.9063 29.9813 37.4424 29.0623 37.7931 28.0681C37.9178 27.7161 38.0207 27.3569 38.1014 26.9924L38.2363 26.2048H70.7444L70.8986 26.9924C70.9772 27.3511 71.0802 27.7041 71.2069 28.0489V28.2218C71.5533 29.1633 72.0765 30.0304 72.7485 30.7767C73.4752 31.5872 74.3605 32.2409 75.3499 32.6977C75.9317 32.9621 76.5385 33.168 77.1613 33.3125L78.0284 33.4469V37.8844C78.0284 42.6677 78.0284 47.4894 78.0284 52.2919V53.6366C77.6578 61.4111 74.7096 68.8432 69.646 74.7675C65.6868 79.3049 60.6043 82.729 54.9047 84.6991L54.5 84.8144ZM32.9757 35.0029L33.0913 53.6366C33.4626 60.9342 36.2321 67.9074 40.9726 73.4805C44.6054 77.6696 49.2472 80.8691 54.4615 82.7781C59.6758 80.8691 64.3175 77.6696 67.9503 73.4805C72.7253 67.9023 75.5105 60.9034 75.8702 53.579V52.2919C75.8702 47.4894 75.8702 42.6869 75.8702 37.8844V35.0029C75.3857 34.8414 74.9098 34.6555 74.4442 34.4458C73.2367 33.8743 72.154 33.0712 71.258 32.0823C70.3619 31.0935 69.6701 29.9383 69.2221 28.6829V28.51C69.1685 28.3785 69.1234 28.2438 69.0872 28.1066H39.7972C39.7972 28.2987 39.6815 28.4908 39.6045 28.6829C39.1609 29.925 38.4656 31.0628 37.5619 32.0254C36.6917 33.0376 35.6227 33.8614 34.4209 34.4458C33.9505 34.6597 33.468 34.8457 32.9757 35.0029Z" fill="white"/>
<path d="M54.5 68.1402C50.8318 68.0346 47.3545 66.4865 44.8273 63.8339C42.3001 61.1814 40.9282 57.6398 41.0112 53.9824C40.9333 50.3265 42.3068 46.7878 44.833 44.1364C47.3592 41.4849 50.8335 39.9353 54.5 39.8247C58.1665 39.9353 61.6408 41.4849 64.167 44.1364C66.6931 46.7878 68.0667 50.3265 67.9888 53.9824C68.0667 57.6384 66.6931 61.1771 64.167 63.8285C61.6408 66.48 58.1665 68.0296 54.5 68.1402ZM54.5 41.7457C51.3446 41.8561 48.3603 43.2032 46.1954 45.4944C44.0306 47.7856 42.86 50.8358 42.9381 53.9824C42.86 57.129 44.0306 60.1793 46.1954 62.4705C48.3603 64.7617 51.3446 66.1088 54.5 66.2192C57.6554 66.1088 60.6397 64.7617 62.8046 62.4705C64.9694 60.1793 66.1399 57.129 66.0619 53.9824C66.1399 50.8358 64.9694 47.7856 62.8046 45.4944C60.6397 43.2032 57.6554 41.8561 54.5 41.7457Z" fill="white"/>
<path d="M61.9189 48.9494C61.831 48.8599 61.726 48.7889 61.6102 48.7404C61.4944 48.6919 61.37 48.6669 61.2444 48.6669C61.1188 48.6669 60.9945 48.6919 60.8786 48.7404C60.7628 48.7889 60.6579 48.8599 60.57 48.9494L52.284 57.7283L48.43 53.6366C48.3405 53.5466 48.2339 53.4751 48.1165 53.4264C47.9991 53.3776 47.8731 53.3525 47.746 53.3525C47.6188 53.3525 47.4928 53.3776 47.3754 53.4264C47.258 53.4751 47.1514 53.5466 47.0619 53.6366C46.9721 53.7243 46.9009 53.8289 46.8522 53.9443C46.8035 54.0598 46.7785 54.1837 46.7785 54.309C46.7785 54.4342 46.8035 54.5582 46.8522 54.6736C46.9009 54.7891 46.9721 54.8937 47.0619 54.9813L51.6288 59.8222C51.6886 59.8676 51.7532 59.9063 51.8215 59.9375H51.9371C52.0492 59.9879 52.1707 60.0139 52.2936 60.0139C52.4165 60.0139 52.5381 59.9879 52.6501 59.9375H52.7657C52.834 59.9063 52.8986 59.8676 52.9584 59.8222L61.9189 50.2172C62.0733 50.042 62.1585 49.8166 62.1585 49.5833C62.1585 49.35 62.0733 49.1247 61.9189 48.9494Z" fill="white"/>
</g>
<defs>
<linearGradient id="paint0_linear" x1="110" y1="0" x2="0" y2="110" gradientUnits="userSpaceOnUse">
<stop stop-color="#0088E0"/>
<stop offset="1" stop-color="#0AA76E"/>
</linearGradient>
<clipPath id="clip0">
<rect width="57" height="71" fill="white" transform="translate(26 20)"/>
</clipPath>
</defs>
</svg>
