<svg width="110" height="110" viewBox="0 0 110 110" fill="none" xmlns="http://www.w3.org/2000/svg">
<rect width="110" height="110" rx="10" fill="#0088E0"/>
<rect width="110" height="110" rx="10" fill="url(#paint0_linear)"/>
<g clip-path="url(#clip0)">
<path d="M38.0377 37.7729H35.9969V36.6745C35.9772 36.3072 36.0325 35.9396 36.1594 35.5942C36.363 35.2293 36.6185 34.8957 36.918 34.6039L38.2545 33.3435C38.398 33.1921 38.5101 33.014 38.5845 32.8193C38.6589 32.6247 38.694 32.4174 38.6879 32.2092C38.6957 32.0035 38.6612 31.7984 38.5867 31.6064C38.5122 31.4145 38.3991 31.2397 38.2545 31.0928C38.1078 30.9477 37.9326 30.8344 37.7399 30.7601C37.5472 30.6857 37.3412 30.6519 37.1347 30.6607C36.7082 30.6189 36.2817 30.7413 35.9427 31.0028C35.6314 31.3038 35.439 31.7064 35.4009 32.1371H33.2156C33.2455 31.6538 33.3728 31.1814 33.5901 30.7483C33.8073 30.3152 34.1099 29.9302 34.4798 29.6164C35.242 29.014 36.2 28.7127 37.1708 28.7701C38.1294 28.726 39.0699 29.0407 39.8077 29.6524C40.1494 29.959 40.4177 30.3382 40.5928 30.7621C40.7678 31.1859 40.8452 31.6435 40.8191 32.1011C40.8404 32.7527 40.6292 33.3907 40.2231 33.9017C40.0659 34.1481 39.8908 34.3828 39.6993 34.6039L39.2117 35.072L38.706 35.5582L38.3628 35.9183C38.1257 36.2405 38.0105 36.6359 38.0377 37.0346V37.7729ZM37.0444 41.8061C36.8633 41.8104 36.6832 41.7775 36.5154 41.7093C36.3476 41.6412 36.1957 41.5393 36.0691 41.41C35.932 41.2956 35.822 41.1522 35.747 40.9903C35.6721 40.8284 35.634 40.652 35.6357 40.4737C35.6351 40.2947 35.6717 40.1174 35.7432 39.9532C35.8147 39.7889 35.9195 39.6412 36.0511 39.5194C36.3164 39.2673 36.6689 39.1267 37.0354 39.1267C37.4019 39.1267 37.7544 39.2673 38.0197 39.5194C38.1556 39.6339 38.2636 39.7777 38.3355 39.9399C38.4075 40.1021 38.4415 40.2784 38.4351 40.4557C38.437 40.6333 38.4027 40.8094 38.3344 40.9734C38.2661 41.1374 38.1652 41.2859 38.0377 41.41C37.7718 41.6671 37.4149 41.8094 37.0444 41.8061Z" fill="white"/>
<path d="M46.0386 47.6399H27.5446C26.0724 47.6351 24.6622 47.0487 23.6229 46.0092C22.5836 44.9697 22 43.5619 22 42.0942V27.5457C22 26.078 22.5836 24.6702 23.6229 23.6307C24.6622 22.5911 26.0724 22.0048 27.5446 22H46.0386C47.5108 22.0048 48.921 22.5911 49.9603 23.6307C50.9996 24.6702 51.5832 26.078 51.5832 27.5457V36.2964L55.7371 40.2756L55.4121 41.2839C55.3028 41.5571 55.1133 41.791 54.8683 41.9549C54.6234 42.1188 54.3344 42.205 54.0395 42.2022H51.5832C51.5549 43.6511 50.9588 45.0314 49.9226 46.0477C48.8863 47.0639 47.4922 47.6355 46.0386 47.6399ZM27.5446 24.7008C27.1707 24.7008 26.8005 24.7745 26.4553 24.9177C26.1101 25.0609 25.7967 25.2707 25.5332 25.5352C25.2696 25.7996 25.0612 26.1133 24.9197 26.4584C24.7783 26.8034 24.7067 27.173 24.7091 27.5457V42.0942C24.7067 42.4669 24.7783 42.8365 24.9197 43.1815C25.0612 43.5266 25.2696 43.8403 25.5332 44.1047C25.7967 44.3691 26.1101 44.579 26.4553 44.7222C26.8005 44.8654 27.1707 44.9391 27.5446 44.9391H46.0386C46.4125 44.9391 46.7827 44.8654 47.1279 44.7222C47.4731 44.579 47.7865 44.3691 48.05 44.1047C48.3136 43.8403 48.5221 43.5266 48.6635 43.1815C48.8049 42.8365 48.8765 42.4669 48.8741 42.0942V39.5014H51.0233L48.8741 37.4488V27.5457C48.8765 27.173 48.8049 26.8034 48.6635 26.4584C48.5221 26.1133 48.3136 25.7996 48.05 25.5352C47.7865 25.2707 47.4731 25.0609 47.1279 24.9177C46.7827 24.7745 46.4125 24.7008 46.0386 24.7008H27.5446Z" fill="white"/>
<path d="M76.1817 39.6814C77.376 38.7291 78.3082 37.49 78.8908 36.0803L78.9992 35.8283V30.8947C78.9712 28.5506 78.0272 26.3097 76.3678 24.6486C74.7084 22.9876 72.4646 22.0373 70.1134 22H62.8891V25.8352C62.8891 26.8615 62.8891 28.356 62.8891 30.1925C62.8891 31.4709 62.8891 31.9931 62.8891 32.4072C62.8891 32.8213 62.8891 32.8573 62.8891 33.0554C62.9408 34.3182 63.2585 35.5561 63.8217 36.6884C64.385 37.8207 65.181 38.8221 66.1581 39.6274C63.0243 39.7708 60.0662 41.1113 57.8973 43.3709C55.7283 45.6305 54.515 48.6357 54.509 51.7632V57.2909H87.0181V51.7632C87.0109 48.7753 85.9034 45.8941 83.9056 43.6668C81.9079 41.4395 79.1593 40.0213 76.1817 39.6814ZM72.8044 42.3103L70.8719 44.2188L69.0659 42.3103H72.8044ZM65.5802 24.7008H70.1675C71.2844 24.7138 72.377 25.0267 73.3305 25.6066C74.284 26.1864 75.0631 27.0118 75.5857 27.9958H65.526V24.7008H65.5802ZM65.5802 32.4792C65.5802 32.1911 65.5802 31.669 65.5802 30.6787H76.4165C76.4165 30.6787 76.4165 30.8047 76.4165 30.8767V35.3061C75.9911 36.3611 75.2611 37.2666 74.319 37.9076C73.377 38.5487 72.2653 38.8966 71.1248 38.9072C69.6261 38.7825 68.2273 38.1074 67.1995 37.0129C66.1717 35.9184 65.5882 34.4824 65.5621 32.9834L65.5802 32.4792ZM84.2909 54.59H57.2001V51.7632C57.2001 49.4903 58.0248 47.2941 59.5218 45.5799C61.0189 43.8657 63.0873 42.7492 65.3454 42.4363L70.8719 48.054L76.4707 42.4723C78.6601 42.8608 80.6429 44.0042 82.0724 45.7025C83.5019 47.4009 84.2872 49.5461 84.2909 51.7632V54.59Z" fill="white"/>
<path d="M81.4553 87H62.9613C61.4844 86.9905 60.0714 86.3976 59.0321 85.3514C57.9928 84.3051 57.4119 82.8908 57.4167 81.4183V72.4155L52.9919 68.1842L53.2989 67.1939C53.4085 66.9159 53.6001 66.6776 53.8484 66.5104C54.0967 66.3433 54.39 66.2551 54.6896 66.2576H57.4528C57.6277 64.9224 58.2823 63.6958 59.2952 62.8051C60.3081 61.9144 61.6107 61.4202 62.9613 61.4141H81.4553C82.9213 61.4141 84.328 61.9909 85.3697 63.0193C86.4113 64.0476 87.0037 65.4444 87.018 66.9058V81.4183C87.0204 82.1489 86.8784 82.8729 86.6001 83.5488C86.3218 84.2247 85.9128 84.8394 85.3962 85.3577C84.8797 85.876 84.2658 86.2878 83.5896 86.5696C82.9134 86.8514 82.1882 86.9976 81.4553 87ZM57.7057 68.9945L60.1258 71.2992V81.4183C60.1234 81.791 60.195 82.1606 60.3364 82.5056C60.4779 82.8507 60.6864 83.1644 60.9499 83.4288C61.2134 83.6932 61.5268 83.9031 61.872 84.0463C62.2172 84.1894 62.5874 84.2632 62.9613 84.2632H81.4553C81.8292 84.2632 82.1994 84.1894 82.5446 84.0463C82.8898 83.9031 83.2032 83.6932 83.4668 83.4288C83.7303 83.1644 83.9388 82.8507 84.0802 82.5056C84.2216 82.1606 84.2932 81.791 84.2908 81.4183V66.9058C84.2932 66.5331 84.2216 66.1635 84.0802 65.8185C83.9388 65.4734 83.7303 65.1597 83.4668 64.8953C83.2032 64.6309 82.8898 64.421 82.5446 64.2778C82.1994 64.1346 81.8292 64.0609 81.4553 64.0609H62.9613C62.5874 64.0609 62.2172 64.1346 61.872 64.2778C61.5268 64.421 61.2134 64.6309 60.9499 64.8953C60.6864 65.1597 60.4779 65.4734 60.3364 65.8185C60.195 66.1635 60.1234 66.5331 60.1258 66.9058V68.9044L57.7057 68.9945Z" fill="white"/>
<path d="M71.3414 77.9612C70.9995 77.9631 70.6698 77.8342 70.4203 77.6011L66.5553 74C66.306 73.7445 66.1665 73.4022 66.1665 73.0457C66.1665 72.6893 66.306 72.3469 66.5553 72.0914C66.8093 71.8385 67.1536 71.6965 67.5126 71.6965C67.8715 71.6965 68.2158 71.8385 68.4698 72.0914L71.3595 74.7742L76.0371 69.8587C76.2911 69.6058 76.6354 69.4638 76.9944 69.4638C77.3533 69.4638 77.6976 69.6058 77.9516 69.8587C78.2052 70.1119 78.3477 70.4552 78.3477 70.813C78.3477 71.1709 78.2052 71.5141 77.9516 71.7673L72.3528 77.6551C72.2129 77.7703 72.0514 77.8566 71.8778 77.9091C71.7042 77.9617 71.5219 77.9794 71.3414 77.9612Z" fill="white"/>
<path d="M43.3295 69.3546C44.307 68.5445 45.1042 67.5399 45.6702 66.4052C46.2362 65.2705 46.5585 64.0305 46.6166 62.7646V62.1164C46.6166 61.7743 46.6166 61.1801 46.6166 59.8837C46.6166 58.0831 46.6166 56.5527 46.6166 55.5443V51.7092H39.3923C37.0317 51.7325 34.7741 52.6766 33.1031 54.3391C31.4321 56.0017 30.4806 58.2505 30.4523 60.6039V65.5734L30.5607 65.8255C31.1331 67.2312 32.0526 68.47 33.2337 69.4266C30.1985 69.6689 27.3637 71.0331 25.2854 73.2517C23.2071 75.4702 22.0353 78.3829 22 81.4183V87H54.5993V81.4183C54.5854 78.3635 53.418 75.4259 51.3296 73.1904C49.2412 70.9548 46.385 69.5854 43.3295 69.3546ZM40.4037 72.0014L38.4893 73.928L36.5929 72.0014H40.4037ZM39.2659 54.41H43.8533V55.5263C43.8533 56.1025 43.8533 56.8407 43.8533 57.687H33.8116C34.338 56.6997 35.1235 55.8734 36.084 55.2963C37.0446 54.7191 38.1444 54.4128 39.2659 54.41ZM33.035 60.6039C33.0263 60.5321 33.0263 60.4596 33.035 60.3878H43.8714C43.8714 61.3601 43.8714 61.9003 43.8714 62.1884V62.6385C43.8408 64.1345 43.2553 65.566 42.228 66.6568C41.2006 67.7475 39.8043 68.42 38.3087 68.5444C37.1665 68.541 36.0515 68.196 35.1081 67.554C34.1647 66.912 33.4362 66.0025 33.0169 64.9432L33.035 60.6039ZM51.8902 84.2992H24.7091V81.4183C24.7192 79.1367 25.5566 76.9358 27.067 75.2216C28.5773 73.5074 30.6585 72.3956 32.9266 72.0914L38.4712 77.8172L44.07 72.2355C46.2428 72.6173 48.2135 73.744 49.6414 75.4207C51.0694 77.0975 51.8648 79.2189 51.8902 81.4183V84.2992Z" fill="white"/>
</g>
<defs>
<linearGradient id="paint0_linear" x1="110" y1="0" x2="0" y2="110" gradientUnits="userSpaceOnUse">
<stop stop-color="#0088E0"/>
<stop offset="1" stop-color="#0A5BA7"/>
</linearGradient>
<clipPath id="clip0">
<rect width="65" height="65" fill="white" transform="translate(22 22)"/>
</clipPath>
</defs>
</svg>
