<svg width="357" height="43" viewBox="0 0 357 43" fill="none" xmlns="http://www.w3.org/2000/svg">
<path d="M43.4402 11.2815H60.5331V14.5219H53.8029V32.7884H50.114V14.5219H43.412L43.4402 11.2815ZM59.801 17.2174H62.9548V20.2283H63.0111C63.1238 19.7982 63.3209 19.3968 63.6025 18.9953C63.8841 18.5938 64.222 18.221 64.6444 17.9056C65.0386 17.5615 65.4892 17.3034 65.9961 17.1027C66.4748 16.902 66.9817 16.7872 67.4885 16.7872C67.8828 16.7872 68.1644 16.8159 68.3052 16.8159C68.446 16.8446 68.6149 16.8733 68.7557 16.8733V20.171C68.5304 20.1136 68.277 20.085 68.0236 20.0563C67.7701 20.0276 67.5448 19.9989 67.2914 19.9989C66.7282 19.9989 66.1932 20.1136 65.6863 20.343C65.1794 20.5725 64.757 20.9166 64.3628 21.3467C63.9967 21.8055 63.687 22.3504 63.4617 23.0099C63.2364 23.6694 63.1238 24.4437 63.1238 25.304V32.7023H59.7446L59.801 17.2174ZM84.2435 32.7884H80.9207V30.609H80.8644C80.442 31.4119 79.8224 32.0141 79.0058 32.5016C78.1892 32.9891 77.3444 33.2185 76.4996 33.2185C74.5003 33.2185 73.036 32.731 72.1349 31.6987C71.2338 30.695 70.7832 29.1465 70.7832 27.1105V17.2174H74.1624V26.7664C74.1624 28.1429 74.4158 29.1179 74.9508 29.6627C75.4577 30.2362 76.1899 30.523 77.1191 30.523C77.8231 30.523 78.4145 30.4083 78.8932 30.1789C79.3719 29.9495 79.7661 29.6627 80.0477 29.2899C80.3575 28.9171 80.5546 28.4583 80.6954 27.9421C80.8362 27.426 80.8925 26.8525 80.8925 26.2503V17.2174H84.2717V32.7884H84.2435ZM89.9881 27.7988C90.1007 28.8024 90.4668 29.4906 91.1145 29.9208C91.7621 30.3222 92.5506 30.523 93.4517 30.523C93.7615 30.523 94.1275 30.4943 94.5218 30.4369C94.916 30.3796 95.3102 30.2936 95.6482 30.1502C96.0142 30.0068 96.2958 29.8061 96.5211 29.5193C96.7464 29.2326 96.859 28.8885 96.8309 28.4583C96.8027 28.0282 96.6619 27.6554 96.3522 27.3686C96.0424 27.0819 95.6763 26.8811 95.2258 26.6804C94.7752 26.5084 94.2402 26.365 93.6488 26.2503C93.0575 26.1356 92.4661 25.9922 91.8466 25.8488C91.2271 25.7054 90.6076 25.5334 90.0162 25.3326C89.4249 25.1319 88.918 24.8738 88.4393 24.501C87.9887 24.1569 87.5945 23.7268 87.3411 23.182C87.0595 22.6371 86.9187 22.0062 86.9187 21.2033C86.9187 20.343 87.1158 19.6548 87.5382 19.0813C87.9324 18.5078 88.4675 18.049 89.087 17.7049C89.7065 17.3608 90.4105 17.1027 91.1708 16.9593C91.9311 16.8159 92.6632 16.7586 93.3391 16.7586C94.1275 16.7586 94.8878 16.8446 95.5918 17.0167C96.2958 17.1887 96.9717 17.4468 97.5349 17.8483C98.1262 18.221 98.6049 18.7372 98.971 19.3394C99.3652 19.9416 99.5905 20.6872 99.7031 21.5474H96.1832C96.0142 20.7158 95.6482 20.171 95.085 19.8842C94.4936 19.5975 93.8459 19.4541 93.0856 19.4541C92.8604 19.4541 92.5506 19.4828 92.2408 19.5115C91.9029 19.5688 91.6213 19.6262 91.3116 19.7409C91.03 19.8556 90.7765 20.0276 90.5794 20.2283C90.3823 20.4291 90.2697 20.7158 90.2697 21.0599C90.2697 21.4901 90.4105 21.8055 90.6921 22.0636C90.9737 22.3217 91.3397 22.5224 91.8185 22.7231C92.269 22.8952 92.804 23.0386 93.3954 23.1533C93.9867 23.268 94.6063 23.4114 95.2258 23.5547C95.8453 23.6981 96.4366 23.8702 97.028 24.0709C97.6193 24.2716 98.1544 24.5297 98.6049 24.9025C99.0555 25.2466 99.4497 25.6768 99.7313 26.1929C100.013 26.7091 100.154 27.3686 100.154 28.1142C100.154 29.0318 99.9566 29.8061 99.5342 30.4656C99.1118 31.0965 98.5768 31.6413 97.9291 32.0428C97.2814 32.4443 96.5211 32.731 95.7326 32.9317C94.916 33.1038 94.1275 33.2185 93.3391 33.2185C92.3816 33.2185 91.4805 33.1038 90.6639 32.8744C89.8473 32.645 89.1151 32.3009 88.5238 31.8707C87.9324 31.4119 87.4537 30.8671 87.1158 30.1789C86.7779 29.5193 86.5808 28.7164 86.5526 27.7701H89.9599V27.7988H89.9881ZM101.111 17.2174H103.674V12.5146H107.053V17.1887H110.094V19.7409H107.053V28.0569C107.053 28.4296 107.081 28.7164 107.109 29.0032C107.137 29.2612 107.222 29.4906 107.306 29.6627C107.419 29.8347 107.588 29.9781 107.785 30.0642C108.01 30.1502 108.292 30.2075 108.686 30.2075C108.911 30.2075 109.165 30.2075 109.39 30.1789C109.615 30.1502 109.869 30.1215 110.094 30.0642V32.731C109.728 32.7884 109.362 32.817 108.996 32.8457C108.63 32.9031 108.292 32.9031 107.898 32.9031C106.996 32.9031 106.292 32.817 105.757 32.645C105.222 32.4729 104.8 32.2148 104.49 31.8994C104.181 31.5553 103.983 31.1538 103.871 30.6663C103.758 30.1789 103.702 29.5767 103.674 28.9458V19.7695H101.111V17.16V17.2174ZM112.459 17.2174H115.642V19.3394H115.698C116.177 18.4218 116.824 17.7909 117.669 17.3894C118.514 16.988 119.415 16.7872 120.429 16.7872C121.64 16.7872 122.681 16.988 123.583 17.4468C124.484 17.8769 125.216 18.4504 125.807 19.2247C126.398 19.9703 126.849 20.8592 127.131 21.8629C127.412 22.8665 127.581 23.9562 127.581 25.0746C127.581 26.1356 127.44 27.1392 127.187 28.1142C126.905 29.0892 126.511 29.9781 125.976 30.7237C125.441 31.4693 124.765 32.0715 123.92 32.5303C123.076 32.9891 122.118 33.2185 120.992 33.2185C120.513 33.2185 120.006 33.1611 119.528 33.0751C119.049 32.9891 118.57 32.8457 118.12 32.645C117.669 32.4443 117.247 32.1862 116.881 31.8707C116.486 31.5553 116.177 31.1825 115.923 30.7811H115.867V38.5522H112.488V17.2174H112.459ZM124.258 25.0172C124.258 24.329 124.174 23.6408 123.977 22.9812C123.808 22.3217 123.526 21.7482 123.16 21.232C122.794 20.7158 122.343 20.3144 121.837 19.9989C121.302 19.6835 120.682 19.5401 120.006 19.5401C118.598 19.5401 117.528 20.0276 116.796 21.0313C116.092 22.0349 115.726 23.3827 115.726 25.0459C115.726 25.8488 115.81 26.5657 116.008 27.2252C116.205 27.8848 116.458 28.4583 116.852 28.9458C117.218 29.4333 117.669 29.8061 118.204 30.0928C118.739 30.3796 119.33 30.523 120.034 30.523C120.823 30.523 121.442 30.3509 121.977 30.0355C122.512 29.72 122.935 29.2899 123.301 28.8024C123.639 28.2863 123.892 27.7127 124.033 27.0532C124.174 26.365 124.258 25.7054 124.258 25.0172ZM130.2 11.2815H133.579V14.5219H130.2V11.2815ZM130.2 17.2174H133.579V32.7884H130.2V17.2174ZM136.592 11.2815H139.971V32.7884H136.592V11.2815ZM150.278 33.2185C149.067 33.2185 147.969 33.0178 147.011 32.5876C146.054 32.1575 145.265 31.6127 144.59 30.8958C143.942 30.1789 143.435 29.2899 143.097 28.2863C142.759 27.2826 142.562 26.1642 142.562 24.9885C142.562 23.8128 142.731 22.7231 143.097 21.7195C143.435 20.7158 143.942 19.8556 144.59 19.11C145.237 18.3931 146.054 17.8196 147.011 17.4181C147.969 17.0167 149.067 16.7872 150.278 16.7872C151.489 16.7872 152.587 16.988 153.544 17.4181C154.502 17.8196 155.29 18.3931 155.966 19.11C156.614 19.8269 157.121 20.7158 157.459 21.7195C157.796 22.7231 157.994 23.8128 157.994 24.9885C157.994 26.1929 157.825 27.2826 157.459 28.2863C157.092 29.2899 156.614 30.1502 155.966 30.8958C155.318 31.6127 154.502 32.1862 153.544 32.5876C152.587 32.9891 151.517 33.2185 150.278 33.2185ZM150.278 30.4943C151.01 30.4943 151.686 30.3222 152.221 30.0068C152.784 29.6914 153.206 29.2612 153.573 28.7451C153.939 28.2289 154.192 27.6267 154.361 26.9958C154.53 26.3363 154.614 25.6768 154.614 24.9885C154.614 24.329 154.53 23.6694 154.361 23.0099C154.192 22.3504 153.939 21.7768 153.573 21.2607C153.206 20.7445 152.756 20.3431 152.221 20.0276C151.658 19.7122 151.01 19.5401 150.278 19.5401C149.546 19.5401 148.87 19.7122 148.335 20.0276C147.772 20.3431 147.349 20.7732 146.983 21.2607C146.617 21.7768 146.364 22.3504 146.195 23.0099C146.026 23.6694 145.941 24.329 145.941 24.9885C145.941 25.6768 146.026 26.3363 146.195 26.9958C146.364 27.6554 146.617 28.2289 146.983 28.7451C147.349 29.2612 147.8 29.6914 148.335 30.0068C148.898 30.3509 149.546 30.4943 150.278 30.4943ZM159.007 17.2174H161.57V12.5146H164.949V17.1887H167.99V19.7409H164.949V28.0569C164.949 28.4296 164.977 28.7164 165.005 29.0032C165.033 29.2612 165.118 29.4906 165.202 29.6627C165.315 29.8347 165.484 29.9781 165.681 30.0642C165.906 30.1502 166.188 30.2075 166.582 30.2075C166.808 30.2075 167.061 30.2075 167.286 30.1789C167.512 30.1502 167.765 30.1215 167.99 30.0642V32.731C167.624 32.7884 167.258 32.817 166.892 32.8457C166.526 32.9031 166.188 32.9031 165.794 32.9031C164.893 32.9031 164.189 32.817 163.654 32.645C163.119 32.4729 162.696 32.2148 162.386 31.8994C162.077 31.5553 161.88 31.1538 161.767 30.6663C161.654 30.1789 161.598 29.5767 161.57 28.9458V19.7695H159.007V17.16V17.2174Z" fill="white"/>
<path d="M40.4654 15.6902H25.0058L20.2468 0.721436L15.4596 15.6902L0 15.6615L12.5029 24.9238L7.71574 39.8926L20.2186 30.6303L32.7215 39.8926L27.9625 24.9238L40.4654 15.6902Z" fill="#00B67A"/>
<path d="M29.0319 28.3073L27.9618 24.9236L20.2461 30.6301L29.0319 28.3073Z" fill="#005128"/>
<g clip-path="url(#clip0_39:438)">
<path d="M187.731 6.59741H219.411V39.014H187.731V6.59741ZM222.051 6.59741H253.73V39.014H222.051V6.59741ZM256.37 6.59741H288.05V39.014H256.37V6.59741ZM290.69 6.59741H322.369V39.014H290.69V6.59741ZM325.009 6.59741H356.689V39.014H325.009V6.59741Z" fill="#00B67A"/>
<path d="M203.57 28.4443L208.388 27.1949L210.401 33.5431L203.57 28.4443ZM214.658 20.2388H206.177L203.57 12.0671L200.963 20.2388H192.483L199.346 25.3039L196.739 33.4756L203.603 28.4105L207.827 25.3039L214.658 20.2388ZM237.89 28.4443L242.708 27.1949L244.721 33.5431L237.89 28.4443ZM248.978 20.2388H240.497L237.89 12.0671L235.283 20.2388H226.802L233.666 25.3039L231.059 33.4756L237.923 28.4105L242.147 25.3039L248.978 20.2388ZM272.209 28.4443L277.027 27.1949L279.04 33.5431L272.209 28.4443ZM283.297 20.2388H274.816L272.209 12.0671L269.603 20.2388H261.122L267.986 25.3039L265.379 33.4756L272.242 28.4105L276.466 25.3039L283.297 20.2388ZM306.529 28.4443L311.347 27.1949L313.36 33.5431L306.529 28.4443ZM317.617 20.2388H309.136L306.529 12.0671L303.922 20.2388H295.441L302.305 25.3039L299.698 33.4756L306.562 28.4105L310.786 25.3039L317.617 20.2388ZM340.849 28.4443L345.667 27.1949L347.679 33.5431L340.849 28.4443ZM351.936 20.2388H343.456L340.849 12.0671L338.242 20.2388H329.761L336.625 25.3039L334.018 33.4756L340.882 28.4105L345.106 25.3039L351.936 20.2388Z" fill="white"/>
</g>
<defs>
<clipPath id="clip0_39:438">
<rect width="168.958" height="32.4339" fill="white" transform="translate(187.731 6.58789)"/>
</clipPath>
</defs>
</svg>
