<svg width="44" height="20" viewBox="0 0 44 20" fill="none" xmlns="http://www.w3.org/2000/svg">
<g clip-path="url(#clip0)">
<path d="M19.0665 16.798H15.5022L17.7316 3.24567H21.2957L19.0665 16.798Z" fill="#00579F"/>
<path d="M31.9876 3.57698C31.2846 3.30277 30.1695 3 28.7907 3C25.2708 3 22.7922 4.84533 22.777 7.4836C22.7477 9.43011 24.5516 10.5113 25.9008 11.1603C27.2798 11.8235 27.7485 12.2564 27.7485 12.8475C27.7345 13.7554 26.6342 14.1739 25.608 14.1739C24.185 14.1739 23.4225 13.9582 22.2638 13.4531L21.7944 13.2365L21.2957 16.2787C22.1316 16.6532 23.6718 16.9854 25.2708 17C29.0108 17 31.4456 15.1832 31.4744 12.3717C31.4886 10.829 30.5361 9.64684 28.4825 8.68087C27.2359 8.06077 26.4725 7.64265 26.4725 7.00819C26.4871 6.4314 27.1182 5.84062 28.5254 5.84062C29.6842 5.81169 30.5355 6.08552 31.1805 6.35954L31.5029 6.50345L31.9876 3.57698Z" fill="#00579F"/>
<path d="M36.7248 11.9969C37.0183 11.2183 38.1478 8.20507 38.1478 8.20507C38.133 8.23401 38.4408 7.41213 38.6168 6.90759L38.8659 8.07534C38.8659 8.07534 39.5408 11.3193 39.6874 11.9969C39.1303 11.9969 37.4288 11.9969 36.7248 11.9969ZM41.1245 3.24567H38.3675C37.5173 3.24567 36.8713 3.49056 36.5045 4.37011L31.2102 16.7978H34.9501C34.9501 16.7978 35.5658 15.1252 35.6982 14.7649C36.1085 14.7649 39.7466 14.7649 40.2745 14.7649C40.3768 15.2407 40.6998 16.7978 40.6998 16.7978H44L41.1245 3.24567Z" fill="#00579F"/>
<path d="M12.5253 3.24567L9.03467 12.4871L8.65324 10.6128C8.00789 8.45016 5.98395 6.10047 3.72534 4.93214L6.92264 16.7837H10.6918L16.2943 3.24567H12.5253Z" fill="#00579F"/>
<path d="M5.79329 3.24567H0.0586675L0 3.5195C4.47337 4.64413 7.43599 7.35503 8.6532 10.6134L7.40656 4.38487C7.20132 3.5193 6.57059 3.27422 5.79329 3.24567Z" fill="#FAA61A"/>
</g>
<defs>
<clipPath id="clip0">
<rect width="44" height="20" fill="white"/>
</clipPath>
</defs>
</svg>
