<svg width="56" height="20" viewBox="0 0 56 20" fill="none" xmlns="http://www.w3.org/2000/svg">
<path d="M14.3177 1.74242C14.3862 3.31834 15.7289 9.33215 15.7289 9.33215C16.2222 10.5502 16.6471 9.33215 16.6471 9.33215C18.2714 4.39162 14.9519 1.52852 14.9519 1.52852C14.1045 1.02626 14.3177 1.74242 14.3177 1.74242ZM33.5916 0.883789C33.5916 0.883789 35.2167 2.02926 33.5916 2.24392C33.5916 2.24392 27.5193 2.95969 23.001 7.257C23.001 7.257 16.2222 13.2697 13.6812 19.8575C13.6812 19.8575 12.8338 19.8575 13.1174 18.5692C13.3995 17.2805 15.0931 11.6235 22.647 4.67922C22.647 4.67922 29.9214 -2.05188 33.5916 0.883789Z" fill="#FF4600"/>
<path d="M2.69942 10.416C2.96765 10.4734 3.20853 10.5015 3.56217 10.5015C4.94715 10.5015 5.88033 9.59803 5.88033 8.45067C5.88033 7.41841 5.15956 7.04609 4.22712 7.04609C3.81616 7.04609 3.50523 7.07496 3.30743 7.13157L2.69942 10.416ZM1.92171 5.94165C2.50162 5.79766 3.36437 5.71218 4.21251 5.71218C5.10374 5.71218 6.03692 5.89796 6.65879 6.4006C7.21023 6.83067 7.5354 7.46058 7.5354 8.32225C7.5354 9.46886 6.99782 10.402 6.31901 10.9464C5.55591 11.563 4.46613 11.8643 3.33515 11.8643C2.99537 11.8643 2.69942 11.8206 2.44468 11.7925L1.75163 15.4496H0.140381L1.92171 5.94165Z" fill="white"/>
<path d="M11.9032 9.6694C11.7339 9.62571 11.5222 9.59797 11.2252 9.59797C9.71207 9.59797 8.52414 11.3338 8.52414 12.9257C8.52414 13.6559 8.79275 14.2589 9.51427 14.2589C10.2912 14.2589 11.2252 13.2844 11.5503 11.5056L11.9032 9.6694ZM11.239 15.4496C11.239 15.0328 11.2952 14.4743 11.3525 13.8854H11.3241C10.6456 15.1627 9.72593 15.6068 8.84932 15.6068C7.61943 15.6068 6.8125 14.6316 6.8125 13.2266C6.8125 10.846 8.45297 8.30737 11.6631 8.30737C12.4123 8.30737 13.2185 8.4506 13.7561 8.62271L13.035 12.2654C12.8364 13.2977 12.7236 14.6175 12.7521 15.4496H11.239Z" fill="white"/>
<path d="M23.115 12.6815C23.115 13.6412 23.6099 14.3171 24.4584 14.3171C25.6886 14.3171 26.5091 12.5953 26.5091 11.2044C26.5091 10.4867 26.1831 9.5977 25.1941 9.5977C23.8788 9.5977 23.115 11.3765 23.115 12.6815ZM28.2057 11.1907C28.2057 13.5706 26.5791 15.6066 24.2325 15.6066C22.4924 15.6066 21.4187 14.3878 21.4187 12.7237C21.4187 10.3583 23.0446 8.30748 25.3919 8.30748C27.2441 8.30748 28.2057 9.65545 28.2057 11.1907Z" fill="white"/>
<path d="M28.5151 15.4496L29.4064 10.6306C29.5757 9.79857 29.6746 9.06722 29.7596 8.46542H31.2311L31.0753 9.71309H31.103C31.7388 8.78038 32.6161 8.30737 33.5778 8.30737C34.5671 8.30737 35.331 8.91031 35.331 10.2294C35.331 10.5444 35.2756 11.0318 35.2044 11.3764L34.4536 15.4496H32.7993L33.5339 11.5056C33.5778 11.2476 33.6197 10.9463 33.6197 10.6735C33.6197 10.0854 33.4077 9.6694 32.7574 9.6694C32.0081 9.6694 31.0461 10.5869 30.7494 12.2229L30.1556 15.4496H28.5151Z" fill="white"/>
<path d="M39.7128 9.55501C38.68 9.55501 38.0019 10.487 37.8041 11.3338C39.5004 11.3479 40.5902 11.1184 40.5902 10.2727C40.5902 9.82818 40.2366 9.55501 39.7128 9.55501ZM41.2825 15.0476C40.6033 15.4058 39.6851 15.6068 38.8501 15.6068C36.9429 15.6068 36.0232 14.4173 36.0232 12.7103C36.0232 10.6021 37.5494 8.30772 39.9252 8.30772C41.2825 8.30772 42.1452 9.09606 42.1452 10.2727C42.1452 12.0648 40.2935 12.6381 37.6352 12.5811C37.6063 12.8246 37.6629 13.2976 37.8188 13.5704C38.0877 14.0442 38.5811 14.2877 39.2326 14.2877C40.011 14.2877 40.6322 14.0867 41.1285 13.8288L41.2825 15.0476Z" fill="white"/>
<path d="M46.1176 9.55501C45.0859 9.55501 44.4067 10.487 44.2089 11.3338C45.9052 11.3479 46.995 11.1184 46.995 10.2727C46.995 9.82818 46.6414 9.55501 46.1176 9.55501ZM47.6873 15.0476C47.0092 15.4058 46.0899 15.6068 45.2564 15.6068C43.3477 15.6068 42.428 14.4173 42.428 12.7103C42.428 10.6021 43.9542 8.30772 46.33 8.30772C47.6873 8.30772 48.5515 9.09606 48.5515 10.2727C48.5515 12.0648 46.6983 12.6381 44.04 12.5811C44.0108 12.8246 44.0677 13.2976 44.2235 13.5704C44.4925 14.0442 44.987 14.2877 45.6374 14.2877C46.4158 14.2877 47.037 14.0867 47.5333 13.8288L47.6873 15.0476Z" fill="white"/>
<path d="M48.6492 15.4496L49.455 11.1469C49.6385 10.1576 49.7374 9.08204 49.8071 8.46542H51.2359C51.1936 8.93843 51.1516 9.42587 51.0805 9.92851H51.1224C51.5911 8.9958 52.3388 8.30737 53.2727 8.30737C53.4009 8.30737 53.5275 8.32219 53.641 8.32219L53.3151 9.957C53.2304 9.94218 53.1173 9.94218 53.0038 9.94218C51.8293 9.94218 51.0805 11.1469 50.8126 12.6381L50.2889 15.4496H48.6492Z" fill="white"/>
<path d="M54.8917 9.10428H55.0123C55.136 9.10428 55.2176 9.03437 55.2176 8.92876C55.2176 8.80984 55.1318 8.75779 55.0082 8.75779C54.9513 8.75779 54.9108 8.76197 54.8917 8.76653V9.10428ZM54.7737 8.68295C54.8336 8.67193 54.9194 8.66395 54.9992 8.66395C55.1243 8.66395 55.2075 8.68978 55.2626 8.73993C55.3079 8.78059 55.3341 8.84403 55.3341 8.91698C55.3341 9.03703 55.2596 9.11834 55.1637 9.15063V9.15519C55.2334 9.1795 55.2742 9.24599 55.2974 9.34173C55.3266 9.46939 55.3484 9.55943 55.3675 9.59552H55.2453C55.2307 9.56741 55.2101 9.48952 55.1869 9.37441C55.1592 9.24675 55.1086 9.19964 55.0022 9.19508H54.8917V9.59552H54.7737V8.68295Z" fill="white"/>
<path d="M55.0443 8.30756C54.5948 8.30756 54.2295 8.67798 54.2295 9.13389C54.2295 9.5898 54.5948 9.9606 55.0443 9.9606C55.4938 9.9606 55.8591 9.5898 55.8591 9.13389C55.8591 8.67798 55.4938 8.30756 55.0443 8.30756ZM55.0443 8.43521C55.4242 8.43521 55.7325 8.74713 55.7325 9.13389C55.7325 9.52027 55.4242 9.83333 55.0443 9.83333C54.6633 9.83333 54.3546 9.52027 54.3546 9.13389C54.3546 8.74713 54.6633 8.43521 55.0443 8.43521Z" fill="white"/>
</svg>
