<svg width="42" height="20" viewBox="0 0 42 20" fill="none" xmlns="http://www.w3.org/2000/svg">
<path d="M20.5867 11.6923H21.5358C22.0158 11.6923 22.3649 11.9451 22.3649 12.3846C22.3649 12.6374 22.2449 12.8462 22.0376 12.9561V12.967C22.3321 13.055 22.4739 13.3297 22.4739 13.6044C22.4739 14.1429 22.0485 14.3846 21.5576 14.3846H20.5867V11.6923ZM21.5467 12.7912C21.7539 12.7912 21.8739 12.6374 21.8739 12.4506C21.8739 12.2637 21.7539 12.1209 21.5358 12.1209H21.0776V12.8022H21.5467V12.7912ZM21.5903 13.967C21.8412 13.967 21.983 13.8022 21.983 13.5714C21.983 13.3517 21.8412 13.1868 21.5903 13.1868H21.0667V13.967H21.5903ZM23.8049 12.4066C24.0667 12.4066 24.3612 12.4945 24.5467 12.6923L24.3285 13.022C24.2085 12.9011 24.023 12.8132 23.8267 12.8132C23.4776 12.8132 23.2485 13.0769 23.2485 13.4066C23.2485 13.7363 23.4776 14.011 23.8485 14.011C24.0558 14.011 24.2739 13.9011 24.4158 13.7692L24.6012 14.1099C24.4158 14.3077 24.1212 14.4286 23.8158 14.4286C23.183 14.4286 22.7685 13.978 22.7685 13.4176C22.7685 12.8681 23.1721 12.4066 23.8049 12.4066ZM25.7467 12.4066C26.2921 12.4066 26.5976 12.8132 26.5976 13.3187C26.5976 13.3846 26.5867 13.4396 26.5867 13.5055H25.2667C25.2994 13.8462 25.5503 14.022 25.8449 14.022C26.0412 14.022 26.2376 13.9341 26.3903 13.8132L26.5758 14.1539C26.3794 14.3297 26.0739 14.4286 25.8012 14.4286C25.1685 14.4286 24.7649 13.967 24.7649 13.4176C24.7758 12.8242 25.1794 12.4066 25.7467 12.4066ZM25.2012 11.6923H25.5721V12.1319H25.2012V11.6923ZM26.1176 13.1758C26.1176 12.9231 25.943 12.7692 25.7358 12.7692C25.4958 12.7692 25.3212 12.9341 25.2776 13.1758H26.1176ZM25.8885 11.6923H26.2485V12.1319H25.8885V11.6923ZM27.9394 12.4506H29.6849V14.3846H29.2049V12.8572H28.4085V14.3846H27.9285V12.4506H27.9394ZM30.1976 12.4506H30.6339V12.5934C30.6339 12.6703 30.623 12.7253 30.623 12.7253H30.6339C30.7539 12.5165 30.9939 12.3956 31.2558 12.3956C31.7794 12.3956 32.1067 12.8132 32.1067 13.4066C32.1067 14.022 31.7358 14.4176 31.2339 14.4176C31.0158 14.4176 30.8194 14.3187 30.6776 14.1429H30.6667C30.6667 14.1429 30.6776 14.2088 30.6776 14.3077V15.1209H30.1976V12.4506ZM31.1358 14.022C31.3976 14.022 31.6158 13.8022 31.6158 13.4286C31.6158 13.066 31.4194 12.8242 31.1467 12.8242C30.8958 12.8242 30.6667 13.011 30.6667 13.4396C30.6558 13.7253 30.8303 14.022 31.1358 14.022ZM33.4376 12.4066C34.0267 12.4066 34.4958 12.8242 34.4958 13.4176C34.4958 14.011 34.0267 14.4286 33.4376 14.4286C32.8485 14.4286 32.3794 14.011 32.3794 13.4176C32.3794 12.8242 32.8594 12.4066 33.4376 12.4066ZM33.4376 14.022C33.7539 14.022 34.0049 13.7802 34.0049 13.4176C34.0049 13.0659 33.743 12.8132 33.4376 12.8132C33.1321 12.8132 32.8703 13.055 32.8703 13.4176C32.8703 13.7802 33.1212 14.022 33.4376 14.022ZM34.8776 12.4506H35.3358V13.978H35.9358V12.4506H36.3939V13.978H36.9939V12.4506H37.4521V13.978H37.7248V14.8462H37.2994V14.3956H34.8994V12.4506H34.8776ZM38.8921 12.4066C39.4376 12.4066 39.743 12.8132 39.743 13.3187C39.743 13.3846 39.7321 13.4396 39.7321 13.5055H38.4121C38.4449 13.8462 38.6958 14.022 38.9903 14.022C39.1867 14.022 39.383 13.9341 39.5358 13.8132L39.7212 14.1539C39.5249 14.3297 39.2194 14.4286 38.9467 14.4286C38.3139 14.4286 37.9103 13.967 37.9103 13.4176C37.9103 12.8242 38.3139 12.4066 38.8921 12.4066ZM39.263 13.1758C39.263 12.9231 39.0885 12.7692 38.8812 12.7692C38.6412 12.7692 38.4667 12.9341 38.423 13.1758H39.263Z" fill="#2D3540"/>
<path d="M28.8008 3.97803V9.52748C28.8008 9.61539 28.7353 9.68132 28.648 9.68132H27.5244C27.4371 9.68132 27.3717 9.61539 27.3717 9.52748V3.97803C27.3717 3.89012 27.4371 3.82418 27.5244 3.82418H28.648C28.7353 3.82418 28.8008 3.9011 28.8008 3.97803ZM37.5717 3.82418H36.3171C36.2517 3.82418 36.1971 3.86813 36.1753 3.93407L35.1826 7.21979L34.0917 3.93407C34.0699 3.86813 34.0153 3.83517 33.9499 3.83517H33.0553C32.9899 3.83517 32.9353 3.87912 32.9135 3.93407L31.8226 7.21979L30.8299 3.93407C30.808 3.86813 30.7535 3.82418 30.688 3.82418H29.4335C29.3899 3.82418 29.3353 3.84616 29.3135 3.89011C29.2808 3.93407 29.2808 3.97803 29.2917 4.02198L31.1462 9.58242C31.168 9.64836 31.2226 9.68132 31.288 9.68132H32.2917C32.3571 9.68132 32.4117 9.63737 32.4335 9.58242L33.5135 6.34066L34.5935 9.58242C34.6153 9.64836 34.6699 9.68132 34.7353 9.68132H35.739C35.8044 9.68132 35.859 9.63737 35.8808 9.58242L37.7353 4.02198C37.7462 3.97803 37.7462 3.92308 37.7135 3.89011C37.6699 3.85715 37.6262 3.82418 37.5717 3.82418ZM39.4699 3.82418H38.3462C38.259 3.82418 38.1935 3.89012 38.1935 3.97803V9.52748C38.1935 9.61539 38.259 9.68132 38.3462 9.68132H39.4699C39.5571 9.68132 39.6226 9.61539 39.6226 9.52748V3.97803C39.6226 3.9011 39.5571 3.82418 39.4699 3.82418ZM26.728 9.49451C26.7935 9.57143 26.739 9.68132 26.6408 9.68132H25.2662C25.2117 9.68132 25.1571 9.65935 25.1244 9.61539L24.8953 9.32967C24.4153 9.63737 23.848 9.82418 23.248 9.82418C21.568 9.82418 20.2044 8.45055 20.2044 6.75825C20.2044 5.06594 21.568 3.69231 23.248 3.69231C24.928 3.69231 26.2917 5.06594 26.2917 6.75825C26.2917 7.36264 26.1171 7.93407 25.8117 8.41759L26.728 9.49451ZM23.9899 8.25275L23.3899 7.51649C23.3244 7.43956 23.379 7.31869 23.4771 7.31869H24.7426C24.808 7.14286 24.8408 6.94506 24.8408 6.74726C24.8408 5.83517 24.1644 5.04396 23.2371 5.04396C22.3099 5.04396 21.6335 5.83517 21.6335 6.74726C21.6335 7.65934 22.3099 8.43956 23.2371 8.43956C23.5099 8.45055 23.7608 8.38462 23.9899 8.25275ZM15.6553 12.9231C15.699 13.2528 15.6008 13.3956 15.4917 13.3956C15.3826 13.3956 15.2299 13.2637 15.0662 13C14.9026 12.7363 14.8371 12.4396 14.9244 12.2857C14.979 12.1868 15.088 12.1429 15.2408 12.1978C15.5135 12.2857 15.6226 12.7253 15.6553 12.9231ZM14.1171 13.6374C14.4553 13.9231 14.5535 14.2637 14.379 14.4945C14.2808 14.6264 14.1171 14.6923 13.9317 14.6923C13.7462 14.6923 13.5499 14.6264 13.419 14.5055C13.1135 14.2418 13.0262 13.8022 13.2226 13.5604C13.299 13.4615 13.4299 13.4066 13.5717 13.4066C13.7571 13.4176 13.9426 13.5055 14.1171 13.6374ZM13.5499 16.3846C14.9899 16.3846 16.5499 16.8791 18.2735 18.4286C18.448 18.5824 18.6771 18.3956 18.5244 18.1978C16.8226 16.033 15.2517 15.6264 13.6917 15.2747C11.7717 14.8462 10.7899 13.7582 10.1026 12.5714C9.96077 12.3297 9.90623 12.3736 9.89532 12.6813C9.88441 13.0549 9.90623 13.5495 9.9935 14.033C9.91714 14.033 9.84077 14.033 9.76441 14.033C7.02623 14.033 4.80077 11.7912 4.80077 9.03297C4.80077 6.27473 7.02623 4.03297 9.76441 4.03297C12.5026 4.03297 14.728 6.27473 14.728 9.03297C14.728 9.23078 14.7171 9.42858 14.6953 9.61539C14.3353 9.54946 13.6153 9.53847 13.1135 9.58242C12.928 9.59341 12.9499 9.69231 13.0917 9.71429C14.728 10.011 15.8626 11.033 16.1135 12.9011C16.1244 12.9451 16.179 12.956 16.2008 12.9231C16.8771 11.7912 17.259 10.4615 17.259 9.04396C17.259 4.86813 13.899 1.48352 9.7535 1.48352C5.60805 1.48352 2.24805 4.86813 2.24805 9.04396C2.24805 13.2198 5.60805 16.6044 9.7535 16.6044C10.8553 16.6044 11.9462 16.3846 13.5499 16.3846Z" fill="#FF8C00"/>
</svg>
