<svg width="46" height="20" viewBox="0 0 46 20" fill="none" xmlns="http://www.w3.org/2000/svg">
<path fill-rule="evenodd" clip-rule="evenodd" d="M33.0088 4.911C34.0505 4.911 34.895 3.84306 34.895 2.52613C34.895 1.20844 34.0505 0.139465 33.0088 0.139465C31.9682 0.139465 31.1242 1.20844 31.1242 2.52613C31.1242 3.84306 31.9682 4.911 33.0088 4.911ZM18.5629 6.19895C18.4778 6.46947 17.8652 8.65895 16.3837 10.9282V1.22536L12.4362 2.21254V19.8H16.3837V14.3636C17.527 16.5333 18.0916 19.8 18.0916 19.8H22.8199C22.3521 17.3397 20.3063 12.8033 20.3063 12.8033C22.1424 9.85767 22.9489 6.71895 23.0772 6.19895H18.5629ZM28.9407 6.01536C25.405 6.15895 23.6102 8.16613 23.6102 12.1561V19.8H27.4675V13.5666C27.4675 11.1774 27.7147 10.1533 29.9553 10.0556V6.08536C29.5782 5.98408 28.9407 6.01536 28.9407 6.01536ZM5.81586 8.13562C5.33235 8.09536 4.21295 8.00382 4.21295 6.7287C4.21295 5.18998 5.82457 5.18998 6.42906 5.18998C7.49192 5.18998 8.86848 5.58741 9.8515 5.95947C9.8515 5.95947 10.3998 6.20408 10.8665 6.45459L10.9099 6.46947V2.25536L10.8503 2.23306C9.69019 1.71947 8.3412 1.22536 5.84018 1.22536C1.52793 1.22536 0 4.40408 0 7.12716C0 8.6969 0.531736 12.3913 5.47035 12.8174C5.88901 12.85 7.00011 12.931 7.00011 14.2487C7.00011 15.3366 6.09044 15.9782 4.56048 15.9782C2.88381 15.9782 1.2574 15.4372 0.269515 14.9241V19.2643C1.74841 19.7549 3.41555 20 5.36944 20C9.58583 20 11.4743 16.9925 11.4743 14.0118C11.4743 10.632 9.3611 8.43613 5.81586 8.13562ZM31.0966 19.8H34.9227V6.21434H31.0966V19.8ZM42.1271 2.09152V19.8H45.9538V1.22536L42.1271 2.09152ZM36.5435 2.09152L40.3665 1.22536V19.8H36.5435V2.09152Z" fill="url(#paint0_linear)"/>
<defs>
<linearGradient id="paint0_linear" x1="12.4277" y1="0.139465" x2="17.8556" y2="24.1906" gradientUnits="userSpaceOnUse">
<stop stop-color="#6B195F"/>
<stop offset="1" stop-color="#4C255B"/>
</linearGradient>
</defs>
</svg>
