<svg width="113" height="20" viewBox="0 0 113 20" fill="none" xmlns="http://www.w3.org/2000/svg">
<path d="M2.416 0.582245L4.87585 4.70677L0.563965 8.82465H8.01878L8.71949 7.17426H4.60624L7.09515 4.69583L5.64134 2.23215H12.424L6.4697 16.3161H8.5099L15.1678 0.582245H2.416Z" fill="#00CDFF"/>
<path d="M99.9776 14.0413C98.6634 13.8634 97.8902 13.6092 97.8902 12.7465C97.8902 11.9598 98.6634 11.4777 99.6175 11.4777C100.39 11.4777 101.369 11.7828 101.987 12.2396L102.812 11.0204C102.039 10.386 100.803 10.0567 99.6427 10.0567C97.6587 10.0567 96.1902 11.2493 96.1902 12.8226C96.1902 14.6248 97.3496 15.2082 99.3074 15.5128C100.416 15.6908 101.369 15.8174 101.369 16.7563C101.369 17.5429 100.596 17.9751 99.5656 17.9751C98.5605 17.9751 97.6587 17.6957 96.7823 17.0099L96.0358 18.3558C96.6794 18.9392 98.0189 19.3961 99.5141 19.3961C101.575 19.3961 103.07 18.203 103.07 16.6045C103.07 14.6757 101.524 14.2441 99.9776 14.0413ZM52.9203 14.0383C51.6061 13.8604 50.833 13.6062 50.833 12.7434C50.833 11.9568 51.6061 11.4747 52.5597 11.4747C53.3324 11.4747 54.3117 11.7798 54.9295 12.2366L55.7546 11.0179C54.9819 10.383 53.7449 10.0537 52.585 10.0537C50.601 10.0537 49.1319 11.2468 49.1319 12.8196C49.1319 14.6223 50.2918 15.2057 52.2506 15.5103C53.3586 15.6878 54.3117 15.8148 54.3117 16.7538C54.3117 17.5404 53.5381 17.972 52.5083 17.972C51.5032 17.972 50.601 17.6927 49.7245 17.0074L48.9776 18.3523C49.6216 18.9362 50.9621 19.3931 52.4563 19.3931C54.518 19.3931 56.0123 18.2005 56.0123 16.6015C56.0123 14.6727 54.4665 14.2415 52.9203 14.0383ZM108.519 17.9207C106.869 17.9207 105.736 16.6258 105.736 14.7479C105.736 12.9971 106.716 11.499 108.313 11.499C110.143 11.499 110.632 13.0223 110.684 13.9617H107.521L106.928 15.3323H112.41C112.435 14.9763 112.435 14.8754 112.435 14.6975C112.435 12.1086 111.122 10.0532 108.287 10.0532C105.839 10.0532 103.958 12.032 103.958 14.7479C103.958 17.5399 105.761 19.3921 108.338 19.3921C109.885 19.3921 111.251 18.8344 112.075 17.8445L111.044 16.8542C110.374 17.5399 109.498 17.9207 108.519 17.9207H108.519ZM77.5284 10.4335C76.9872 10.2055 76.3946 10.1541 76.0593 10.1541C75.1061 10.1541 74.0753 10.5348 73.5866 11.2206H73.508V10.2303H71.8594V19.2398H73.5604V14.3167C73.5604 12.4132 74.5907 11.6522 75.9564 11.6522C76.4204 11.6522 76.7295 11.7022 77.142 11.804L77.5284 10.4335ZM30.1915 10.4083C29.6503 10.1798 29.0577 10.1546 28.7224 10.1546C27.7688 10.1546 26.8418 10.5353 26.3516 11.2197H26.2745V10.2308H24.6253V19.2403H26.3264V14.3168C26.3264 12.4132 27.2538 11.6518 28.6195 11.6518C29.0835 11.6518 29.3926 11.7027 29.8051 11.8041L30.1915 10.4083ZM15.168 7.18507V8.80975H18.9816V19.2398H20.786V8.80975H24.5996V7.18507H15.168ZM36.1953 15.7634C36.1953 17.1078 35.0873 17.9711 33.5411 17.9711C32.6137 17.9711 31.8148 17.5399 31.8148 16.4735C31.8148 15.4846 32.6394 14.8245 33.9022 14.8245C35.0359 14.8245 35.7833 15.0272 36.1953 15.3318V15.7634ZM33.7988 10.0528C32.7942 10.0528 31.8406 10.2046 31.1194 10.4839L31.4028 11.8554C32.2274 11.6013 32.8971 11.4995 33.5673 11.4995C35.0102 11.4995 36.1953 12.1595 36.1953 13.6315V13.8851C35.7318 13.7081 35.0102 13.4792 33.9536 13.4792C31.6343 13.4792 30.1143 14.6465 30.1143 16.5501C30.1143 18.5298 31.6086 19.4178 33.2834 19.4178C34.6753 19.4178 35.6285 18.8601 36.1186 18.1995H36.1953V19.2408H37.8449V13.6062C37.8449 11.1449 36.2472 10.0528 33.7988 10.0528ZM44.2608 10.0528C43.1271 10.0528 42.0963 10.4849 41.5809 11.3729H41.5042V10.2308H39.8546V19.2398H41.5552V14.3681C41.5552 12.5912 42.4574 11.5247 43.875 11.5247C45.214 11.5247 46.0133 12.2352 46.0133 13.8846V19.2398H47.7138V13.5805C47.7138 11.2968 46.3744 10.0528 44.2608 10.0528ZM59.5934 10.0528C59.5934 8.93634 60.1346 8.3015 61.1654 8.3015C61.5522 8.3015 62.1705 8.40334 62.6602 8.58132L63.2008 7.33735C62.5311 7.00756 61.7322 6.88049 61.1139 6.88049C59.3872 6.88049 57.8929 7.74328 57.8929 10.0528V10.3321H56.7592V11.7536H57.8929V19.2398H59.5934V11.7536H61.3197L61.9128 10.3321H59.5934V10.0528ZM66.319 17.9207C64.6699 17.9207 63.5362 16.6258 63.5362 14.7479C63.5362 12.9971 64.5151 11.499 66.1132 11.499C67.9428 11.499 68.4325 13.0223 68.484 13.9617H65.321L64.7289 15.3323H70.2103C70.2355 14.9763 70.2355 14.8754 70.2355 14.6975C70.2355 12.1086 68.9217 10.0533 66.087 10.0533C63.6391 10.0533 61.7584 12.032 61.7584 14.7479C61.7584 17.5399 63.5614 19.3921 66.1385 19.3921C67.6851 19.3921 69.0504 18.8344 69.8754 17.8445L68.8446 16.8542C68.1748 17.5399 67.2984 17.9207 66.319 17.9207H66.319ZM89.9748 7.18507L87.8613 16.5496H87.7846L85.5943 10.2312H84.0738L81.574 16.5496H81.4968L79.822 7.18507H77.9923L80.285 19.2398H81.986L84.6921 12.5655H84.7688L87.1148 19.2398H88.8149L91.7268 7.18507H89.9748ZM92.8095 7.18459H94.6644V9.012H92.8095V7.18459ZM92.8867 10.2303H94.5868V19.2398H92.8867V10.2303Z" fill="white"/>
</svg>
