<svg width="83" height="20" viewBox="0 0 83 20" fill="none" xmlns="http://www.w3.org/2000/svg">
<g clip-path="url(#clip0)">
<path d="M70.1763 0.9375C71.5305 0.9375 72.8189 1.24946 73.975 1.80749C74.1563 1.88975 74.3388 1.98819 74.5195 2.08672L73.7268 2.7928L72.5384 1.5615L70.4906 3.3672L69.2847 2.0701L65.5191 5.43568L67.9299 8.07881L66.9888 8.89945L69.3673 11.5426L68.4261 12.3629L71.8284 16.1224L73.8422 14.2836L75.5936 16.2542C75.2465 16.5169 74.8666 16.7801 74.4543 17.0095C73.1989 17.7154 71.7453 18.125 70.193 18.125C65.4196 18.125 61.5391 14.2679 61.5391 9.52387C61.5223 4.81193 65.4035 0.9375 70.1763 0.9375ZM68.5906 8.99815L70.6551 7.15938L72.5052 9.21141L70.4403 11.05L68.5906 8.99815ZM70.0609 12.5443L72.1086 10.6892L73.975 12.7411L71.9104 14.5799L70.0609 12.5443ZM67.1216 5.50157L69.1855 3.6628L71.0352 5.71482L68.9706 7.55351L67.1216 5.50157ZM70.9029 4.51625L72.4389 3.13733L73.8266 4.66414L72.2905 6.05935L70.9029 4.51625ZM73.6447 10.8367L75.1803 9.45765L76.5678 11.0004L75.0317 12.3803L73.6447 10.8367ZM74.9988 13.9397L76.5349 12.5605L77.9214 14.0872L76.3859 15.4822L74.9988 13.9397ZM75.6265 6.84742L76.6503 5.92799L77.5749 6.94621L76.5512 7.8653L75.6265 6.84742ZM74.3052 3.81034L75.3291 2.87479L76.2544 3.90887L75.2297 4.82821L74.3052 3.81034ZM76.9311 9.88477L77.9549 8.96542L78.8962 9.9833L77.8561 10.9024L76.9311 9.88477ZM72.3234 7.60278L73.8595 6.22376L75.2465 7.75024L73.711 9.1295L72.3234 7.60278Z" fill="#036CB5"/>
<mask id="mask0" mask-type="alpha" maskUnits="userSpaceOnUse" x="4" y="4" width="10" height="8">
<path d="M4.41699 4.00623V11.812H13.4339V4.00623H4.41699Z" fill="white"/>
</mask>
<g mask="url(#mask0)">
<path d="M8.94212 6.31759H8.86431L7.40344 11.812H6.20939L4.41699 4.00623H5.65589L6.89507 9.83061H6.97246L8.41046 4.00623H9.39542L10.9333 9.83061H11.0107L12.1394 4.00623H13.4339L11.641 11.812H10.4461L8.94212 6.31759Z" fill="#036CB5"/>
</g>
<path d="M15.0072 8.48892H17.5402C17.4853 7.33328 16.9207 6.8713 16.3235 6.8713C15.6487 6.8713 15.1283 7.38863 15.0072 8.48892ZM18.4252 10.5593V11.3962C17.9274 11.6823 17.264 11.9027 16.4669 11.9027C14.6088 11.9027 13.8455 10.7577 13.8455 9.01841C13.8455 7.34427 14.6971 6.13321 16.3567 6.13321C17.7392 6.13321 18.5916 7.02558 18.5916 8.81969V9.22709H14.985C14.985 10.5478 15.5268 11.1315 16.6667 11.1315C17.264 11.1315 17.8171 10.9219 18.4252 10.5593Z" fill="#036CB5"/>
<path d="M21.1637 11.0199C21.5178 11.174 21.9053 11.1968 22.1823 11.1968C23.0008 11.1968 23.6197 10.6896 23.6197 8.90655C23.6197 7.50835 23.1108 7.05693 22.3699 7.05693C21.927 7.05693 21.6063 7.17841 21.1636 7.42015V11.0199H21.1637ZM21.1753 6.60568C21.5064 6.43011 22.0705 6.1981 22.6682 6.1981C24.0402 6.1981 24.7815 7.14488 24.7815 8.90655C24.7815 10.9655 23.7857 11.9673 22.1823 11.9673C21.5955 11.9673 20.6883 11.7801 20.0242 11.427V3.7432L21.1753 3.46835V6.60568H21.1753Z" fill="#036CB5"/>
<path d="M29.7595 10.1557H29.8149L32.182 4.00134H33.5546V11.8077H32.3598V6.14837H32.26L30.0028 11.8077H29.2954L27.0376 6.28067H26.9384V11.8077H25.9426V4.00134H27.2817L29.7595 10.1557Z" fill="#036CB5"/>
<path d="M38.4365 9.01807C38.4365 7.53191 37.8285 6.90467 37.0762 6.90467C36.3463 6.90467 35.7152 7.53192 35.7152 9.01807C35.7152 10.5265 36.2911 11.1315 37.0762 11.1315C37.8613 11.1315 38.4365 10.5265 38.4365 9.01807ZM34.554 9.01807C34.554 7.09073 35.6163 6.13321 37.0762 6.13321C38.537 6.13321 39.5988 7.09072 39.5988 9.01807C39.5988 10.9003 38.5921 11.9027 37.0762 11.9027C35.5606 11.9027 34.554 10.9003 34.554 9.01807Z" fill="#036CB5"/>
<path d="M40.4734 6.94852C40.9712 6.65078 42.0227 6.13321 43.2946 6.13321C44.6221 6.13321 45.1191 6.65078 45.1191 7.78445V11.7704H43.9693V8.03799C43.9693 7.16844 43.5386 7.01433 42.9736 7.01433C42.5316 7.01433 41.9667 7.21279 41.624 7.41091V11.7704H40.4734V6.94852H40.4734Z" fill="#036CB5"/>
<path d="M47.5535 8.48892H50.0867C50.0323 7.33328 49.4674 6.8713 48.8699 6.8713C48.1949 6.8713 47.6756 7.38863 47.5535 8.48892ZM50.9715 10.5593V11.3962C50.474 11.6823 49.8102 11.9027 49.0135 11.9027C47.1559 11.9027 46.3921 10.7577 46.3921 9.01841C46.3921 7.34427 47.2435 6.13321 48.9031 6.13321C50.2865 6.13321 51.1388 7.02558 51.1388 8.81969V9.22709H47.5317C47.5317 10.5478 48.0739 11.1315 49.2134 11.1315C49.8102 11.1315 50.3642 10.9219 50.9715 10.5593Z" fill="#036CB5"/>
<path d="M55.735 6.13321H56.919L54.9164 11.6372C54.3625 13.1567 53.6884 13.9494 52.4164 13.9494V13.0473C53.1691 13.0473 53.633 12.4525 53.8992 11.6372L51.7749 6.13321H52.9921L54.4081 10.1846H54.4744L55.735 6.13321Z" fill="#036CB5"/>
<path d="M16.3654 16.8858V16.4104C16.7757 16.6167 17.1661 16.7202 17.5359 16.7202C17.844 16.7202 18.0801 16.6643 18.2449 16.5514C18.4099 16.4392 18.4925 16.2875 18.4925 16.0957C18.4925 15.9041 18.4247 15.7603 18.289 15.6646C18.1536 15.5691 17.9006 15.4508 17.5306 15.3107C17.4021 15.2629 17.3201 15.2318 17.283 15.217C17.2466 15.2025 17.1751 15.1727 17.0687 15.1287C16.9625 15.0847 16.8929 15.0513 16.8601 15.0293C16.827 15.0066 16.7713 14.9733 16.6923 14.9297C16.6136 14.885 16.5605 14.8457 16.5329 14.8113C16.5057 14.7759 16.4679 14.7312 16.4202 14.6779C16.3727 14.6248 16.3405 14.5719 16.324 14.5181C16.3076 14.4648 16.2918 14.4031 16.2773 14.3329C16.2628 14.2626 16.2554 14.1873 16.2554 14.1063C16.2554 13.793 16.3718 13.5413 16.6044 13.3495C16.8372 13.1583 17.1585 13.0625 17.5691 13.0625C17.9317 13.0625 18.2929 13.1286 18.6517 13.2614V13.7638C18.3036 13.5941 17.9556 13.5101 17.6074 13.5101C17.362 13.5101 17.1787 13.5608 17.0578 13.6639C16.9369 13.7669 16.8764 13.9033 16.8764 14.073C16.8764 14.2536 16.9369 14.3905 17.0578 14.4846C17.1787 14.5791 17.3951 14.6832 17.7066 14.797C18.2413 14.9923 18.6097 15.1691 18.811 15.3277C19.0127 15.4856 19.1135 15.722 19.1135 16.0347C19.1135 16.3629 18.9751 16.6311 18.6985 16.8392C18.4218 17.0473 18.0418 17.1514 17.558 17.1514C17.1148 17.1514 16.7172 17.0626 16.3654 16.8858ZM21.9578 17.0678H21.4357L21.3972 16.7473C21.0818 17.0055 20.7669 17.1346 20.4517 17.1346C20.188 17.1346 19.9837 17.0638 19.8391 16.9216C19.6941 16.7798 19.6218 16.6007 19.6218 16.3828C19.6218 16.2685 19.6428 16.1592 19.685 16.0541C19.7272 15.949 19.7969 15.8471 19.8939 15.7477C19.9909 15.6481 20.1375 15.5682 20.3334 15.5071C20.5294 15.446 20.765 15.4158 21.0399 15.4158H21.3808V15.2667C21.3808 15.0199 21.335 14.8519 21.2433 14.7612C21.1515 14.6709 20.9977 14.6258 20.7816 14.6258C20.5178 14.6258 20.1934 14.7339 19.8088 14.9518V14.5099C20.2046 14.3295 20.5928 14.2385 20.9738 14.2385C21.3438 14.2385 21.6005 14.3145 21.7432 14.4658C21.8863 14.6165 21.9578 14.8452 21.9578 15.1502V17.0678ZM21.3863 15.8025H21.0947C20.4937 15.8025 20.1934 15.9813 20.1934 16.3387C20.1934 16.4644 20.2335 16.5546 20.3143 16.6121C20.395 16.6693 20.4958 16.6976 20.6168 16.6976C20.7704 16.6976 20.919 16.6607 21.0618 16.5868C21.2047 16.5136 21.313 16.4289 21.3863 16.3331V15.8025H21.3863ZM22.8509 18.1733V14.6427C23.0122 14.5208 23.2024 14.4228 23.4225 14.3492C23.6425 14.2761 23.8583 14.2385 24.0711 14.2385C24.833 14.2385 25.2143 14.7011 25.2143 15.626C25.2143 16.1049 25.1154 16.4714 24.9174 16.7252C24.7196 16.9796 24.4359 17.1062 24.0655 17.1062C23.8089 17.1062 23.5945 17.0417 23.4225 16.9136V18.1733H22.8509ZM23.417 14.8299V16.5048C23.4903 16.5745 23.5826 16.6264 23.6945 16.6616C23.8063 16.6966 23.9044 16.714 23.9886 16.714C24.19 16.714 24.3486 16.6362 24.4641 16.4797C24.5795 16.3228 24.637 16.0383 24.637 15.626C24.637 15.2908 24.5778 15.0452 24.4586 14.8913C24.3396 14.736 24.1846 14.6591 23.994 14.6591C23.7781 14.6591 23.5858 14.7158 23.417 14.8299ZM26.5252 14.2669V17.0678H25.9536V14.4047L26.5252 14.2669ZM25.8655 13.4542C25.8655 13.3548 25.9031 13.2676 25.9781 13.1916C26.0534 13.1161 26.1405 13.0782 26.239 13.0782C26.3382 13.0782 26.4252 13.1161 26.5005 13.1916C26.5756 13.2676 26.6131 13.3548 26.6131 13.4542C26.6131 13.5536 26.5756 13.6414 26.5005 13.7172C26.4252 13.792 26.3382 13.8299 26.239 13.8299C26.1405 13.8299 26.0534 13.792 25.9781 13.7172C25.9031 13.6414 25.8655 13.5536 25.8655 13.4542ZM28.6659 16.7473C28.9299 16.7473 29.2209 16.6515 29.5398 16.4603V16.8802C29.2467 17.0499 28.9224 17.1346 28.567 17.1346C28.12 17.1346 27.7912 17.0074 27.5805 16.7531C27.3698 16.4987 27.2644 16.1434 27.2644 15.6866C27.2644 15.2517 27.3726 14.9014 27.5885 14.6371C27.8049 14.3719 28.1125 14.2385 28.5118 14.2385C28.8639 14.2385 29.1365 14.353 29.3312 14.5817C29.5253 14.8104 29.6221 15.1451 29.6221 15.587V15.7918H27.8306C27.8306 16.1198 27.8984 16.3614 28.0338 16.5151C28.1694 16.6705 28.3801 16.7473 28.6659 16.7473ZM28.4953 14.6093C28.3234 14.6093 28.1785 14.6776 28.0612 14.8133C27.9441 14.9498 27.8707 15.1528 27.8414 15.421H29.1C29.0852 15.1487 29.0213 14.9457 28.9076 14.8113C28.7943 14.6765 28.6568 14.6093 28.4953 14.6093ZM30.3503 17.0678V14.6479C30.801 14.3751 31.2682 14.2385 31.7521 14.2385C32.0782 14.2385 32.3106 14.3053 32.4499 14.438C32.5892 14.5708 32.6588 14.7805 32.6588 15.0676V17.0677H32.0873V15.1948C32.0873 14.9923 32.0451 14.8558 31.9609 14.7862C31.8765 14.7158 31.7539 14.6811 31.5925 14.6811C31.3728 14.6811 31.1492 14.7477 30.9221 14.8801V17.0677H30.3503V17.0678ZM34.096 14.3719H34.9645L34.827 14.7477H34.096V16.206C34.096 16.5745 34.2536 16.7586 34.5687 16.7586C34.6896 16.7586 34.8123 16.733 34.9373 16.6813V17.0346C34.7649 17.1011 34.5596 17.1346 34.3215 17.1346C34.0466 17.1346 33.8451 17.0561 33.7168 16.8991C33.5886 16.7432 33.5244 16.5376 33.5244 16.2828V14.0068L34.096 13.592V14.3719H34.096ZM36.0833 14.2669V17.0678H35.5115V14.4047L36.0833 14.2669ZM35.4237 13.4542C35.4237 13.3548 35.4613 13.2676 35.536 13.1916C35.6111 13.1161 35.6981 13.0782 35.7973 13.0782C35.8961 13.0782 35.9833 13.1161 36.0582 13.1916C36.1335 13.2676 36.171 13.3548 36.171 13.4542C36.171 13.5536 36.1335 13.6414 36.0582 13.7172C35.9833 13.792 35.8961 13.8299 35.7973 13.8299C35.6981 13.8299 35.6111 13.792 35.536 13.7172C35.4613 13.6414 35.4237 13.5536 35.4237 13.4542ZM39.9744 14.46V14.9014C39.6995 14.7175 39.421 14.6258 39.1391 14.6258C38.9962 14.6258 38.879 14.6534 38.7871 14.7088C38.6956 14.7636 38.6498 14.8524 38.6498 14.9733C38.6498 15.0882 38.7001 15.1791 38.8008 15.2471C38.9017 15.3155 39.0602 15.3846 39.2765 15.4541C39.3975 15.4947 39.488 15.5262 39.5483 15.5482C39.609 15.5708 39.6884 15.6077 39.7876 15.6589C39.8864 15.7107 39.9608 15.7618 40.0101 15.8138C40.0596 15.8655 40.1044 15.9333 40.1449 16.0183C40.1852 16.103 40.2051 16.1966 40.2051 16.2998C40.2051 16.5542 40.1034 16.7567 39.9004 16.9078C39.6969 17.0588 39.4247 17.1346 39.0842 17.1346C38.7029 17.1346 38.3858 17.0535 38.1331 16.8909V16.4603C38.4555 16.6515 38.7505 16.7473 39.0182 16.7473C39.421 16.7473 39.6226 16.6151 39.6226 16.3496C39.6226 16.2982 39.6107 16.2499 39.5869 16.206C39.5631 16.1618 39.5356 16.1259 39.5046 16.0982C39.4733 16.0706 39.4228 16.0394 39.3532 16.0039C39.2835 15.9696 39.2251 15.9439 39.1773 15.9271C39.1298 15.9106 39.0547 15.8839 38.9522 15.8471C38.8018 15.7918 38.6828 15.7441 38.5947 15.7034C38.5067 15.6625 38.419 15.6102 38.331 15.546C38.2429 15.4815 38.1787 15.4045 38.1387 15.3164C38.0984 15.2283 38.0782 15.123 38.0782 15.0016C38.0782 14.8468 38.1148 14.7146 38.1881 14.6043C38.2613 14.493 38.3568 14.4139 38.4738 14.3662C38.5911 14.3181 38.6983 14.2848 38.7953 14.2669C38.8926 14.2479 38.9887 14.2385 39.0842 14.2385C39.3957 14.2385 39.6923 14.3123 39.9744 14.46ZM43.011 17.0678H42.489L42.4503 16.7473C42.1349 17.0055 41.8201 17.1346 41.5051 17.1346C41.2413 17.1346 41.037 17.0638 40.8923 16.9216C40.7474 16.7798 40.6752 16.6007 40.6752 16.3828C40.6752 16.2685 40.6962 16.1592 40.7384 16.0541C40.7805 15.949 40.8502 15.8471 40.9473 15.7477C41.0446 15.6481 41.1908 15.5682 41.3868 15.5071C41.583 15.446 41.8185 15.4158 42.0929 15.4158H42.4341V15.2667C42.4341 15.0199 42.388 14.8519 42.2969 14.7612C42.2047 14.6709 42.0509 14.6258 41.8351 14.6258C41.5711 14.6258 41.2467 14.7339 40.8621 14.9518V14.5099C41.2579 14.3295 41.6461 14.2385 42.0271 14.2385C42.3974 14.2385 42.6536 14.3145 42.7966 14.4658C42.9394 14.6165 43.011 14.8452 43.011 15.1502V17.0678H43.011ZM42.4398 15.8025H42.1482C41.5472 15.8025 41.2467 15.9813 41.2467 16.3387C41.2467 16.4644 41.2871 16.5546 41.3676 16.6121C41.4484 16.6693 41.5488 16.6976 41.67 16.6976C41.8238 16.6976 41.9718 16.6607 42.1152 16.5868C42.2581 16.5136 42.3664 16.4289 42.4398 16.3331V15.8025H42.4398ZM44.4485 14.3719H45.3169L45.1791 14.7477H44.4485V16.206C44.4485 16.5745 44.6059 16.7586 44.9207 16.7586C45.0418 16.7586 45.1641 16.733 45.2893 16.6813V17.0346C45.1169 17.1011 44.912 17.1346 44.6732 17.1346C44.3988 17.1346 44.1974 17.0561 44.0691 16.8991C43.9408 16.7432 43.8764 16.5376 43.8764 16.2828V14.0068L44.4485 13.592V14.3719H44.4485Z" fill="#B6B6B6"/>
</g>
<defs>
<clipPath id="clip0">
<rect width="83" height="20" fill="white"/>
</clipPath>
</defs>
</svg>
