<svg width="140" height="70" viewBox="0 0 140 70" fill="none" xmlns="http://www.w3.org/2000/svg">
<path d="M3.65896 23.2749C6.10727 22.0812 8.97152 22.044 11.5957 22.5816C13.5841 23.0585 15.6942 24.1845 16.445 26.2068C17.1957 28.5367 17.0334 31.0222 17.0367 33.4333C14.6527 33.4232 12.2686 33.4333 9.88795 33.4299C9.83722 31.428 9.99616 29.4159 9.78988 27.4208C9.83384 26.0411 7.38891 26.0512 7.42273 27.4309C7.16572 30.5691 7.36186 33.7275 7.30099 36.8758C7.35848 38.8845 7.15558 40.9203 7.47345 42.9121C7.66959 43.7101 8.67055 43.771 9.30292 43.5005C9.78988 43.1522 9.80002 42.513 9.85075 41.9754C9.92852 40.4807 9.86765 38.986 9.88795 37.4913C12.2754 37.4845 14.6594 37.4879 17.0469 37.4879C16.9759 39.757 17.1788 42.1715 16.2251 44.2918C14.6425 46.9126 11.3421 47.8966 8.43384 47.8053C5.87055 47.7816 2.93529 47.1899 1.34253 44.9816C0.20292 43.1961 0.2435 40.971 0.152196 38.9285C0.169104 35.3068 0.0304566 31.6783 0.280698 28.0633C0.385529 25.9836 1.81258 24.1473 3.65896 23.2749Z" fill="white"/>
<path d="M20.885 22.7034C24.3478 22.656 27.814 22.6594 31.2768 22.7034C32.5922 30.9072 33.999 39.0976 35.3381 47.2981C33.1096 47.2913 30.8811 47.2981 28.6526 47.2913C28.4565 45.756 28.3111 44.214 28.071 42.6821C27.2763 42.6957 26.4782 42.6956 25.6835 42.6923C25.8256 41.3193 25.9811 39.9464 26.1299 38.5734C26.6203 38.5734 27.1072 38.57 27.5976 38.57C27.1512 35.0565 26.8164 31.5261 26.2787 28.0261C25.5821 34.458 24.7435 40.8729 23.9792 47.2981C21.7439 47.2947 19.5053 47.2947 17.27 47.2947C18.4604 39.0976 19.7183 30.9072 20.885 22.7034Z" fill="white"/>
<path d="M36.5625 22.6797C38.933 22.673 41.3069 22.6763 43.6809 22.6763C43.6842 29.2367 43.6809 35.7937 43.6842 42.3541C45.135 42.3609 46.5857 42.3575 48.0364 42.3575C48.0432 44.0044 48.0398 45.6478 48.0398 47.2947C44.2152 47.2981 40.3905 47.2913 36.5659 47.2947C36.5591 39.0908 36.5659 30.8836 36.5625 22.6797Z" fill="white"/>
<path d="M49.7305 22.6797C52.1078 22.673 54.4884 22.6763 56.8691 22.6763C56.8759 29.2367 56.8691 35.7937 56.8725 42.3541C58.3097 42.3609 59.7469 42.3575 61.1841 42.3575C61.1875 44.0044 61.1875 45.6478 61.1875 47.2947C57.3696 47.2947 53.5517 47.2947 49.7339 47.2947C49.7271 39.0908 49.7339 30.8836 49.7305 22.6797Z" fill="white"/>
<path d="M70.0406 22.6797C73.1855 22.656 76.3338 22.6797 79.4753 22.8184C81.129 22.9367 82.8604 23.0517 84.3348 23.887C85.6637 24.685 86.4787 26.1966 86.4922 27.742C86.7087 32.0232 86.5835 36.3179 86.5971 40.6024C86.5125 42.371 86.6985 44.427 85.4169 45.8372C83.9898 47.1425 81.9406 47.2068 80.1111 47.2812C76.7565 47.3184 73.3985 47.2812 70.0406 47.2947C70.0372 39.0908 70.0406 30.8836 70.0406 22.6797ZM77.1792 26.9135C77.1826 32.3174 77.1826 37.7179 77.1792 43.1217C77.8589 42.9729 78.8937 43.1116 79.1947 42.3068C79.614 40.5314 79.3908 38.6783 79.4483 36.8657C79.3908 33.9034 79.5734 30.9275 79.3435 27.9686C79.2454 26.9034 77.9671 26.9473 77.1792 26.9135Z" fill="white"/>
<path d="M88.3791 22.6797C90.7463 22.6729 93.1134 22.6797 95.4806 22.6763C95.484 28.6551 95.4806 34.6338 95.4806 40.6126C95.4941 41.4039 95.4772 42.2019 95.626 42.9831C95.7342 43.8792 97.3134 43.8386 97.3811 42.9391C97.54 42.1681 97.5231 41.3768 97.5332 40.5957C97.5265 34.6237 97.5366 28.6517 97.5265 22.6797C99.8936 22.6696 102.261 22.6797 104.631 22.6763C104.625 28.4251 104.652 34.1739 104.618 39.9193C104.543 41.5019 104.719 43.2435 103.779 44.6198C102.66 46.4966 100.485 47.4502 98.382 47.6734C95.7173 47.9778 92.8192 47.6633 90.5873 46.0604C89.184 45.0628 88.4501 43.3449 88.4671 41.6473C88.298 35.3271 88.4163 29.0034 88.3791 22.6797Z" fill="white"/>
<path d="M106.163 22.6763C111.374 22.6763 116.586 22.6763 121.797 22.6763C121.8 24.3232 121.797 25.9667 121.8 27.6135C120.386 27.6135 118.973 27.6101 117.563 27.6169C117.563 34.1773 117.563 40.7343 117.563 47.2947C115.175 47.2947 112.788 47.2981 110.401 47.2913C110.401 40.7343 110.401 34.1739 110.401 27.6169C108.994 27.6135 107.587 27.6101 106.18 27.6169C106.15 25.9701 106.167 24.3232 106.163 22.6763Z" fill="white"/>
<path d="M123.078 22.6763C125.27 22.7034 127.461 22.6188 129.652 22.7203C130.998 27.1401 132.469 31.5193 133.862 35.9256C134.184 37.0145 134.711 38.0797 134.677 39.2396C134.661 41.9686 134.674 44.6976 134.667 47.4266C132.473 47.4299 130.281 47.4299 128.087 47.4266C128.087 44.8092 128.076 42.1918 128.093 39.571C128.1 38.9826 128.063 38.3841 127.877 37.8193C126.267 32.7773 124.681 27.7251 123.078 22.6763Z" fill="white"/>
<path d="M133.321 22.6797C135.499 22.6729 137.677 22.6797 139.855 22.6763C138.319 27.3362 136.804 32.0029 135.269 36.6628C134.295 33.5517 133.203 30.471 132.32 27.3362C132.527 25.7638 133.003 24.2353 133.321 22.6797Z" fill="white"/>
<path d="M60.3758 28.5807C61.627 28.0295 63.5005 28.5638 63.7068 30.072C63.8454 31.8913 63.8589 33.7377 63.6932 35.557C63.3145 37.6502 59.8145 37.7483 59.2633 35.7193C58.9928 34.0928 59.1449 32.4188 59.1382 30.7754C59.0976 29.886 59.5135 28.929 60.3758 28.5807ZM61.228 29.744C61.0792 31.756 61.1401 33.7783 61.1908 35.7937L61.6676 35.6382C61.8807 33.7816 61.8164 31.8778 61.7116 30.0145C61.5932 29.9469 61.3498 29.8116 61.228 29.744Z" fill="white"/>
<path d="M64.4473 28.5638C65.526 28.5604 66.6014 28.557 67.6767 28.5638C67.6734 29.1217 67.67 29.6831 67.67 30.2444C67.2337 30.2478 66.7975 30.2512 66.3613 30.2546C66.3613 30.7923 66.3579 31.3299 66.3579 31.8676C66.7468 31.871 67.1391 31.8744 67.5347 31.8812C67.5347 32.3952 67.5347 32.9092 67.5381 33.4232C67.1424 33.4266 66.7502 33.43 66.3613 33.4333C66.3613 34.6271 66.3579 35.8174 66.3613 37.0111C65.7221 37.0111 65.0864 37.0145 64.4506 37.0179C64.4473 34.1976 64.4506 31.3807 64.4473 28.5638Z" fill="white"/>
</svg>
