<svg width="50" height="50" viewBox="0 0 50 50" fill="none" xmlns="http://www.w3.org/2000/svg">
<path d="M11.1056 36.7109H10.1524C8.86025 36.7109 7.80869 37.7625 7.80869 39.0547V39.8359C7.80869 40.268 8.15791 40.6172 8.58994 40.6172H24.2103C24.6423 40.6172 24.9915 40.268 24.9915 39.8359V39.0547C24.9915 37.7625 23.9399 36.7109 22.6478 36.7109H21.6946L21.3048 35.1516H30.454C31.7462 35.1516 32.7978 34.1 32.7978 32.8078V11.7266C32.7978 10.4344 31.7462 9.38281 30.454 9.38281H2.34619C1.054 9.38281 0.00244141 10.4344 0.00244141 11.7266V32.8078C0.00244141 34.1 1.054 35.1516 2.34619 35.1516H11.4954L11.1056 36.7109ZM10.1524 38.2734H22.6478C23.079 38.2734 23.429 38.6234 23.429 39.0547H9.37119C9.37119 38.6234 9.72119 38.2734 10.1524 38.2734ZM20.0853 36.7109H12.7149L13.1048 35.1516H19.6954L20.0853 36.7109ZM2.34619 10.9453H30.4548C30.886 10.9453 31.236 11.2953 31.236 11.7266V30.4641H1.56494V11.7266C1.56494 11.2953 1.91494 10.9453 2.34619 10.9453ZM1.56494 32.8078V32.0266H16.4157C15.9845 32.0266 15.6392 32.3758 15.6392 32.8078C15.6392 33.2398 15.9923 33.5891 16.4243 33.5891C16.8556 33.5891 17.2056 33.2398 17.2056 32.8078C17.2056 32.3758 16.8556 32.0266 16.4243 32.0266H31.236V32.8078C31.236 33.2391 30.886 33.5891 30.4548 33.5891H16.4235H2.34619C1.91494 33.5891 1.56494 33.2391 1.56494 32.8078Z" fill="white"/>
<path d="M47.6541 9.38281H36.7158C35.4236 9.38281 34.3721 10.4344 34.3721 11.7266V38.2734C34.3721 39.5656 35.4236 40.6172 36.7158 40.6172H47.6541C48.9463 40.6172 49.9979 39.5656 49.9979 38.2734V11.7266C49.9979 10.4336 48.9463 9.38281 47.6541 9.38281ZM35.9346 14.0672H48.4354V14.8469H35.9346V14.0672ZM36.7158 10.9453H47.6541C48.0854 10.9453 48.4354 11.2953 48.4354 11.7266V12.5047H35.9346V11.7266C35.9346 11.2953 36.2846 10.9453 36.7158 10.9453ZM47.6541 39.0547H36.7158C36.2846 39.0547 35.9346 38.7047 35.9346 38.2734V16.4094H48.4354V38.2734C48.4354 38.7047 48.0854 39.0547 47.6541 39.0547Z" fill="white"/>
<path d="M42.1851 25.7844C43.4772 25.7844 44.5288 24.7329 44.5288 23.4407C44.5288 22.1485 43.4772 21.0969 42.1851 21.0969C40.8929 21.0969 39.8413 22.1485 39.8413 23.4407C39.8413 24.7329 40.8929 25.7844 42.1851 25.7844ZM42.1851 22.6594C42.6163 22.6594 42.9663 23.0094 42.9663 23.4407C42.9663 23.8719 42.6163 24.2219 42.1851 24.2219C41.7538 24.2219 41.4038 23.8719 41.4038 23.4407C41.4038 23.0094 41.7538 22.6594 42.1851 22.6594Z" fill="white"/>
<path d="M45.3101 30.4735H39.0601C38.628 30.4735 38.2788 30.8227 38.2788 31.2548C38.2788 31.6868 38.628 32.036 39.0601 32.036H45.3101C45.7421 32.036 46.0913 31.6868 46.0913 31.2548C46.0913 30.8227 45.7421 30.4735 45.3101 30.4735Z" fill="white"/>
<path d="M45.3101 32.8173H39.0601C38.628 32.8173 38.2788 33.1665 38.2788 33.5985C38.2788 34.0305 38.628 34.3798 39.0601 34.3798H45.3101C45.7421 34.3798 46.0913 34.0305 46.0913 33.5985C46.0913 33.1665 45.7421 32.8173 45.3101 32.8173Z" fill="white"/>
<path d="M45.3101 35.161H39.0601C38.628 35.161 38.2788 35.5102 38.2788 35.9423C38.2788 36.3743 38.628 36.7235 39.0601 36.7235H45.3101C45.7421 36.7235 46.0913 36.3743 46.0913 35.9423C46.0913 35.5102 45.7421 35.161 45.3101 35.161Z" fill="white"/>
</svg>
