<svg width="110" height="110" viewBox="0 0 110 110" fill="none" xmlns="http://www.w3.org/2000/svg">
<rect width="110" height="110" rx="10" fill="#0088E0"/>
<rect width="110" height="110" rx="10" fill="url(#paint0_linear)"/>
<path d="M82 28H73V25.5C73 25.3674 72.9473 25.2402 72.8536 25.1464C72.7598 25.0527 72.6326 25 72.5 25H37.5C37.3674 25 37.2402 25.0527 37.1464 25.1464C37.0527 25.2402 37 25.3674 37 25.5V28H28C27.2044 28 26.4413 28.3161 25.8787 28.8787C25.3161 29.4413 25 30.2044 25 31V38.2C25.0035 41.5283 26.2265 44.7399 28.4378 47.2276C30.649 49.7152 33.6951 51.3063 37 51.7V52C36.9708 56.1181 38.3547 60.1217 40.9207 63.3429C43.4866 66.564 47.0796 68.8078 51.1 69.7L49 76H42.1C41.4846 76.0155 40.8904 76.2278 40.4045 76.6058C39.9186 76.9837 39.5665 77.5074 39.4 78.1L37.46 83.67C37.4071 83.8212 37.3914 83.9829 37.414 84.1415C37.4367 84.3001 37.4971 84.4509 37.5902 84.5813C37.6834 84.7116 37.8064 84.8177 37.9491 84.8906C38.0917 84.9634 38.2498 85.001 38.41 85H71.59C71.7502 85.001 71.9083 84.9634 72.0509 84.8906C72.1936 84.8177 72.3166 84.7116 72.4098 84.5813C72.5029 84.4509 72.5633 84.3001 72.586 84.1415C72.6086 83.9829 72.5929 83.8212 72.54 83.67L70.6 78.1C70.4335 77.5074 70.0814 76.9837 69.5955 76.6058C69.1096 76.2278 68.5154 76.0155 67.9 76H61L58.9 69.7C62.9204 68.8078 66.5134 66.564 69.0793 63.3429C71.6453 60.1217 73.0292 56.1181 73 52V51.7C76.3049 51.3063 79.351 49.7152 81.5622 47.2276C83.7735 44.7399 84.9965 41.5283 85 38.2V31C85 30.2044 84.6839 29.4413 84.1213 28.8787C83.5587 28.3161 82.7956 28 82 28ZM37 45.7C35.3228 45.2678 33.8312 44.303 32.7492 42.9506C31.6673 41.5982 31.0535 39.9311 31 38.2V35C31 34.7348 31.1054 34.4804 31.2929 34.2929C31.4804 34.1054 31.7348 34 32 34H37V45.7ZM79 38.2C78.9906 39.9431 78.393 41.6321 77.304 42.9932C76.2151 44.3544 74.6985 45.3082 73 45.7V34H78C78.2652 34 78.5196 34.1054 78.7071 34.2929C78.8946 34.4804 79 34.7348 79 35V38.2Z" stroke="white" stroke-width="4" stroke-miterlimit="10"/>
<path d="M54.5244 39.4635C54.674 39.0029 55.3257 39.0029 55.4754 39.4635L56.9083 43.8734C56.9752 44.0794 57.1672 44.2189 57.3838 44.2189H62.0206C62.5049 44.2189 62.7063 44.8387 62.3145 45.1234L58.5632 47.8488C58.388 47.9761 58.3147 48.2018 58.3816 48.4078L59.8144 52.8176C59.9641 53.2783 59.4369 53.6614 59.045 53.3767L55.2938 50.6512C55.1185 50.5239 54.8812 50.5239 54.706 50.6512L50.9548 53.3767C50.5629 53.6614 50.0357 53.2783 50.1854 52.8176L51.6182 48.4078C51.6851 48.2018 51.6118 47.9761 51.4366 47.8488L47.6853 45.1234C47.2935 44.8387 47.4949 44.2189 47.9792 44.2189H52.616C52.8326 44.2189 53.0246 44.0794 53.0915 43.8734L54.5244 39.4635Z" fill="white"/>
<defs>
<linearGradient id="paint0_linear" x1="110" y1="0" x2="0" y2="110" gradientUnits="userSpaceOnUse">
<stop stop-color="#0088E0"/>
<stop offset="1" stop-color="#0A5BA7"/>
</linearGradient>
</defs>
</svg>
