<svg width="140" height="70" viewBox="0 0 140 70" fill="none" xmlns="http://www.w3.org/2000/svg">
<path d="M62.3177 6.76107H62.2004C62.2004 6.76107 62.3056 6.66146 62.3177 6.76107Z" fill="white"/>
<path d="M100 63.3467L99.7731 39.0544C97.1913 39.3176 98.1786 38.4597 98.1786 38.4597C98.6715 38.873 98.9375 38.5727 98.9375 38.5727C98.7482 36.8451 99.2787 35.8698 99.2787 35.8698C98.5964 35.3806 99.5071 33.2783 99.5071 33.2783C98.3304 33.3541 98.906 31.0259 98.906 31.0259C97.9187 30.8385 98.0704 30.1621 98.0704 30.1621C98.7166 29.5242 97.8059 29.8989 97.8059 29.8989C96.8562 28.2471 98.6024 27.7223 98.6024 27.7223L97.9187 25.9946L99.6649 25.9575C100.461 16.57 99.3237 11.2013 99.3237 11.2013C100.234 10.7136 99.5507 7.67172 99.5507 7.67172C97.6917 7.29706 97.8811 6.50758 97.8811 6.50758L96.2491 6.47041L95.6795 6.13292C95.6419 7.40856 92.674 6.01992 92.674 6.01992C91.3846 7.44722 91.0419 5.11894 91.0419 5.11894C91.3079 5.15611 90.1312 4.82159 90.5911 5.56497C91.0509 6.30836 90.4769 6.35296 90.4769 6.35296C79.8071 5.22748 78.9055 6.05561 78.9055 6.05561C80.0055 6.76925 78.8679 7.67023 78.9055 7.93339C76.8948 7.89622 76.4003 8.30806 76.4003 8.30806C76.3568 6.61463 74.1943 5.48766 72.8658 5.59471C72.1119 5.67908 71.3534 5.48008 70.7409 5.03717C69.4876 6.20131 66.5992 5 66.5992 5C66.2235 5.93815 65.6975 5.52632 65.6975 5.52632L64.5209 5.41332L64.3315 6.23848L63.9468 5.44603C63.6057 6.9105 63.2645 6.72316 63.2645 6.72316L62.3178 6.75587C62.3077 6.91343 62.268 7.06774 62.2006 7.21082C61.9361 7.92447 61.1772 7.21082 61.1772 7.21082C61.1772 7.21082 58.5954 7.3595 57.306 7.28665C56.0166 7.2138 55.2938 6.19685 55.2938 6.19685L54.8009 6.87333L53.5866 6.72465L53.51 6.35147L52.8653 6.72762L50.1332 6.6518L49.8673 6.91496L49.4495 6.46893L48.7672 6.4273L48.4667 6.76479L48.0459 6.20131L47.8145 6.16414L47.5875 6.75885L47.2133 6.46447L45.5783 6.38864L45.2267 5.74338C42.9725 8.02557 41.094 6.11508 41.094 6.11508L40.7935 8.4939L40.5665 8.45525L40.4508 7.06512L40.7168 6.9893L40.792 6.76479L40.1142 6.68897L40 9.73089C40.5696 10.5947 40.6838 9.69373 40.6838 9.69373L41.0249 9.88106C39.734 23.3601 41.5944 29.1421 41.5944 29.1421C40.266 32.4844 42.3534 33.4225 42.3534 33.4225L42.2767 35.675L41.2518 35.113L41.2142 35.675L41.7462 35.9723L41.596 36.2355C41.064 35.7895 40.8746 35.898 40.8746 35.898C40.5741 41.2296 41.1015 43.595 41.1015 43.595L42.2782 43.7823L42.0107 50.168L41.1 50.2067C40.7213 50.8014 40.6838 53.1341 40.6838 53.1341C41.5178 59.8246 40.3832 61.8451 40.3832 61.8451L42.1294 62.1082L42.0919 62.9349L42.4706 63.1222C42.5472 62.5275 43.1543 62.3714 43.1543 62.3714C43.5721 62.5201 43.1919 63.1594 43.1919 63.1594L43.5721 63.2352L43.7224 62.4086H43.9493L43.9072 62.8962L44.2874 62.9349C45.957 62.1841 46.0712 63.0092 46.0712 63.0092L46.2215 62.0711C46.4484 62.6658 48.2322 62.5587 48.2322 62.5587C49.7876 62.3714 49.9785 63.0464 49.9785 63.0464L49.9018 62.1082H50.2445C50.3947 62.8219 50.8891 62.6345 50.8891 62.6345C50.9643 61.6577 51.3821 61.8451 51.3821 61.8451C51.6826 62.1841 51.6105 62.972 51.6105 62.972L52.0267 63.1594C52.177 62.4457 52.9389 62.5647 52.9389 62.5647L53.5836 62.1186V62.5647H54.2764L54.4673 62.077C54.6566 62.19 54.7678 62.9408 54.7678 62.9408H55.109L55.3749 62.752L55.5643 63.0152C55.6019 62.6405 56.0963 62.3773 56.0963 62.3773L56.5471 63.0523L56.8882 62.9408L56.8507 62.4517C57.1918 62.2643 57.9883 63.091 57.9883 63.091L58.1791 62.865L57.7989 62.419L58.3309 61.8555C58.367 62.2926 59.0447 63.0449 59.0823 63.0925C58.8193 61.9313 59.5001 61.744 59.5001 61.744C59.9178 63.0568 60.791 63.0954 60.791 63.0954C60.8676 62.5691 61.057 62.532 61.057 62.532C62.1194 63.6574 64.2444 62.6806 64.2444 62.6806L65.687 65.0089C66.0282 64.5956 66.9388 64.6699 66.9388 64.6699L66.7495 64.0247C69.3298 63.198 70.1653 64.6625 70.1653 64.6625L70.6582 63.9503L70.9588 63.9117L70.9963 64.4752C71.8695 65.0699 73.805 64.3622 73.805 64.3622L73.3617 64.0247C73.1724 63.5786 78.9791 63.6485 78.9791 63.6485C79.0167 63.9117 78.7507 64.0946 78.7507 64.0946L77.2705 64.2061C78.7131 65.1457 79.8898 63.9816 79.8898 63.9816L80.0401 63.3423L79.5457 63.4552C79.7741 62.8918 80.3812 63.0806 80.3812 63.0806L80.1152 63.9816C80.2352 64.025 80.3645 64.0374 80.4907 64.0176C80.6169 63.9978 80.7359 63.9465 80.8365 63.8686L80.8741 63.2307H81.1401L80.9898 63.7556C83.0006 63.1609 84.4462 63.4181 84.4462 63.4181C84.6356 62.5171 85.5463 62.7044 85.5463 62.7044C86.8747 63.7184 88.5067 63.0419 88.5067 63.0419C91.885 64.6952 93.7064 63.0048 93.7064 63.0048C94.4653 64.0187 94.4277 62.9304 94.4277 62.9304L95.415 62.8918L95.5653 62.5944L93.2886 62.4071C95.143 60.5694 100 63.3467 100 63.3467ZM83.2064 16.3396C85.0473 15.7568 85.9851 16.4481 85.9851 16.4481L88.6149 18.366L88.5954 18.6099L88.1972 18.4984C88.1972 18.4984 87.856 18.6664 88.0078 19.2417C88.1596 19.8171 88.3084 19.1659 88.3084 19.1659L88.2708 18.8686L88.6119 18.8507L87.3977 26.5656L86.9048 26.6042L86.5862 26.1954H86.0151C86.0151 26.1954 86.1654 25.0684 85.5643 25.0505C84.9632 25.0327 85.2803 25.4252 85.2803 25.4252L85.7536 25.6512L85.6214 25.9129L75.655 18.3482C75.655 18.3482 81.367 16.9209 83.2064 16.3396ZM55.124 55.1041L54.6115 54.7859C54.6115 54.7859 54.4853 55.3092 53.9713 55.1398C54.081 55.1056 54.2118 54.9658 54.3455 54.5971C54.3455 54.5971 54.2133 54.2997 54.0224 54.5971L53.8902 54.8796L53.8526 54.3354L53.51 54.5599L53.2455 54.5227L53.1884 55.0104L48.1781 51.3321C48.1781 51.3321 47.4568 51.0705 48.0279 49.3607C48.5989 47.6509 51.6706 41.1195 51.6706 41.1195L63.5125 52.4398L55.124 55.1041ZM88.9561 54.3354C81.367 54.8231 79.9619 51.5195 79.9619 51.5195L73.8907 45.0981L74.1552 44.7606L73.5105 44.1659L73.5481 44.6536C72.9034 43.3764 72.1445 42.9646 72.1445 42.9646L72.3338 43.5593C71.4607 42.8457 71.7327 42.019 71.7327 42.019L70.5936 40.5546C69.6829 40.0669 70.3291 40.8177 70.3291 40.8177L71.2022 41.7945L70.9738 42.132C69.9865 41.2608 69.153 40.2327 68.5077 39.0901C67.576 37.3595 68.2523 39.2061 68.2778 39.2774L62.3914 32.972L62.8423 33.3095C62.8423 33.3095 63.4118 34.0604 63.0692 33.198C62.7265 32.3357 61.628 32.4844 61.628 32.4844L47.0631 17.0904C51.3144 14.3488 53.3627 16.5269 53.3627 16.5269L57.841 19.6491L57.6141 19.9123L58.5999 20.8876L58.8283 20.7761L58.3775 20.2126L59.3258 20.7374L59.0853 21.1076L59.2747 21.295L59.6158 21.0318L59.9569 21.3708L60.558 21.408C60.4814 22.3848 61.9992 22.3089 61.9992 22.3089L86.0978 38.5296L85.7972 38.8671L86.4434 39.3934L86.0632 39.3547L84.9632 38.9087L84.9241 39.3979L87.847 39.6595L92.8573 43.0018C92.5612 49.7933 88.9561 54.3369 88.9561 54.3369V54.3354Z" fill="white"/>
<path d="M53.9758 55.142C53.815 55.1925 53.6993 55.0141 53.6873 54.9933C53.7764 55.0552 53.8734 55.1052 53.9758 55.142Z" fill="white"/>
</svg>
