<svg width="140" height="70" viewBox="0 0 140 70" fill="none" xmlns="http://www.w3.org/2000/svg">
<path d="M126.366 45.3522C124.211 44.8029 122.352 44.3381 122.352 42.5635C122.352 41.1691 123.408 40.2818 125.098 40.2818C126.662 40.1973 128.098 41.2536 128.394 42.817L132.619 40.7888C131.478 38.0001 128.732 36.31 125.225 36.31C120.662 36.31 117.493 39.0987 117.493 43.0705C117.493 47.9296 121 48.8592 124.126 49.662C126.324 50.2113 128.183 50.7183 128.183 52.5352C128.183 54.0564 126.957 55.0282 125.098 55.0282C123.239 55.0282 121.676 54.0141 121.253 52.493L117.028 54.5211C118.211 57.3098 121.211 59 124.929 59C129.873 59 133.042 56.2535 133.042 51.9437C133.042 47.0423 129.324 46.1127 126.366 45.3522Z" fill="white"/>
<path d="M133.38 16.6621V18.9015H129.788V21.0142H132.915L132.324 23.1691H129.788V26.5071H127.338V16.6621H133.38Z" fill="white"/>
<path d="M121.168 18.9438C122.689 18.9438 123.915 20.1691 123.915 21.6902C123.915 23.2113 122.689 24.4367 121.168 24.4367C119.647 24.4367 118.422 23.2113 118.422 21.6902C118.422 20.1691 119.647 18.9438 121.168 18.9438ZM121.168 26.8029C123.999 26.8029 126.281 24.4789 126.281 21.648C126.281 18.817 123.957 16.5353 121.126 16.5353C118.295 16.5353 116.013 18.8593 116.013 21.648C116.013 24.5212 118.337 26.8451 121.168 26.8029Z" fill="white"/>
<path d="M76.1266 58.3662H80.69V43.9578L91.042 58.3662H95.8167V36.4368H91.211V51.0564L80.9858 36.4368H75.0703L76.1266 38.5917V58.3662Z" fill="white"/>
<path d="M111.281 50.0001C110.648 51.5634 109.38 52.7888 107.859 53.4648C107.056 53.8029 106.211 53.9719 105.324 53.9719H102.704V40.8734H105.324C106.211 40.8734 107.056 41.0424 107.859 41.3804C109.422 42.0142 110.648 43.2818 111.281 44.8452C111.958 46.5353 111.958 48.3522 111.281 50.0001ZM109.76 37.3241C108.366 36.7748 106.887 36.479 105.408 36.3945H97.9294V58.324H105.408C108.366 58.324 111.197 57.2254 113.352 55.1972C114.366 54.2254 115.211 53.0423 115.76 51.7325C117.577 47.5916 116.605 42.7748 113.352 39.648C112.296 38.6762 111.112 37.8734 109.76 37.3241Z" fill="white"/>
<path d="M35.8595 58.3662H22.8032V36.4368H35.8595V40.7043H27.5778V45.1409H35.1412L34.0003 49.2818H27.5778V54.0986L35.8595 54.1409V58.3662Z" fill="white"/>
<path d="M65.6901 40.7043H73.9718V36.4368H60.9578V58.3662H73.9718V54.1409L65.6901 54.0986V49.2818H72.1126L73.2535 45.1409H65.6901V40.7043Z" fill="white"/>
<path d="M82.2536 27.8592C81.8311 26.6339 81.6198 25.3663 81.662 24.0987L81.7465 10.5777H86.4789L86.4367 23.8874C86.4367 25.3663 86.7747 26.5494 87.4508 27.3944C89.0564 29.0846 91.7606 29.1268 93.4085 27.4789L93.493 27.3944C94.2113 26.5494 94.5493 25.3663 94.5493 23.8874L94.5916 10.5354H99.4085L99.3239 24.1832C99.3239 25.4508 99.1549 26.7184 98.7324 27.9437C98.3521 29.0001 97.7183 29.9719 96.9578 30.817C96.1549 31.6198 95.2254 32.2536 94.169 32.6338C91.7606 33.4789 89.1409 33.4789 86.7325 32.5916C85.6761 32.169 84.7466 31.5775 83.986 30.7324C83.2255 29.9296 82.6339 28.9578 82.2536 27.8592L82.2536 27.8592Z" fill="white"/>
<path d="M58.5069 26.1691C57.9154 24.7747 57.6196 23.2536 57.6196 21.7747C57.6196 20.2536 57.9577 18.7748 58.5492 17.3804C59.1407 16.0283 59.9858 14.803 61.0421 13.7889C62.0985 12.7325 63.3661 11.9297 64.7182 11.3804C66.1125 10.7889 67.6336 10.4931 69.197 10.5354C71.2674 10.4931 73.3378 11.0424 75.1547 12.0565C76.8448 13.0283 78.2392 14.4649 79.1265 16.2396L74.8167 18.2677C74.3096 17.2536 73.5068 16.4086 72.535 15.817C71.5209 15.2255 70.3378 14.972 69.1548 14.972C68.2674 14.972 67.3379 15.141 66.5351 15.479C65.7322 15.817 65.0139 16.3241 64.4224 16.9579C63.7886 17.5917 63.3238 18.3522 62.9858 19.155C62.2675 20.8874 62.2675 22.7888 62.9435 24.5212C63.5773 26.1691 64.8872 27.5212 66.4928 28.2395C67.3379 28.6198 68.2252 28.831 69.1548 28.7888C70.5069 28.831 71.859 28.4085 72.9575 27.6479C73.9716 26.9296 74.6899 25.831 74.9857 24.6057H67.1689L69.1125 20.6339H80.0138C80.0561 21.479 80.0138 23.2959 79.9716 23.6761C79.8448 24.6902 79.5913 25.7043 79.211 26.6761C78.1547 29.2958 76.0843 31.324 73.4646 32.3803C69.1547 34.1127 64.2534 33.0986 60.9576 29.8028C59.9013 28.7465 59.0985 27.5212 58.5069 26.1691H58.5069Z" fill="white"/>
<path d="M7.7187 30.3098V12.8593L6.62012 10.5776H12.4511V28.2817H21.1975L19.9721 32.5915H6.62012L7.7187 30.3098Z" fill="white"/>
<path d="M7.7187 56.0846V38.634L6.62012 36.3523H12.4511V54.0564H21.1975L19.9721 58.3663H6.62012L7.7187 56.0846Z" fill="white"/>
<path d="M35.8595 32.5918H22.8032V10.6624H35.8595V14.9299H27.5778V19.3665H35.1412L34.0003 23.5073H27.5778V28.2819L35.8595 28.3242V32.5918Z" fill="white"/>
<path d="M114.535 32.5918H101.521V10.6624H114.577V14.9299H106.296V19.3665H113.859L112.718 23.5073H106.296V28.2819L114.577 28.3242V32.5918L114.535 32.5918Z" fill="white"/>
<path d="M48.3662 16.7465L51.1127 24.1409H45.493L48.3662 16.7465ZM42.2395 32.5915L43.8874 28.3239H52.676L54.3662 32.5915H59.3098L50.4789 10.5776H43.7184L45.155 13.4508L37.3804 32.5915H42.2395Z" fill="white"/>
<path d="M45.7467 58.7043C46.5495 58.8733 47.3523 58.9578 48.1974 58.9578C49.6762 59.0001 51.1551 58.7043 52.5494 58.155C55.1692 57.0987 57.2396 55.0705 58.2959 52.4508C58.6762 51.479 58.9297 50.4649 59.0564 49.4509C59.141 48.4368 59.141 47.4227 59.0987 46.3664H48.1974V46.4086L46.2537 50.3804H54.0283C53.7325 51.6058 53.0142 52.7044 52.0002 53.4227C50.9016 54.2255 49.5917 54.6058 48.2396 54.5635C47.8171 54.5635 47.4368 54.5213 47.0143 54.4368L46.0425 54.1832C45.8734 54.141 45.7467 54.0565 45.5777 54.0142C43.972 53.2959 42.6622 51.9861 42.0284 50.2959C41.3523 48.5636 41.3523 46.6199 42.0706 44.8875C42.4087 44.0847 42.9157 43.3242 43.5073 42.6904C44.0988 42.0566 44.8594 41.5918 45.6622 41.2537C46.5072 40.9157 47.3946 40.7467 48.2819 40.7467C49.465 40.7045 50.6481 41.0002 51.6621 41.5918C52.634 42.1833 53.4368 43.0284 53.9438 44.0425L58.2536 42.0143C57.3663 40.2397 56.0142 38.8031 54.2818 37.8312C52.4649 36.8172 50.4368 36.3101 48.3241 36.3101C45.2819 36.2679 42.3664 37.451 40.1693 39.6059C39.1129 40.6199 38.2679 41.8453 37.6763 43.1974C36.451 45.9861 36.451 49.1973 37.6341 51.9861C38.2256 53.3382 39.0284 54.5635 40.0425 55.6198C40.9721 56.5494 42.0706 57.31 43.2537 57.9015C44.0847 58.2758 44.9157 58.5796 45.7467 58.7043Z" fill="white"/>
</svg>
