<svg width="140" height="70" viewBox="0 0 140 70" fill="none" xmlns="http://www.w3.org/2000/svg">
<path d="M61.0086 14.0366C63.6429 12.0282 66.8639 10.9404 70.1765 10.9404C73.4891 10.9404 76.71 12.0282 79.3444 14.0366L83.0772 9.42239C79.3845 6.5482 74.8387 4.98761 70.1592 4.98761C65.4798 4.98761 60.9339 6.5482 57.2412 9.42239L61.0086 14.0366Z" fill="white"/>
<path d="M84.2522 10.3902L80.554 15.0562C82.9805 17.318 84.5658 20.3377 85.0494 23.6194C85.533 26.9012 84.8863 30.2499 83.2153 33.1155L74.9893 25.2005L71.1528 16.5597V29.6937L79.2233 37.5223C76.6121 39.4691 73.4421 40.5207 70.185 40.5207C66.928 40.5207 63.758 39.4691 61.1467 37.5223L69.2864 29.6937V16.5597L65.4499 25.2005L57.2238 33.0636C55.5578 30.2107 54.9071 26.8776 55.3778 23.6076C55.8485 20.3375 57.4129 17.3233 59.8161 15.0562L56.1178 10.3902C53.973 12.3188 52.2582 14.6773 51.0851 17.3124C49.912 19.9474 49.3067 22.8 49.3088 25.6844C49.4652 31.1194 51.7341 36.2793 55.6337 40.0684C59.5333 43.8574 64.7564 45.977 70.1937 45.977C75.6309 45.977 80.854 43.8574 84.7536 40.0684C88.6532 36.2793 90.9221 31.1194 91.0785 25.6844C91.0773 22.7988 90.4689 19.9459 89.2929 17.3109C88.1168 14.6759 86.3994 12.3179 84.2522 10.3902Z" fill="white"/>
<path d="M89.5404 37.2458H89.9897H90.1107C90.1411 37.2743 90.1646 37.3093 90.1796 37.3482C90.1946 37.3871 90.2005 37.4289 90.1971 37.4704C90.2019 37.5045 90.1999 37.5392 90.1912 37.5725C90.1825 37.6058 90.1673 37.6371 90.1464 37.6644C90.1254 37.6918 90.0993 37.7147 90.0694 37.7318C90.0396 37.749 90.0066 37.76 89.9724 37.7642L90.2835 38.179H90.007L89.7477 37.7988V38.179H89.5404V37.2458ZM89.765 37.4186V37.6778H89.9206C89.9282 37.6616 89.9322 37.6439 89.9322 37.626C89.9322 37.608 89.9282 37.5903 89.9206 37.5741C89.9282 37.5579 89.9322 37.5402 89.9322 37.5223C89.9322 37.5043 89.9282 37.4866 89.9206 37.4704H89.7823L89.765 37.4186ZM89.8687 38.5937C89.6978 38.5937 89.5308 38.5431 89.3887 38.4481C89.2466 38.3532 89.1358 38.2182 89.0704 38.0603C89.005 37.9024 88.9879 37.7287 89.0212 37.5611C89.0546 37.3935 89.1369 37.2395 89.2577 37.1187C89.3786 36.9978 89.5325 36.9155 89.7001 36.8822C89.8678 36.8488 90.0415 36.8659 90.1994 36.9313C90.3573 36.9967 90.4922 37.1075 90.5872 37.2496C90.6821 37.3917 90.7328 37.5588 90.7328 37.7297C90.7352 37.846 90.714 37.9617 90.6705 38.0697C90.627 38.1777 90.5622 38.2758 90.4799 38.3581C90.3976 38.4404 90.2995 38.5053 90.1915 38.5487C90.0835 38.5922 89.9678 38.6134 89.8514 38.611L89.8687 38.5937ZM90.5773 37.7297C90.5773 37.5895 90.5357 37.4525 90.4579 37.336C90.38 37.2195 90.2693 37.1287 90.1399 37.075C90.0104 37.0214 89.8679 37.0074 89.7305 37.0347C89.593 37.0621 89.4668 37.1295 89.3677 37.2286C89.2686 37.3277 89.2011 37.454 89.1738 37.5914C89.1464 37.7289 89.1605 37.8713 89.2141 38.0008C89.2677 38.1303 89.3586 38.2409 89.4751 38.3188C89.5916 38.3966 89.7286 38.4382 89.8687 38.4382C90.0507 38.4338 90.224 38.3596 90.3527 38.2309C90.4814 38.1022 90.5556 37.9289 90.56 37.7469L90.5773 37.7297Z" fill="white"/>
<path d="M33.4958 49.1355L35.898 52.5573H31.0764L33.4958 49.1355Z" fill="white"/>
<path d="M75.1099 52.661L73.1917 57.206L71.2043 52.661H69.1132L67.1258 57.1542L65.2421 52.661H62.0796L66.0025 61.5955H68.0072L70.0118 57.1023L71.9992 61.5955H74.1249L78.0305 52.661H75.1099Z" fill="white"/>
<path d="M119.403 52.661V55.8062H113.924V52.661H110.883V61.5955H113.924V58.1392H119.403V61.5955H122.427V52.661H119.403Z" fill="white"/>
<path d="M81.6596 52.661L75.6628 61.5955H78.9809L82.6965 55.8408L86.3774 61.5955H89.7992L83.958 52.661H81.6596Z" fill="white"/>
<path d="M40.132 52.661H36.7621L33.3576 58.1047L30.005 52.661H26.5659L32.1997 61.5955H34.2735L40.132 52.661Z" fill="white"/>
<path d="M87.4319 52.661V55.0113H91.3202V61.5955H94.3791V55.0113H97.4379L98.9933 52.661H87.4319Z" fill="white"/>
<path d="M25.2526 52.8165C24.91 52.7186 24.5547 52.6721 24.1984 52.6782H17.5277C15.9897 52.6782 15.0219 53.4559 15.0219 54.7002V59.5736C15.0106 59.9329 15.1043 60.2878 15.2915 60.5947C15.4787 60.9017 15.7514 61.1474 16.0761 61.3017H16.1971L18.0635 59.418V55.0112H23.7491V59.2452H19.567L17.2167 61.5955H24.2676C25.7538 61.5955 26.7907 60.766 26.7907 59.5736V54.9421L25.3909 52.8338L25.2526 52.8165Z" fill="white"/>
<path d="M107.081 52.6609H100.998H100.514H100.428L100.168 53.0584L98.4402 55.5988V59.5217C98.4402 60.7142 99.4771 61.5437 100.946 61.5437H107.046C107.345 61.5797 107.648 61.5556 107.938 61.473C108.228 61.3904 108.498 61.2509 108.733 61.0626C108.968 60.8744 109.163 60.6411 109.306 60.3765C109.45 60.1119 109.54 59.8213 109.57 59.5217V57.9837H106.476V59.1934H101.534V55.0112H106.476V56.0481H109.535V54.7002C109.604 53.4732 108.619 52.6609 107.081 52.6609Z" fill="white"/>
<path d="M39.959 54.8903V61.5955H49.412V59.2452H43.0005V58.1219H47.3382V56.0654H43.0005V55.0113H49.412V52.661H41.5143L39.959 54.8903Z" fill="white"/>
<path d="M59.2628 58.2602C60.3515 58.2602 61.5267 57.6899 61.5267 56.6357V54.4928C61.5267 53.3695 60.6453 52.6609 59.2282 52.6609H50.7603V61.5783H53.8018V54.9594H58.5888C58.5888 54.9594 58.5888 54.9594 58.5888 55.0458V56.3938C58.5322 56.4092 58.4726 56.4092 58.416 56.3938H55.1843V58.1219L58.9344 61.4746H63.0993L59.2628 58.2602Z" fill="white"/>
<path d="M82.7312 65L80.3291 61.5955H85.1334L82.7312 65Z" fill="white"/>
<path d="M124.173 52.9202H124.622H124.743C124.773 52.9487 124.797 52.9837 124.812 53.0226C124.827 53.0615 124.833 53.1033 124.829 53.1448C124.834 53.1789 124.832 53.2136 124.823 53.2469C124.815 53.2802 124.799 53.3115 124.779 53.3388C124.758 53.3662 124.731 53.3891 124.702 53.4062C124.672 53.4234 124.639 53.4344 124.605 53.4386L124.916 53.8534H124.639L124.38 53.4732V53.8534H124.155L124.173 52.9202ZM124.397 53.093V53.3522H124.553C124.56 53.336 124.564 53.3183 124.564 53.3004C124.564 53.2824 124.56 53.2647 124.553 53.2485C124.56 53.2323 124.564 53.2146 124.564 53.1967C124.564 53.1787 124.56 53.161 124.553 53.1448H124.414L124.397 53.093Z" fill="white"/>
<path d="M124.501 54.2681C124.33 54.2681 124.163 54.2175 124.021 54.1225C123.879 54.0276 123.768 53.8926 123.702 53.7347C123.637 53.5768 123.62 53.4031 123.653 53.2355C123.687 53.0679 123.769 52.9139 123.89 52.7931C124.011 52.6722 124.165 52.5899 124.332 52.5566C124.5 52.5232 124.674 52.5404 124.831 52.6058C124.989 52.6712 125.124 52.7819 125.219 52.924C125.314 53.0661 125.365 53.2332 125.365 53.4041C125.365 53.6332 125.274 53.853 125.112 54.015C124.95 54.1771 124.73 54.2681 124.501 54.2681ZM125.209 53.4041C125.209 53.2639 125.168 53.1269 125.09 53.0104C125.012 52.8939 124.901 52.8031 124.772 52.7494C124.642 52.6958 124.5 52.6818 124.363 52.7091C124.225 52.7365 124.099 52.8039 124 52.903C123.901 53.0021 123.833 53.1284 123.806 53.2658C123.779 53.4033 123.793 53.5457 123.846 53.6752C123.9 53.8047 123.991 53.9153 124.107 53.9932C124.224 54.071 124.361 54.1126 124.501 54.1126C124.689 54.1126 124.869 54.038 125.002 53.9051C125.135 53.7722 125.209 53.592 125.209 53.4041Z" fill="white"/>
</svg>
