<svg width="50" height="50" viewBox="0 0 50 50" fill="none" xmlns="http://www.w3.org/2000/svg">
<path d="M2.95126 32.9742C1.18979 34.1677 1.77695 36.4355 5.53475 37.5097C9.40999 38.8226 13.6375 39.1806 17.7476 38.4645C17.9825 38.4645 18.2174 38.3452 18.3348 38.3452V34.2871L14.3421 35.6C12.8155 36.0774 11.2889 36.1968 9.76229 35.8387C8.58797 35.4806 8.82283 34.7645 10.232 34.1677L18.3348 31.3032V26.8871L7.06136 30.8258C5.65218 31.3032 4.24301 32.0194 2.95126 32.9742ZM30.1954 15.071V26.6484C35.0101 29.0355 38.7679 26.6484 38.7679 20.4419C38.7679 14.1161 36.5367 11.2516 30.0779 8.98387C26.6724 7.79032 23.1495 6.71613 19.6265 6V40.4936L27.8467 43V13.9968C27.8467 12.6839 27.8467 11.729 28.7862 12.0871C30.0779 12.4452 30.1954 13.7581 30.1954 15.071ZM45.4615 30.229C42.0559 29.0355 38.4156 28.5581 34.8926 28.9161C33.0137 29.0355 31.2522 29.5129 29.6082 30.1097L29.2559 30.229V34.8839L36.889 32.0194C38.4156 31.5419 39.9422 31.4226 41.4688 31.7806C42.6431 32.1387 42.4082 32.8548 40.9991 33.4516L29.2559 37.8677V42.4032L45.4615 36.3161C46.6358 35.8387 47.6927 35.2419 48.6321 34.2871C49.4541 33.0935 49.1018 31.4226 45.4615 30.229Z" fill="white"/>
</svg>
