<svg width="140" height="70" viewBox="0 0 140 70" fill="none" xmlns="http://www.w3.org/2000/svg">
<g clip-path="url(#clip0)">
<path d="M24.7937 27.2812C24.7937 27.2812 26.0054 27.375 27.0307 28.6875L26.4714 28.7812L26.1918 28.6875C26.1918 28.6875 25.3529 27.6562 24.7937 27.2812ZM22.9295 33.0938L22.3702 31.6875H22.1838L21.2517 32.8125C21.9042 33.375 22.9295 33.0938 22.9295 33.0938ZM31.5047 24.8437L31.0387 25.0312L31.5979 26.0625L33.4621 26.7187C32.7164 25.125 31.5047 24.8437 31.5047 24.8437ZM26.1918 26.8125C26.751 27.4687 27.3103 28.4062 27.3103 28.4062C28.2424 27.4688 30.1998 27.0937 32.7164 27.1875C29.1745 26.4375 26.1918 26.8125 26.1918 26.8125ZM22.7431 25.4062C22.7431 25.4062 23.7684 25.4062 25.1665 25.6875C24.2344 25.0312 22.7431 24.6562 22.7431 24.6562V25.4062ZM31.3183 30.5625L29.7337 31.9687L30.9455 32.3437L32.1572 31.0312L31.5047 30.75L31.3183 30.5625ZM20.7857 23.1562C20.7857 23.1562 21.4381 23.5312 21.5313 23.5312C21.6246 23.5312 22.9295 24 23.4887 24.1875C23.9548 24.375 24.2344 24.1875 24.3276 24.1875C24.4208 24.1875 26.0054 23.25 26.0054 23.25C24.6072 22.6875 23.3023 22.3125 23.3023 22.3125C23.2091 22.3125 20.7857 23.1562 20.7857 23.1562ZM30.293 24C30.1998 23.8125 30.0134 23.8125 28.8949 23.625C27.8696 23.5312 26.9375 23.4375 26.751 23.4375C26.5646 23.4375 26.4714 23.5312 26.4714 23.5312C26.4714 23.5312 25.9122 23.9062 25.4461 24.1875C24.9801 24.4688 24.8869 24.5625 24.7937 24.75C24.7004 24.8437 24.9801 25.2187 24.9801 25.2187L25.7257 26.1562C25.819 26.1562 26.0986 26.3437 26.0986 26.3437C26.0986 26.3437 27.5899 26.25 28.522 26.1562H30.9455C31.0387 26.1562 30.9454 25.7812 30.759 25.3125C30.5726 24.9375 30.293 24 30.293 24ZM21.4381 25.0312C21.4381 25.0312 21.5313 25.0312 21.7178 25.125C21.9042 25.125 21.9974 24.9375 21.9974 24.75C21.9974 24.4687 21.7178 24.375 21.7178 24.375H21.5313L21.2517 24.4687L21.1585 25.125H21.2517L21.4381 25.0312C21.3449 24.8437 21.3449 24.75 21.3449 24.5625C21.3449 24.4687 21.5313 24.2812 21.6245 24.2812C21.6245 24.2812 21.811 24.2812 21.7178 24.6562C21.7178 25.0312 21.4381 25.0312 21.4381 25.0312ZM37.1905 32.4375L36.4448 33.4687V33.5625H37.4701C37.6565 32.9062 37.1905 32.4375 37.1905 32.4375ZM18.5486 27.5625H18.3622L17.8962 27.4688C17.4301 27.375 17.6166 26.5312 17.6166 26.5312L17.0573 26.7187C16.8709 26.3437 16.032 25.3125 16.032 25.3125L15.8456 26.0625C15.9388 26.1562 16.4048 26.9062 16.4981 27.0937L16.2184 27.375C16.2184 27.375 16.1252 27.5625 16.1252 27.6562C16.1252 27.75 16.032 27.8437 16.032 27.8437L15.6592 28.0312H15.566L14.261 27V27.75H14.3542C14.4474 27.9375 14.6339 28.3125 15.0999 28.5C15.4728 28.6875 15.9388 28.6875 16.1252 28.5937C16.3116 28.6875 16.4048 28.6875 16.4981 28.7812C16.8709 28.9687 16.9641 28.875 16.9641 28.875L17.5233 28.6875H17.6166L17.7098 28.5937L17.8962 28.2187C17.8962 28.2187 18.8283 28.3125 19.2011 28.3125C19.574 27.75 20.7857 26.9062 21.6245 26.8125C22.4634 26.8125 23.8616 27 24.9801 28.125C26.0054 29.25 25.7257 30.75 25.7257 30.75L27.7763 31.4062L26.8443 30.75C26.0986 28.875 24.3276 27.1875 24.3276 27.1875C24.3276 27.1875 23.8616 27.0937 23.5819 27.0937C23.3023 27 23.1159 26.8125 23.1159 26.8125C23.1159 26.8125 23.0227 26.7187 22.8363 26.4375L22.6498 26.0625C22.6498 26.0625 22.4634 25.875 22.1838 25.6875C21.9042 25.5 20.8789 25.4062 20.3196 25.3125C19.7604 25.2187 19.7604 25.3125 19.7604 25.3125C21.3449 25.6875 21.811 25.7812 21.9042 25.875C21.9042 25.875 21.9974 26.0625 22.0906 26.1562C20.7857 25.875 19.5739 26.0625 19.2943 26.1562C19.4807 26.4375 19.4807 26.8125 19.2943 27.0937C19.1079 27.2812 18.5486 27.5625 18.5486 27.5625ZM36.2584 34.3125L36.538 35.5312C36.538 35.5312 36.8176 35.25 37.0973 34.875C37.3769 34.5 37.4701 34.125 37.4701 34.125L36.3516 34.2187L36.2584 34.3125ZM13.795 25.7812L13.7018 26.8125H14.261L14.3542 26.1562V26.5312H14.4474V25.9687H14.3542V25.5938L15.1931 26.0625L15.2863 26.25L15.4728 26.4375H15.6592L15.7524 26.3437V26.25C15.1931 26.25 15.1931 25.9687 15.1931 25.9687C15.1931 25.9687 15.2863 25.3125 15.3795 25.125C15.4727 24.9375 15.8456 25.0312 15.8456 25.0312L15.7524 24.9375H15.566C15.3795 24.8437 14.8203 24.4687 14.6339 24.375V24.2812L14.7271 24.1875V23.8125H14.8203C14.8203 23.7187 14.9135 23.7187 14.9135 23.625C15.0999 23.625 16.4981 23.3437 16.4981 23.3437L15.1931 23.0625V22.9687C14.8203 22.875 14.5407 22.7812 14.3542 22.6875C13.8882 23.25 13.7018 24 13.7018 24C13.7018 24 13.6086 25.3125 13.6086 25.5C13.5154 25.6875 13.795 25.7812 13.795 25.7812ZM35.6991 33.1875L35.8855 33.4687L35.9787 33.375L36.7244 32.4375V32.3437C36.3516 32.3437 35.6991 33.1875 35.6991 33.1875ZM33.4621 31.5L32.9028 31.3125L31.5979 32.8125L32.53 33.0938C32.7164 32.3438 33.4621 31.5 33.4621 31.5ZM35.4195 33.6562C34.9534 34.5937 35.0467 35.25 35.0467 35.25L35.5127 34.2187V34.0312C35.6059 34.0312 35.5127 33.8437 35.4195 33.6562ZM34.9534 27.5625C34.9534 27.5625 34.767 27.9375 34.6738 28.0312C34.5806 28.125 33.9281 28.2187 33.5553 28.3125C33.1825 28.5 32.53 28.7812 32.3436 28.9687C32.2504 29.0625 32.2504 29.3437 32.2504 29.4375C32.2504 29.4375 32.4368 29.5312 32.53 29.5312L31.6911 30.2812L31.8775 30.4687L33.9281 31.125C34.3942 30.75 35.0467 30.6562 35.0467 30.6562C34.6738 30.4687 33.0893 29.8125 32.6232 29.625C32.6232 29.625 32.3436 29.5312 32.3436 29.4375V29.1562C32.3436 29.1562 33.5553 28.2187 35.4195 28.2187L35.6991 27.6562L34.9534 27.5625ZM36.1652 35.8125L35.7923 34.6875H35.6991L35.1399 35.7187L35.2331 35.8125C35.6991 36 36.1652 35.8125 36.1652 35.8125ZM22.0906 25.125L22.3702 25.2187C22.3702 25.2187 22.5566 25.2187 22.5566 25.0312V24.6562L22.277 24.4687L21.9042 24.375C21.9974 24.4687 21.9974 24.5625 21.9974 24.5625H22.0906C22.0906 24.4687 22.1838 24.4687 22.1838 24.5625C22.1838 24.5625 22.3702 24.6562 22.277 24.9375C22.3702 25.0312 22.1838 25.125 22.0906 25.125ZM21.2517 30.2812C20.5992 31.5 21.0653 32.3437 21.0653 32.3437L21.9042 31.125V30.9375L21.2517 30.2812ZM15.1931 23.0625L16.3116 23.3437C16.4048 23.3437 17.0573 23.25 17.0573 23.25L15.2863 22.7812L15.1931 23.0625ZM15.8456 22.7812C17.3369 22.9688 17.6166 23.25 17.6166 23.25C17.6166 23.25 18.1758 23.1562 18.4554 23.1562C17.9894 22.7812 15.9388 22.125 15.9388 22.125C15.9388 22.125 15.8456 22.4062 15.8456 22.7812ZM18.0826 25.6875C17.803 25.875 17.5233 26.4375 17.6166 26.9062C17.7098 27.375 17.803 27.375 18.0826 27.375C17.6166 27.1875 17.7098 26.4375 18.0826 25.9687C18.3622 25.5937 18.6419 25.875 18.6419 25.875C18.6419 25.875 18.3622 25.5 18.0826 25.6875ZM11.4648 39.5625C10.253 39.5625 8.85491 40.0312 9.69379 41.3437C16.5913 53.25 23.8616 56.0625 26.9375 57.5625C28.3356 56.9062 30.5726 55.875 33.2757 54C34.8602 52.9687 34.6738 51.375 34.301 50.3438C32.3436 45.4688 21.6245 39.9375 11.4648 39.5625ZM50.3329 17.3437C47.5367 15.375 40.6392 11.8125 26.9375 11.8125C22.1838 11.8125 18.1758 12.2812 15.0067 12.9375C15.7524 14.1562 16.1252 15.5625 16.1252 17.0625C16.1252 19.125 15.3795 21 14.1678 22.4062C14.4475 22.5 14.8203 22.5937 15.2863 22.6875L15.4728 22.2187C15.4728 22.2187 15.6592 22.2188 15.7524 22.3125C15.7524 21.8438 16.032 21.8438 16.032 21.8438C16.032 21.8438 16.032 21.75 16.1252 21.75C16.5913 21.8437 17.8962 22.5 18.4554 22.7812C19.0147 23.0625 19.0147 23.1562 19.0147 23.1562C19.0147 23.1562 20.3196 23.1562 20.6925 23.0625C21.0653 23.0625 21.7178 22.7812 22.6498 22.5C23.5819 22.2187 23.7684 22.125 23.9548 22.125C24.1412 22.125 25.819 22.2187 27.3103 22.4062C28.8016 22.5937 30.1998 23.1562 30.4794 23.3437L30.9455 23.4375L31.0387 23.1562L30.293 22.875C30.293 22.875 30.3862 22.4062 30.3862 22.3125C30.3862 22.2188 30.4794 22.125 30.5726 22.125C30.6658 22.125 31.5047 22.3125 31.7843 22.4062C32.064 22.5 32.996 23.1562 33.0893 23.1562C33.1825 23.1562 33.1825 23.25 33.1825 23.25C33.1825 23.4375 32.9961 23.8125 32.9961 23.8125L32.7164 23.7188L32.9961 23.8125C32.9961 23.8125 33.2757 23.9062 33.3689 24C33.4621 24.0937 33.7417 24.2812 34.0213 24.5625C34.301 24.75 34.2078 25.0312 34.2078 25.0312L34.8602 25.6875V25.9687L36.4448 27.5625V27.6562L35.6991 28.125C35.6991 28.125 36.7244 28.0312 37.4701 28.4062C38.2158 28.7812 38.309 28.9687 38.309 29.1562C38.1226 29.25 37.8429 29.3438 37.8429 29.3438C37.2837 29.5312 35.8855 30.4687 35.8855 30.4687V30.5625L36.6312 30.75C37.4701 30 38.9614 29.7187 40.0799 29.9062C43.9015 30.6562 46.5114 33.1875 47.0706 35.3437C47.0706 35.4375 47.1638 35.625 47.1638 35.7187C50.9854 26.7187 50.6126 20.25 50.3329 17.3437ZM36.9108 31.0312C37.004 31.125 37.0972 31.125 37.1905 31.2188C37.7497 31.5938 38.0293 31.7812 38.1226 32.625C38.2158 33.2812 38.0293 34.2187 37.5633 35.0625C40.1731 36.8437 43.8083 35.4375 45.2064 36.8438C44.9268 33.2812 39.7071 29.7187 36.9108 31.0312ZM15.4728 26.4375L15.2863 26.5312V27.2812L15.4728 27.1875V26.4375ZM42.4102 38.0625C40.4528 38.0625 38.4954 37.4062 37.0973 35.7187V35.8125C36.2584 36.9375 35.3263 36.9375 34.9534 36.9375C34.5806 36.9375 33.3689 36.375 32.9028 35.8125C32.4368 35.25 32.4368 34.2187 32.4368 34.2187L30.5726 33.5625L28.2424 32.25L27.8696 32.1562C27.1239 32.5312 26.1918 32.25 25.3529 31.5937C25.2597 31.9687 24.7937 32.9062 24.2344 33.375C23.6751 33.8437 22.5566 34.5 21.7178 34.5C20.8789 34.5 19.0147 33.5625 18.4554 32.25C17.8962 30.9375 18.4554 29.5312 18.4554 29.5312L17.5233 29.3438L17.1505 28.875C17.1505 28.875 16.032 29.8125 14.8203 29.4375C13.6086 29.0625 12.5833 28.0312 12.3036 27.0937C12.1172 26.1562 12.3969 25.3125 12.4901 25.2187C12.3036 24.5625 12.3036 24.1875 12.3036 24.1875H12.2104V23.9062C10.9987 24.75 9.60058 25.125 8.10924 25.125C6.43147 25.125 4.84692 24.5625 3.54199 23.7188C3.72841 25.7812 4.28766 28.2187 5.03334 30.9375C6.05864 34.6875 9.41416 35.9062 14.4474 36.75C25.5393 38.5312 36.1652 47.0625 35.4195 52.3125C38.2158 49.9688 41.1984 46.5 44.1811 41.3437C45.3929 39.375 44.2743 38.0625 42.4102 38.0625ZM12.7697 25.125L12.6765 26.1562H13.3289V26.0625H13.2357V25.9687H13.1425L13.2357 25.7812L13.3289 25.3125L13.2357 25.2187V25.0312L13.3289 24.9375L13.4222 23.8125L12.9561 23.5312C13.1425 22.7812 13.6086 22.125 13.6086 22.125H13.3289C12.8629 22.6875 12.6765 23.4375 12.6765 23.4375C12.6765 23.4375 12.5833 24.6562 12.5833 24.8437C12.5833 25.125 12.7697 25.125 12.7697 25.125ZM23.0227 31.4062L23.4887 32.9062C24.4208 32.25 24.6072 31.2188 24.6072 31.2188L23.1159 31.3125L23.0227 31.4062ZM23.8616 29.0625L23.1159 30.375L23.2091 30.4687L24.7004 30.5625C24.7004 29.5312 23.8616 29.0625 23.8616 29.0625ZM14.5407 26.1562L14.4474 26.7187H14.5407V26.1562ZM21.6245 29.7187L22.3702 30.2812L22.5566 30.1875L23.3955 28.875C22.3702 28.7812 21.6245 29.7187 21.6245 29.7187ZM14.7271 26.25L14.6339 26.1562V26.8125H14.7271V26.25ZM15.0067 26.4375L14.9135 27.0937H15.0067V26.4375ZM15.1931 26.5312L15.0999 27.1875H15.1931V26.5312ZM14.8203 26.3437L14.7271 27H14.8203V26.3437Z" fill="white"/>
<path d="M105.419 33.6562H99.9202V17.0625H105.419V22.5938L108.775 17.0625H114.927L109.427 25.4063L114.927 33.75H108.775L105.419 28.2188V33.6562ZM136.924 21.375H140V17.0625H128.349V21.375H131.425V33.6562H136.924V21.375ZM127.137 29.3438H120.985V27.4688H125.832V23.25H120.985V21.375H127.137V17.0625H115.486V33.6562H127.137V29.3438ZM66.1785 47.25H60.0267V34.875H54.5273V51.4687H66.1785V47.25ZM79.0413 47.25H72.8895V45.375H77.7364V41.0625H72.8895V39.1875H79.0413V34.875H67.3902V51.4687H79.0413V47.25ZM140 47.25H133.848V45.375H138.695V41.0625H133.848V39.1875H140V34.875H128.349V51.4687H140V47.25ZM86.4048 25.4063C86.4048 30.1875 82.5833 34.0312 77.8296 34.0312C73.0759 34.0312 69.2544 30.1875 69.2544 25.4063C69.2544 20.625 73.0759 16.7813 77.8296 16.7813C82.5833 16.7813 86.4048 20.625 86.4048 25.4063ZM80.9055 25.4063C80.9055 23.7188 79.5074 22.3125 77.8296 22.3125C76.1518 22.3125 74.7537 23.7188 74.7537 25.4063C74.7537 27.0938 76.1518 28.5 77.8296 28.5C79.5074 28.5 80.9055 27.0938 80.9055 25.4063ZM121.638 44.4375C121.638 45.4687 120.799 46.3125 119.774 46.3125C118.748 46.3125 117.91 45.4687 117.91 44.4375V34.875H112.41V44.4375C112.41 48.4687 115.672 51.8437 119.774 51.8437C123.782 51.8437 127.137 48.5625 127.137 44.4375V34.875H121.638V44.4375ZM98.7084 27.1875C98.1492 27.9375 96.6578 28.4063 95.6325 28.4063C93.9548 28.4063 92.5566 27 92.5566 25.3125C92.5566 23.625 93.9548 22.2187 95.6325 22.2187C96.6578 22.2187 98.1492 22.6875 98.7084 23.4375V17.0625C97.9628 16.875 96.4714 16.6875 95.6325 16.6875C90.8789 16.6875 87.0573 20.5312 87.0573 25.3125C87.0573 30.0937 90.8789 33.9375 95.6325 33.9375C96.4714 33.9375 97.8696 33.8438 98.7084 33.5625V27.1875ZM68.6019 22.3125C68.6019 24.6563 67.3902 26.7188 65.3396 27.0938L69.534 33.6562H63.3822L60.0267 28.125V33.6562H54.5273V17.0625H63.1026C66.1785 17.0625 68.6019 19.2188 68.6019 22.3125ZM63.1026 23.25C63.1026 22.2188 62.2637 21.375 61.2384 21.375H60.0267V25.0312H61.2384C62.2637 25.0312 63.1026 24.2813 63.1026 23.25ZM90.04 49.0312H85.7524L85.1931 51.4687H79.6938L85.1931 34.875H90.6925L96.1918 51.4687H90.6925L90.04 49.0312ZM89.0147 44.7187L87.8962 40.0312L86.7777 44.7187H89.0147ZM111.385 41.7187H103.462V45.75H105.979C105.699 46.3125 105.14 47.25 103.462 47.25C101.598 47.25 100.107 45.6562 100.107 43.5937C100.107 41.3437 101.784 40.0312 103.462 39.9375C105.326 39.8438 106.072 40.5937 106.631 41.1562L110.453 37.5C108.589 35.625 106.445 34.6875 103.462 34.6875C98.7084 34.6875 94.8869 38.5312 94.8869 43.3125C94.8869 48.0937 98.7084 51.9375 103.462 51.9375C108.402 51.9375 111.385 48.375 111.385 43.9687V41.7187Z" fill="white"/>
<path d="M52.5699 17.1562L52.4767 16.125L51.5446 15.4687C47.6298 12.75 40.1731 9.5625 26.8442 9.5625C21.8109 9.5625 17.2437 10.0312 13.2357 10.9687C11.8376 9.75 9.97337 9 8.01598 9C3.63516 9 0 12.5625 0 17.0625C0 18.4687 0.372842 19.7812 1.02531 21C1.21172 27.9375 3.35553 35.1562 7.54994 42.4688C14.4474 54.1875 21.8109 57.6562 25.3529 59.25C25.6325 59.3438 25.8189 59.4375 26.0053 59.5312L26.9374 60L27.8695 59.5312C28.0559 59.4375 28.3356 59.3438 28.522 59.25C32.1571 57.6562 39.4274 54.1875 46.1385 42.4688C53.502 29.625 52.8495 20.25 52.5699 17.1562Z" fill="white"/>
<path d="M24.7937 27.2812C24.7937 27.2812 26.0054 27.375 27.0307 28.6875L26.4714 28.7812L26.1918 28.6875C26.1918 28.6875 25.3529 27.6562 24.7937 27.2812ZM22.9295 33.0938L22.3702 31.6875H22.1838L21.2517 32.8125C21.9042 33.375 22.9295 33.0938 22.9295 33.0938ZM31.5047 24.8437L31.0387 25.0312L31.5979 26.0625L33.4621 26.7187C32.7164 25.125 31.5047 24.8437 31.5047 24.8437ZM26.1918 26.8125C26.7511 27.4687 27.3103 28.4062 27.3103 28.4062C28.2424 27.4688 30.1998 27.0937 32.7164 27.1875C29.1745 26.4375 26.1918 26.8125 26.1918 26.8125ZM22.7431 25.4062C22.7431 25.4062 23.7684 25.4062 25.1665 25.6875C24.2344 25.0312 22.7431 24.6562 22.7431 24.6562V25.4062ZM31.3183 30.5625L29.7337 31.9687L30.9455 32.3437L32.1572 31.0312L31.5047 30.75L31.3183 30.5625ZM20.7857 23.1562C20.7857 23.1562 21.4381 23.5312 21.5313 23.5312C21.6246 23.5312 22.9295 24 23.4887 24.1875C23.9548 24.375 24.2344 24.1875 24.3276 24.1875C24.4208 24.1875 26.0054 23.25 26.0054 23.25C24.6072 22.6875 23.3023 22.3125 23.3023 22.3125C23.2091 22.3125 20.7857 23.1562 20.7857 23.1562ZM30.293 24C30.1998 23.8125 30.0134 23.8125 28.8949 23.625C27.8696 23.5312 26.9375 23.4375 26.751 23.4375C26.5646 23.4375 26.4714 23.5312 26.4714 23.5312C26.4714 23.5312 25.9122 23.9062 25.4461 24.1875C24.9801 24.4688 24.8869 24.5625 24.7937 24.75C24.7005 24.8437 24.9801 25.2187 24.9801 25.2187L25.7257 26.1562C25.819 26.1562 26.0986 26.3437 26.0986 26.3437C26.0986 26.3437 27.5899 26.25 28.522 26.1562H30.9455C31.0387 26.1562 30.9455 25.7812 30.759 25.3125C30.5726 24.9375 30.293 24 30.293 24ZM21.4381 25.0312C21.4381 25.0312 21.5313 25.0312 21.7178 25.125C21.9042 25.125 21.9974 24.9375 21.9974 24.75C21.9974 24.4687 21.7178 24.375 21.7178 24.375H21.5313L21.2517 24.4687L21.1585 25.125H21.2517L21.4381 25.0312C21.3449 24.8437 21.3449 24.75 21.3449 24.5625C21.3449 24.4687 21.5313 24.2812 21.6246 24.2812C21.6246 24.2812 21.811 24.2812 21.7178 24.6562C21.7178 25.0312 21.4381 25.0312 21.4381 25.0312ZM37.1905 32.4375L36.4448 33.4687V33.5625H37.4701C37.6565 32.9062 37.1905 32.4375 37.1905 32.4375ZM18.5486 27.5625H18.3622L17.8962 27.4688C17.4301 27.375 17.6166 26.5312 17.6166 26.5312L17.0573 26.7187C16.8709 26.3437 16.032 25.3125 16.032 25.3125L15.8456 26.0625C15.9388 26.1562 16.4048 26.9062 16.4981 27.0937L16.2184 27.375C16.2184 27.375 16.1252 27.5625 16.1252 27.6562C16.1252 27.75 16.032 27.8437 16.032 27.8437L15.6592 28.0312H15.566L14.261 27V27.75H14.3542C14.4475 27.9375 14.6339 28.3125 15.0999 28.5C15.4728 28.6875 15.9388 28.6875 16.1252 28.5937C16.3116 28.6875 16.4048 28.6875 16.4981 28.7812C16.8709 28.9687 16.9641 28.875 16.9641 28.875L17.5234 28.6875H17.6166L17.7098 28.5937L17.8962 28.2187C17.8962 28.2187 18.8283 28.3125 19.2011 28.3125C19.574 27.75 20.7857 26.9062 21.6246 26.8125C22.4634 26.8125 23.8616 27 24.9801 28.125C26.0054 29.25 25.7257 30.75 25.7257 30.75L27.7763 31.4062L26.8443 30.75C26.0986 28.875 24.3276 27.1875 24.3276 27.1875C24.3276 27.1875 23.8616 27.0937 23.5819 27.0937C23.3023 27 23.1159 26.8125 23.1159 26.8125C23.1159 26.8125 23.0227 26.7187 22.8363 26.4375L22.6498 26.0625C22.6498 26.0625 22.4634 25.875 22.1838 25.6875C21.9042 25.5 20.8789 25.4062 20.3196 25.3125C19.7604 25.2187 19.7604 25.3125 19.7604 25.3125C21.3449 25.6875 21.811 25.7812 21.9042 25.875C21.9042 25.875 21.9974 26.0625 22.0906 26.1562C20.7857 25.875 19.574 26.0625 19.2943 26.1562C19.4807 26.4375 19.4807 26.8125 19.2943 27.0937C19.1079 27.2812 18.5486 27.5625 18.5486 27.5625ZM36.2584 34.3125L36.538 35.5312C36.538 35.5312 36.8176 35.25 37.0973 34.875C37.3769 34.5 37.4701 34.125 37.4701 34.125L36.3516 34.2187L36.2584 34.3125ZM13.795 25.7812L13.7018 26.8125H14.261L14.3542 26.1562V26.5312H14.4474V25.9687H14.3542V25.5938L15.1931 26.0625L15.2863 26.25L15.4728 26.4375H15.6592L15.7524 26.3437V26.25C15.1931 26.25 15.1931 25.9687 15.1931 25.9687C15.1931 25.9687 15.2863 25.3125 15.3795 25.125C15.4727 24.9375 15.8456 25.0312 15.8456 25.0312L15.7524 24.9375H15.566C15.3795 24.8437 14.8203 24.4687 14.6339 24.375V24.2812L14.7271 24.1875V23.8125H14.8203C14.8203 23.7187 14.9135 23.7187 14.9135 23.625C15.0999 23.625 16.4981 23.3437 16.4981 23.3437L15.1931 23.0625V22.9687C14.8203 22.875 14.5407 22.7812 14.3542 22.6875C13.8882 23.25 13.7018 24 13.7018 24C13.7018 24 13.6086 25.3125 13.6086 25.5C13.5154 25.6875 13.795 25.7812 13.795 25.7812ZM35.6991 33.1875L35.8855 33.4687L35.9787 33.375L36.7244 32.4375V32.3437C36.3516 32.3437 35.6991 33.1875 35.6991 33.1875ZM33.4621 31.5L32.9028 31.3125L31.5979 32.8125L32.53 33.0938C32.7164 32.3438 33.4621 31.5 33.4621 31.5ZM35.4195 33.6562C34.9534 34.5937 35.0467 35.25 35.0467 35.25L35.5127 34.2187V34.0312C35.6059 34.0312 35.5127 33.8437 35.4195 33.6562ZM34.9534 27.5625C34.9534 27.5625 34.767 27.9375 34.6738 28.0312C34.5806 28.125 33.9281 28.2187 33.5553 28.3125C33.1825 28.5 32.53 28.7812 32.3436 28.9687C32.2504 29.0625 32.2504 29.3437 32.2504 29.4375C32.2504 29.4375 32.4368 29.5312 32.53 29.5312L31.6911 30.2812L31.8775 30.4687L33.9281 31.125C34.3942 30.75 35.0467 30.6562 35.0467 30.6562C34.6738 30.4687 33.0893 29.8125 32.6232 29.625C32.6232 29.625 32.3436 29.5312 32.3436 29.4375V29.1562C32.3436 29.1562 33.5553 28.2187 35.4195 28.2187L35.6991 27.6562L34.9534 27.5625ZM36.1652 35.8125L35.7923 34.6875H35.6991L35.1399 35.7187L35.2331 35.8125C35.6991 36 36.1652 35.8125 36.1652 35.8125ZM22.0906 25.125L22.3702 25.2187C22.3702 25.2187 22.5566 25.2187 22.5566 25.0312V24.6562L22.277 24.4687L21.9042 24.375C21.9974 24.4687 21.9974 24.5625 21.9974 24.5625H22.0906C22.0906 24.4687 22.1838 24.4687 22.1838 24.5625C22.1838 24.5625 22.3702 24.6562 22.277 24.9375C22.3702 25.0312 22.1838 25.125 22.0906 25.125ZM21.2517 30.2812C20.5992 31.5 21.0653 32.3437 21.0653 32.3437L21.9042 31.125V30.9375L21.2517 30.2812ZM15.1931 23.0625L16.3116 23.3437C16.4048 23.3437 17.0573 23.25 17.0573 23.25L15.2863 22.7812L15.1931 23.0625ZM15.8456 22.7812C17.3369 22.9688 17.6166 23.25 17.6166 23.25C17.6166 23.25 18.1758 23.1562 18.4554 23.1562C17.9894 22.7812 15.9388 22.125 15.9388 22.125C15.9388 22.125 15.8456 22.4062 15.8456 22.7812ZM18.0826 25.6875C17.803 25.875 17.5233 26.4375 17.6166 26.9062C17.7098 27.375 17.803 27.375 18.0826 27.375C17.6166 27.1875 17.7098 26.4375 18.0826 25.9687C18.3622 25.5937 18.6419 25.875 18.6419 25.875C18.6419 25.875 18.3622 25.5 18.0826 25.6875ZM11.4648 39.5625C10.253 39.5625 8.85491 40.0312 9.69379 41.3437C16.5913 53.25 23.8616 56.0625 26.9375 57.5625C28.3356 56.9062 30.5726 55.875 33.2757 54C34.8602 52.9687 34.6738 51.375 34.301 50.3438C32.3436 45.4688 21.6245 39.9375 11.4648 39.5625ZM50.3329 17.3437C47.5367 15.375 40.6392 11.8125 26.9375 11.8125C22.1838 11.8125 18.1758 12.2812 15.0067 12.9375C15.7524 14.1562 16.1252 15.5625 16.1252 17.0625C16.1252 19.125 15.3795 21 14.1678 22.4062C14.4475 22.5 14.8203 22.5937 15.2863 22.6875L15.4728 22.2187C15.4728 22.2187 15.6592 22.2188 15.7524 22.3125C15.7524 21.8438 16.032 21.8438 16.032 21.8438C16.032 21.8438 16.032 21.75 16.1252 21.75C16.5913 21.8437 17.8962 22.5 18.4554 22.7812C19.0147 23.0625 19.0147 23.1562 19.0147 23.1562C19.0147 23.1562 20.3196 23.1562 20.6925 23.0625C21.0653 23.0625 21.7178 22.7812 22.6498 22.5C23.5819 22.2187 23.7684 22.125 23.9548 22.125C24.1412 22.125 25.819 22.2187 27.3103 22.4062C28.8016 22.5937 30.1998 23.1562 30.4794 23.3437L30.9455 23.4375L31.0387 23.1562L30.293 22.875C30.293 22.875 30.3862 22.4062 30.3862 22.3125C30.3862 22.2188 30.4794 22.125 30.5726 22.125C30.6658 22.125 31.5047 22.3125 31.7843 22.4062C32.064 22.5 32.9961 23.1562 33.0893 23.1562C33.1825 23.1562 33.1825 23.25 33.1825 23.25C33.1825 23.4375 32.9961 23.8125 32.9961 23.8125L32.7164 23.7188L32.9961 23.8125C32.9961 23.8125 33.2757 23.9062 33.3689 24C33.4621 24.0937 33.7417 24.2812 34.0214 24.5625C34.301 24.75 34.2078 25.0312 34.2078 25.0312L34.8602 25.6875V25.9687L36.4448 27.5625V27.6562L35.6991 28.125C35.6991 28.125 36.7244 28.0312 37.4701 28.4062C38.2158 28.7812 38.309 28.9687 38.309 29.1562C38.1226 29.25 37.8429 29.3438 37.8429 29.3438C37.2837 29.5312 35.8855 30.4687 35.8855 30.4687V30.5625L36.6312 30.75C37.4701 30 38.9614 29.7187 40.0799 29.9062C43.9015 30.6562 46.5114 33.1875 47.0706 35.3437C47.0706 35.4375 47.1638 35.625 47.1638 35.7187C50.9854 26.7187 50.6126 20.25 50.3329 17.3437ZM36.9108 31.0312C37.004 31.125 37.0973 31.125 37.1905 31.2188C37.7497 31.5938 38.0293 31.7812 38.1226 32.625C38.2158 33.2812 38.0293 34.2187 37.5633 35.0625C40.1732 36.8437 43.8083 35.4375 45.2064 36.8438C44.9268 33.2812 39.7071 29.7187 36.9108 31.0312ZM15.4728 26.4375L15.2863 26.5312V27.2812L15.4728 27.1875V26.4375ZM42.4102 38.0625C40.4528 38.0625 38.4954 37.4062 37.0973 35.7187V35.8125C36.2584 36.9375 35.3263 36.9375 34.9534 36.9375C34.5806 36.9375 33.3689 36.375 32.9028 35.8125C32.4368 35.25 32.4368 34.2187 32.4368 34.2187L30.5726 33.5625L28.2424 32.25L27.8696 32.1562C27.1239 32.5312 26.1918 32.25 25.3529 31.5937C25.2597 31.9687 24.7937 32.9062 24.2344 33.375C23.6751 33.8437 22.5566 34.5 21.7178 34.5C20.8789 34.5 19.0147 33.5625 18.4554 32.25C17.8962 30.9375 18.4554 29.5312 18.4554 29.5312L17.5234 29.3438L17.1505 28.875C17.1505 28.875 16.032 29.8125 14.8203 29.4375C13.6086 29.0625 12.5833 28.0312 12.3036 27.0937C12.1172 26.1562 12.3969 25.3125 12.4901 25.2187C12.3036 24.5625 12.3036 24.1875 12.3036 24.1875H12.2104V23.9062C10.9987 24.75 9.60058 25.125 8.10924 25.125C6.43147 25.125 4.84692 24.5625 3.54199 23.7188C3.72841 25.7812 4.28766 28.2187 5.03334 30.9375C6.05864 34.6875 9.41416 35.9062 14.4474 36.75C25.5393 38.5312 36.1652 47.0625 35.4195 52.3125C38.2158 49.9688 41.1985 46.5 44.1811 41.3437C45.3929 39.375 44.2743 38.0625 42.4102 38.0625ZM12.7697 25.125L12.6765 26.1562H13.3289V26.0625H13.2357V25.9687H13.1425L13.2357 25.7812L13.3289 25.3125L13.2357 25.2187V25.0312L13.3289 24.9375L13.4222 23.8125L12.9561 23.5312C13.1425 22.7812 13.6086 22.125 13.6086 22.125H13.3289C12.8629 22.6875 12.6765 23.4375 12.6765 23.4375C12.6765 23.4375 12.5833 24.6562 12.5833 24.8437C12.5833 25.125 12.7697 25.125 12.7697 25.125ZM23.0227 31.4062L23.4887 32.9062C24.4208 32.25 24.6072 31.2188 24.6072 31.2188L23.1159 31.3125L23.0227 31.4062ZM23.8616 29.0625L23.1159 30.375L23.2091 30.4687L24.7004 30.5625C24.7004 29.5312 23.8616 29.0625 23.8616 29.0625ZM14.5407 26.1562L14.4474 26.7187H14.5407V26.1562ZM21.6246 29.7187L22.3702 30.2812L22.5566 30.1875L23.3955 28.875C22.3702 28.7812 21.6246 29.7187 21.6246 29.7187ZM14.7271 26.25L14.6339 26.1562V26.8125H14.7271V26.25ZM15.0067 26.4375L14.9135 27.0937H15.0067V26.4375ZM15.1931 26.5312L15.0999 27.1875H15.1931V26.5312ZM14.8203 26.3437L14.7271 27H14.8203V26.3437Z" fill="url(#paint0_radial)"/>
<path opacity="0.4" d="M50.333 17.3438C50.6126 20.8125 51.0786 29.3438 44.1812 41.3438C37.3769 53.25 30.0134 56.0625 26.9375 57.5625V55.7812C32.6233 52.6875 37.5633 47.7187 41.4781 39.8437C46.0454 30.75 46.6046 23.3438 46.2318 19.5938L50.333 17.3438Z" fill="black"/>
<path opacity="0.4" d="M50.3328 17.3437C47.5365 15.375 40.6391 11.8125 26.9373 11.8125C22.1837 11.8125 18.1757 12.2812 15.0066 12.9375C15.6591 13.9687 16.0319 15.1875 16.1251 16.5C19.667 15.8438 23.4886 15.4688 27.5898 15.5625C36.3515 15.6562 43.4354 17.625 46.3248 19.5937L50.3328 17.3437Z" fill="url(#paint1_linear)"/>
<path d="M8.10929 22.875C11.3009 22.875 13.8882 20.2727 13.8882 17.0625C13.8882 13.8523 11.3009 11.25 8.10929 11.25C4.91766 11.25 2.33032 13.8523 2.33032 17.0625C2.33032 20.2727 4.91766 22.875 8.10929 22.875Z" fill="url(#paint2_radial)"/>
</g>
<defs>
<radialGradient id="paint0_radial" cx="0" cy="0" r="1" gradientUnits="userSpaceOnUse" gradientTransform="translate(7.94798 16.9106) scale(44.5316 44.79)">
<stop stop-color="#00AEFF"/>
<stop offset="0.131" stop-color="#00A5F7"/>
<stop offset="0.345" stop-color="#008DE0"/>
<stop offset="0.616" stop-color="#0065BA"/>
<stop offset="0.928" stop-color="#002F87"/>
<stop offset="1" stop-color="#00217A"/>
</radialGradient>
<linearGradient id="paint1_linear" x1="15.0066" y1="15.7031" x2="50.3915" y2="15.7031" gradientUnits="userSpaceOnUse">
<stop stop-color="white"/>
<stop offset="1" stop-color="white" stop-opacity="0"/>
</linearGradient>
<radialGradient id="paint2_radial" cx="0" cy="0" r="1" gradientUnits="userSpaceOnUse" gradientTransform="translate(6.55176 14.7197) scale(7.7233 7.76812)">
<stop stop-color="white"/>
<stop offset="0.679" stop-color="#7A7A7A"/>
<stop offset="1" stop-color="#404040"/>
</radialGradient>
<clipPath id="clip0">
<rect width="140" height="70" fill="white"/>
</clipPath>
</defs>
</svg>
