<svg width="140" height="70" viewBox="0 0 140 70" fill="none" xmlns="http://www.w3.org/2000/svg">
<path d="M122.898 37.4588L122.56 38.3344L122.225 37.4588H121.882V38.6941H122.105V37.7305L122.473 38.6941H122.64L123.008 37.7305V38.6941H123.255V37.4588H122.898ZM120.631 37.4588V37.6537H121.009V38.6941H121.248V37.6537H121.624V37.4588H120.631ZM39.9192 37.4615H36.0349L36.8584 39.4517L30.1028 54.5168H34.6624L35.2553 53.0701L41.8435 51.8184L43.0047 54.5168H47.5616L39.9192 37.4615ZM36.9271 49.0211H36.9051L38.7333 44.5603L40.3804 48.365L36.9271 49.0211ZM65.4184 16.4423V33.4976H61.0565V24.8176L57.2353 29.3552H56.9169L53.1176 24.8176V33.4976H48.7255V16.4423H51.2867L57.098 23.7772L63.0384 16.4423H65.4184ZM138.627 16.4423L136.838 20.4364H131.298V36.6599L126.824 37.4588V20.4392H121.075L121.882 22.4321V33.4976H117.416V26.4729L111.668 27.5709V33.4976H107.21V16.4423H111.668V23.6646L117.416 22.5666V16.4423H138.627ZM79.1384 37.4588V41.4556H74.0518V54.5168H69.5718V41.4556H65.3086L63.5161 37.4588H79.1384ZM71.971 20.4392V23.1239H78.6827L76.9341 27.0246H71.971V33.4976H67.5294V16.4423H79.1329V20.4392H71.971ZM39.9988 16.4423H36.1145L36.938 18.4352L30.1741 33.4976H34.7365L35.3294 32.0399L41.9176 30.7882L43.098 33.4976H47.6549L39.9988 16.4423ZM37.0094 28.0019H36.9875L38.8157 23.5439L40.449 27.3458L37.0094 28.0019ZM22.5098 20.4392V23.1239H29.2243L27.451 27.0246H22.5098V29.4952H29.68L27.8737 33.4976H18.06V22.2235L18.8616 20.4392H13.1765V37.4588L8.69648 36.6352V20.4392H3.16511L1.37256 16.4423H29.6663V20.4392H22.5098ZM104.896 25.3501V33.4976L101.099 32.8305C99.6773 33.6376 98.258 33.9615 96.2898 33.9615C91.28 33.9615 87.7278 30.338 87.7278 25.1772C87.7278 20.0164 91.28 16.3929 96.2898 16.3929C100.578 16.3929 103.408 18.7345 104.44 22.3031H99.8419C99.463 21.7635 98.955 21.3273 98.3643 21.0343C97.7736 20.7413 97.1189 20.6009 96.46 20.6258C93.9537 20.6258 92.2765 22.4239 92.2765 25.1744C92.2765 27.925 93.9537 29.7203 96.46 29.7203C98.3074 29.7203 100.52 28.6223 100.52 25.3419H104.898L104.896 25.3501ZM63.829 48.4446C63.0604 52.2878 60.2055 54.816 55.5004 54.7831C50.4796 54.7474 46.9247 51.1541 46.9247 45.9988C46.9247 40.8435 50.4796 37.2145 55.5004 37.2145C59.8349 37.2145 62.6843 39.6027 63.6945 43.2317H59.1212C58.3992 42.109 57.1859 41.4529 55.6706 41.4529C53.1588 41.4529 51.4788 43.2564 51.4788 46.0097C51.4788 48.7631 53.1588 50.5666 55.6706 50.5666C57.3451 50.5666 58.6408 49.7705 59.3243 48.4666L63.829 48.4446ZM33.6824 37.4588L31.8926 41.4556H27.6267V54.5168H23.1467V41.4556H18.06V37.4588H33.6824ZM114.169 44.0141C119.11 45.2493 121.391 46.158 121.391 49.3286C121.391 52.4992 119.255 54.7831 113.801 54.7831C108.294 54.7831 106.175 51.9501 106.175 48.4446H110.49C110.49 50.1109 111.588 51.0937 113.801 51.0937C115.5 51.0937 116.713 50.4815 116.713 49.5839C116.713 48.7603 115.355 48.3843 113.419 47.8627C108.772 46.6164 106.653 45.5101 106.653 42.3725C106.653 39.8662 108.324 37.1843 113.809 37.1843C119.294 37.1843 120.853 39.8662 120.853 42.765H116.557C116.557 41.6917 115.912 40.8435 113.812 40.8435C111.712 40.8435 111.259 41.6395 111.259 42.3066C111.259 43.1576 112.255 43.5199 114.18 44.0003L114.169 44.0141ZM104.635 48.4446C103.866 52.2878 101.009 54.816 96.3063 54.7831C91.2855 54.7474 87.7278 51.1541 87.7278 45.9988C87.7278 40.8435 91.2965 37.2145 96.3063 37.2145C100.641 37.2145 103.487 39.6027 104.5 43.2317H99.9216C99.1969 42.109 98 41.4529 96.4682 41.4529C93.9592 41.4529 92.2792 43.2564 92.2792 46.0097C92.2792 48.7631 93.9592 50.5666 96.4682 50.5666C98.1427 50.5666 99.4412 49.7705 100.122 48.4666L104.635 48.4446ZM81.2549 16.4423H85.7129V33.4976H81.2549V16.4423ZM81.2549 37.4615H85.7129V54.5168H81.2549V37.4615Z" fill="white"/>
</svg>
