<svg width="140" height="70" viewBox="0 0 140 70" fill="none" xmlns="http://www.w3.org/2000/svg">
<path d="M54.4679 25H55.157C58.9214 25.1322 62.4691 27.5594 63.945 31.0248C65.3038 34.0913 64.983 37.8319 63.0933 40.608C61.496 43.0375 58.7914 44.6975 55.8982 45.0118C53.057 45.3563 50.0967 44.4028 47.9923 42.4632C45.8988 40.5864 44.67 37.7885 44.7112 34.9755C44.7047 32.065 46.0635 29.1978 48.3044 27.3471C50.0143 25.8907 52.2292 25.0824 54.4679 25ZM53.2044 28.604C50.5171 29.2498 48.4778 31.7854 48.3174 34.5291C48.0833 37.1276 49.5245 39.7889 51.8586 40.9678C54.0431 42.1294 56.8864 41.8087 58.7741 40.2158C61.1731 38.2935 61.8883 34.6526 60.445 31.948C59.175 29.3452 56.0196 27.839 53.2044 28.604Z" fill="white"/>
<path d="M0 25.5895C1.07059 25.3771 2.17368 25.4833 3.25728 25.4985C3.57152 25.4486 3.58452 25.8647 3.59102 26.0728C3.59319 30.3443 3.58885 34.618 3.59102 38.8895C7.01517 34.6245 10.4241 30.3486 13.8353 26.0771C14.0693 25.7975 14.3424 25.4725 14.7455 25.492C16.0718 25.4508 17.4025 25.4725 18.731 25.5028C18.4406 26.1876 17.9161 26.7207 17.4632 27.2951C13.0031 32.8777 8.5387 38.4582 4.0808 44.043C3.85975 44.2879 3.61919 44.6022 3.24861 44.5848C2.16718 44.6455 1.08142 44.6108 0 44.561V25.5895Z" fill="white"/>
<path d="M23.555 26.892C24.0188 26.2981 24.5237 25.5721 25.3472 25.5071C26.2661 25.4551 27.1915 25.4464 28.1104 25.5071C28.403 25.6632 28.2924 26.0272 28.325 26.2916C28.3141 31.6402 28.3228 36.9889 28.3206 42.3396C28.312 43.0873 28.3726 43.8415 28.2426 44.5827C27.2089 44.6108 26.1751 44.6238 25.1414 44.5957C24.7621 44.6282 24.4804 44.3443 24.2658 44.0755C22.6253 42.0232 20.9955 39.9666 19.342 37.9251C17.7144 39.9579 16.0869 41.9929 14.4658 44.03C14.2513 44.2749 14.0194 44.5913 13.6531 44.5848C12.3225 44.6368 10.9897 44.5978 9.65685 44.5957C9.62 44.2489 9.90174 44.0062 10.0816 43.7483C14.5807 38.1353 19.0668 32.5136 23.555 26.892ZM21.338 35.0362C22.4649 36.4514 23.5918 37.8644 24.7253 39.2752C24.7231 36.4557 24.7339 33.6384 24.7188 30.8189C23.581 32.2167 22.4692 33.6341 21.338 35.0362Z" fill="white"/>
<path d="M32.6293 26.3155C32.6748 26.0424 32.5144 25.5288 32.9349 25.4985C34.0271 25.5158 35.167 25.3272 36.2311 25.6177C36.2203 30.8102 36.2268 36.0028 36.2268 41.1954C38.9921 41.217 41.7575 41.152 44.5184 41.2322C44.1609 42.0731 43.4435 42.682 42.9277 43.4211C42.5008 43.8978 42.1519 44.6759 41.3955 44.6022C38.4893 44.5805 35.581 44.6672 32.6791 44.5567C32.5708 38.4777 32.6683 32.3944 32.6293 26.3155Z" fill="white"/>
<path d="M67.9976 26.5322C68.0301 26.1573 67.8502 25.4269 68.4527 25.4833C73.2335 25.4659 78.0164 25.4833 82.7973 25.4746C83.04 25.4573 83.4886 25.5071 83.4149 25.8647C83.4084 27.2885 83.5016 28.7276 83.3629 30.1427C81.913 32.195 80.2313 34.0892 78.6926 36.0786C80.7406 38.6381 82.7778 41.2062 84.8366 43.757C85.0251 44.0062 85.2548 44.2576 85.2679 44.5892C83.9372 44.6065 82.6065 44.6282 81.2759 44.5892C80.7861 44.5848 80.5304 44.1015 80.2443 43.7808C78.2288 41.1867 76.0898 38.6836 74.135 36.044C76.0183 33.6449 77.9449 31.2805 79.8347 28.8879C77.0889 28.8858 74.3431 28.8836 71.5972 28.8901C71.5669 34.1108 71.6536 39.3337 71.5539 44.5523C70.388 44.639 69.2133 44.6412 68.0474 44.5523C67.9412 38.5471 68.0409 32.5396 67.9976 26.5322Z" fill="white"/>
<path d="M88.2563 26.0663C88.2281 25.8279 88.3061 25.4291 88.6355 25.4898C89.6736 25.492 90.7269 25.4053 91.7563 25.5396C92.2742 25.8019 92.5516 26.361 92.9266 26.7814C97.4191 32.3988 101.903 38.0226 106.402 43.6334C106.614 43.926 106.929 44.1991 106.92 44.5935C105.6 44.6022 104.276 44.6303 102.956 44.5892C102.584 44.6087 102.336 44.2966 102.12 44.043C100.497 41.9994 98.8625 39.9622 97.2328 37.9229C95.5857 39.9622 93.9538 42.0189 92.3176 44.069C92.1009 44.3334 91.8256 44.6238 91.4507 44.5957C90.5058 44.6173 89.5566 44.6217 88.6117 44.5892C88.1956 44.6477 88.2736 44.1146 88.2541 43.8653C88.2606 37.9316 88.2541 31.9978 88.2563 26.0663ZM91.8473 30.8102C91.8408 33.6319 91.8451 36.4536 91.8451 39.2731C92.9829 37.8666 94.1098 36.4514 95.2389 35.0362C94.099 33.6341 92.9872 32.2102 91.8473 30.8102Z" fill="white"/>
<path d="M104.22 25.6285C104.733 25.3143 105.407 25.5418 105.984 25.4746C106.69 25.5505 107.616 25.2276 108.123 25.8864C111.599 30.2143 115.056 34.5595 118.528 38.8938C118.551 34.4814 118.478 30.0647 118.562 25.6567C118.621 25.6177 118.733 25.5396 118.792 25.5006C119.785 25.4551 120.786 25.4595 121.781 25.4963C122.229 25.4833 122.084 26.0338 122.123 26.3112C122.086 32.3923 122.179 38.4755 122.077 44.5523C121.048 44.6455 120.014 44.6065 118.983 44.6C118.593 44.6325 118.291 44.3725 118.075 44.0842C114.64 39.7867 111.213 35.4848 107.77 31.1938C107.744 33.853 107.815 36.5142 107.733 39.1712C107.44 39.091 107.226 38.8938 107.055 38.6576C106.201 37.5567 105.31 36.4839 104.452 35.3851C104.083 34.969 104.187 34.3882 104.168 33.879C104.211 31.1288 104.105 28.3743 104.22 25.6285Z" fill="white"/>
<path d="M124.65 25.6653C124.841 25.4161 125.196 25.505 125.469 25.4703C129.01 25.4789 132.552 25.4811 136.093 25.4703C136.634 25.5201 137.293 25.3337 137.748 25.7152C138.557 26.5864 139.255 27.5594 140 28.4848V28.8814C137.861 28.8944 135.722 28.8793 133.583 28.8901C133.561 34.1173 133.648 39.3446 133.557 44.5697C132.382 44.6195 131.204 44.6433 130.031 44.5545C129.968 39.3337 130.014 34.1108 129.988 28.8879C128.273 28.8554 126.555 28.9421 124.845 28.8533C124.795 28.8034 124.698 28.7059 124.65 28.656C124.576 27.6635 124.585 26.6579 124.65 25.6653Z" fill="white"/>
</svg>
