<svg width="50" height="50" viewBox="0 0 50 50" fill="none" xmlns="http://www.w3.org/2000/svg">
<path d="M49 24.6875C49 37.7586 38.2667 48.375 25 48.375C11.7333 48.375 1 37.7586 1 24.6875C1 11.6179 11.7334 1 25 1C38.2667 1 49 11.6164 49 24.6875Z" stroke="white" stroke-width="2"/>
<mask id="path-2-inside-1" fill="white">
<path fill-rule="evenodd" clip-rule="evenodd" d="M7.85857 6.69911C9.09108 5.56564 10.4351 4.55769 11.8704 3.69039C11.8755 3.68672 11.884 3.68851 11.8927 3.69035C11.9016 3.69221 11.9106 3.69413 11.9166 3.69039C17.2039 3.53445 22.0568 5.91323 25.0175 7.74231C27.969 5.9122 32.8027 3.53493 38.0687 3.69089C38.0739 3.6946 38.0829 3.69275 38.0918 3.69089C38.1007 3.68904 38.1096 3.68719 38.1149 3.69089C39.5453 4.55977 40.8852 5.56851 42.1149 6.70217C38.1625 7.45536 34.1967 10.9455 32.0241 13.8367C31.9194 14.0008 31.8174 14.1642 31.7178 14.3269C34.9929 18.2951 45.5875 31.1869 44.6054 40.0146C43.894 40.9175 43.1101 41.7656 42.2817 42.5634C42.4016 35.535 34.189 28.0134 27.7667 22.332C27.7662 22.3331 27.7656 22.3342 27.7651 22.3353L27.7267 22.3026C26.8529 21.5594 25.9643 20.8037 25.0048 20.0315C24.078 20.7815 23.1611 21.5436 22.2544 22.3175L22.2533 22.3152C15.8097 27.9911 7.56947 35.5073 7.69027 42.5284C6.85865 41.7328 6.07182 40.887 5.35815 39.9833C4.37287 31.1607 15.0039 18.2797 18.2891 14.3157C18.1895 14.1537 18.0875 13.991 17.9828 13.8276C15.8015 10.9389 11.8241 7.45166 7.85857 6.69911Z"/>
</mask>
<path d="M11.8704 3.69039L12.9047 5.40215L12.9672 5.36439L13.0268 5.32217L11.8704 3.69039ZM7.85857 6.69911L6.50474 5.22699L3.57448 7.9218L7.48568 8.66404L7.85857 6.69911ZM11.8927 3.69035L12.3059 1.7335L12.3059 1.7335L11.8927 3.69035ZM11.9166 3.69039L11.8577 1.69126L11.3199 1.70712L10.8626 1.99067L11.9166 3.69039ZM25.0175 7.74231L23.9664 9.4438L25.0194 10.0944L26.0715 9.44207L25.0175 7.74231ZM38.0687 3.69089L39.228 2.06115L38.734 1.70972L38.1279 1.69177L38.0687 3.69089ZM38.0918 3.69089L37.6854 1.73262L37.6852 1.73266L38.0918 3.69089ZM38.1149 3.69089L36.955 5.32024L37.0143 5.36246L37.0765 5.40025L38.1149 3.69089ZM42.1149 6.70217L42.4893 8.66681L46.3901 7.92345L43.4705 5.23174L42.1149 6.70217ZM32.0241 13.8367L30.4252 12.6352L30.3791 12.6966L30.3378 12.7614L32.0241 13.8367ZM31.7178 14.3269L30.012 13.2826L29.2671 14.4995L30.1753 15.6L31.7178 14.3269ZM44.6054 40.0146L46.1764 41.2523L46.5299 40.8035L46.5931 40.2357L44.6054 40.0146ZM42.2817 42.5634L40.282 42.5293L40.1998 47.3451L43.6691 44.004L42.2817 42.5634ZM27.7667 22.332L29.0919 20.834L27.1025 19.0741L25.9609 21.4723L27.7667 22.332ZM27.7651 22.3353L26.4693 23.8588L28.4521 25.5452L29.571 23.1949L27.7651 22.3353ZM27.7267 22.3026L29.0225 20.7792L29.0225 20.7791L27.7267 22.3026ZM25.0048 20.0315L26.2588 18.4734L25.0015 17.4615L23.7468 18.4768L25.0048 20.0315ZM22.2544 22.3175L20.4496 23.1792L21.5718 25.5297L23.5529 23.8387L22.2544 22.3175ZM22.2533 22.3152L24.0582 21.4535L22.9177 19.0647L20.9313 20.8144L22.2533 22.3152ZM7.69027 42.5284L6.30778 43.9736L9.77245 47.2878L9.68997 42.4939L7.69027 42.5284ZM5.35815 39.9833L3.37051 40.2053L3.43401 40.7739L3.78861 41.2229L5.35815 39.9833ZM18.2891 14.3157L19.829 15.5919L20.7432 14.4888L19.9929 13.2683L18.2891 14.3157ZM17.9828 13.8276L19.6671 12.7491L19.6255 12.684L19.5789 12.6224L17.9828 13.8276ZM10.836 1.97864C9.28667 2.91485 7.83563 4.00304 6.50474 5.22699L9.2124 8.17123C10.3465 7.12823 11.5835 6.20053 12.9047 5.40215L10.836 1.97864ZM12.3059 1.7335C12.3057 1.73346 12.3032 1.73291 12.3003 1.73231C12.2972 1.73166 12.2923 1.73065 12.2864 1.72946C12.275 1.72715 12.256 1.72338 12.2323 1.71923C12.1895 1.71171 12.1031 1.69772 11.9933 1.6915C11.8222 1.68181 11.2661 1.66729 10.7139 2.05862L13.0268 5.32217C12.4798 5.70982 11.9305 5.69436 11.7671 5.6851C11.5895 5.67505 11.4356 5.63791 11.4795 5.6472L12.3059 1.7335ZM10.8626 1.99067C11.371 1.67544 11.8568 1.68605 12.0242 1.69598C12.1972 1.70625 12.3457 1.74189 12.3059 1.7335L11.4795 5.6472C11.4797 5.64724 11.4823 5.64779 11.4853 5.64841C11.4885 5.64908 11.4934 5.65011 11.4994 5.65132C11.5111 5.65367 11.5302 5.65745 11.5538 5.6616C11.5974 5.66924 11.6812 5.68266 11.7872 5.68896C11.9629 5.69938 12.4563 5.70908 12.9706 5.39012L10.8626 1.99067ZM26.0687 6.04082C22.9955 4.14227 17.7329 1.51798 11.8577 1.69126L11.9756 5.68952C16.6749 5.55092 21.1181 7.68419 23.9664 9.4438L26.0687 6.04082ZM26.0715 9.44207C28.9107 7.68159 33.3335 5.55153 38.0095 5.69002L38.1279 1.69177C32.2719 1.51834 27.0274 4.14281 23.9636 6.04255L26.0715 9.44207ZM36.9094 5.32064C37.4734 5.72182 38.0434 5.69838 38.1945 5.68963C38.3011 5.68346 38.385 5.67005 38.4265 5.66286C38.4494 5.65888 38.468 5.65526 38.4791 5.65305C38.4849 5.6519 38.4897 5.65092 38.4927 5.65029C38.4956 5.6497 38.4981 5.64918 38.4984 5.64913L37.6852 1.73266C37.6427 1.74149 37.7914 1.70628 37.9632 1.69633C38.1063 1.68804 38.6692 1.66367 39.228 2.06115L36.9094 5.32064ZM38.4982 5.64917C38.5408 5.64033 38.392 5.67552 38.2204 5.68546C38.0776 5.69373 37.5141 5.71826 36.955 5.32024L39.2747 2.06155C38.7104 1.65982 38.1398 1.68342 37.9891 1.69215C37.8826 1.69832 37.7987 1.71172 37.7572 1.71891C37.7343 1.72288 37.7157 1.72649 37.7046 1.72871C37.6988 1.72986 37.6941 1.73083 37.691 1.73146C37.6881 1.73205 37.6856 1.73257 37.6854 1.73262L38.4982 5.64917ZM37.0765 5.40025C38.3936 6.20026 39.6272 7.12899 40.7592 8.1726L43.4705 5.23174C42.1432 4.00804 40.697 2.91927 39.1532 1.98153L37.0765 5.40025ZM41.7405 4.73752C39.3556 5.19199 37.0937 6.43791 35.1961 7.87219C33.284 9.31742 31.6186 11.0471 30.4252 12.6352L33.6229 15.0382C34.6021 13.7352 36.0059 12.2741 37.608 11.0632C39.2246 9.8413 40.9217 8.96554 42.4893 8.66681L41.7405 4.73752ZM30.3378 12.7614C30.2264 12.936 30.1179 13.1097 30.012 13.2826L33.4235 15.3711C33.5169 15.2187 33.6124 15.0657 33.7104 14.9121L30.3378 12.7614ZM30.1753 15.6C31.8102 17.5807 35.1958 21.6996 38.0497 26.3883C39.476 28.7318 40.7398 31.1699 41.5853 33.5135C42.4374 35.8753 42.8162 38.0087 42.6176 39.7934L46.5931 40.2357C46.8856 37.6066 46.3084 34.8182 45.3479 32.156C44.3808 29.4756 42.9754 26.7876 41.4665 24.3086C38.4498 19.3524 34.9006 15.0412 33.2603 13.0538L30.1753 15.6ZM43.0343 38.7769C42.3878 39.5975 41.6673 40.3784 40.8943 41.1228L43.6691 44.004C44.5529 43.1528 45.4003 42.2374 46.1764 41.2523L43.0343 38.7769ZM44.2814 42.5975C44.354 38.3407 41.9341 34.2279 39.0249 30.6754C36.0684 27.0652 32.2935 23.6663 29.0919 20.834L26.4415 23.8299C29.6622 26.6791 33.2048 29.8817 35.9302 33.2097C38.7029 36.5956 40.3293 39.7577 40.282 42.5293L44.2814 42.5975ZM25.9609 21.4723C25.9604 21.4732 25.96 21.4741 25.9598 21.4746C25.9595 21.4752 25.9594 21.4755 25.9593 21.4757L29.571 23.1949C29.5714 23.194 29.5718 23.1932 29.572 23.1926C29.5723 23.192 29.5724 23.1918 29.5725 23.1916L25.9609 21.4723ZM29.0609 20.8118L29.0225 20.7792L26.4309 23.8261L26.4693 23.8588L29.0609 20.8118ZM29.0225 20.7791C28.1511 20.038 27.2426 19.2652 26.2588 18.4734L23.7509 21.5896C24.686 22.3422 25.5546 23.0808 26.431 23.8261L29.0225 20.7791ZM23.5529 23.8387C24.4462 23.0761 25.3497 22.3252 26.2629 21.5862L23.7468 18.4768C22.8063 19.2378 21.8759 20.011 20.956 20.7963L23.5529 23.8387ZM20.4485 23.1769L20.4496 23.1792L24.0593 21.4558L24.0582 21.4535L20.4485 23.1769ZM9.68997 42.4939C9.6424 39.7291 11.2723 36.5714 14.0549 33.1876C16.7894 29.8624 20.3439 26.6623 23.5753 23.816L20.9313 20.8144C17.7191 23.6439 13.9317 27.0399 10.9654 30.647C8.04719 34.1956 5.61734 38.3065 5.69056 42.5628L9.68997 42.4939ZM3.78861 41.2229C4.56871 42.2107 5.4204 43.1247 6.30778 43.9736L9.07276 41.0831C8.2969 40.3409 7.57493 39.5633 6.9277 38.7437L3.78861 41.2229ZM16.7492 13.0395C15.104 15.0247 11.5428 19.3321 8.51573 24.2845C7.00168 26.7615 5.59118 29.4478 4.62057 32.1269C3.65658 34.7877 3.07685 37.5757 3.37051 40.2053L7.34579 39.7613C7.14681 37.9796 7.52648 35.849 8.38136 33.4894C9.22963 31.148 10.4975 28.7121 11.9287 26.3706C14.7922 21.6858 18.1891 17.5707 19.829 15.5919L16.7492 13.0395ZM16.2986 14.9061C16.3965 15.0591 16.492 15.2114 16.5853 15.3631L19.9929 13.2683C19.887 13.0961 19.7785 12.923 19.6671 12.7491L16.2986 14.9061ZM7.48568 8.66404C9.06111 8.96302 10.7649 9.8391 12.3869 11.0601C13.9946 12.2704 15.4034 13.7305 16.3868 15.0328L19.5789 12.6224C18.381 11.0359 16.7104 9.3081 14.7926 7.86444C12.8892 6.43155 10.6215 5.18776 8.23147 4.73418L7.48568 8.66404Z" fill="white" mask="url(#path-2-inside-1)"/>
</svg>
