<svg width="140" height="70" viewBox="0 0 140 70" fill="none" xmlns="http://www.w3.org/2000/svg">
<path d="M80.9138 19.6283C80.9138 20.824 80.9138 22.0179 80.9138 23.2136C80.9138 24.9232 80.8928 26.6311 80.9138 28.3407C80.9415 29.7066 80.6933 31.0641 80.1841 32.3315C79.1541 34.8365 77.452 36.7017 74.9992 37.8589C73.6965 38.4682 72.2811 38.7984 70.8436 38.8285C69.4061 38.8586 67.9781 38.5879 66.6511 38.0337C64.7452 37.2244 63.1291 35.8555 62.0162 34.1076C60.9006 32.3927 60.4153 30.4873 60.3804 28.4578C60.3629 27.3303 60.3804 26.2028 60.3804 25.0753C60.3885 21.987 60.3984 18.8988 60.4101 15.8105C60.4101 14.9138 60.3839 14.0152 60.3787 13.1167C60.3787 12.1763 60.3787 11.2358 60.3787 10.2936C60.3888 10.1928 60.3642 10.0915 60.309 10.0066C60.2537 9.9217 60.1711 9.85828 60.0749 9.82687C59.3399 9.46327 58.6085 9.08918 57.8997 8.67664C56.8662 8.07705 55.8589 7.43201 54.8307 6.82019C52.776 5.59479 50.62 4.75397 48.1672 4.94101C47.1087 5.01964 46.067 5.24981 45.0738 5.62451C43.484 6.24719 42.0741 7.25647 40.9713 8.56127C39.3808 10.355 38.4421 12.6342 38.3073 15.0291C38.206 16.7351 38.54 18.4388 39.2779 19.9799C40.0157 21.5209 41.1332 22.8485 42.525 23.8377C43.8849 24.8341 45.3094 25.7448 46.6606 26.7534C47.7229 27.5417 48.7443 28.3836 49.7209 29.2759C50.9493 30.3824 52.0608 31.6125 53.0378 32.9469C53.8321 34.0534 54.6387 35.1547 55.3614 36.3084C56.435 38.025 57.2433 39.8815 57.9643 41.7711C58.8715 44.1825 59.5069 46.6879 59.8584 49.2406C59.9597 49.9521 60.033 50.6653 60.1238 51.3785C60.2268 52.2683 60.3647 53.1563 60.4153 54.0496C60.4681 55.4858 60.7171 56.9079 61.1555 58.2764C61.7238 59.9893 62.7344 61.5211 64.0849 62.7165C65.5443 64.0066 67.2534 64.7128 69.1475 64.989C70.0913 65.1108 71.0467 65.1137 71.9913 64.9977C73.33 64.8571 74.6236 64.4335 75.7865 63.7549C77.0164 63.0158 78.0685 62.0143 78.8678 60.8216C79.9274 59.3043 80.4651 57.5999 80.7235 55.7994C80.8841 54.6841 80.933 53.5531 81.0552 52.4309C81.1861 51.2299 81.2909 50.0203 81.5056 48.8333C81.7744 47.3527 82.1026 45.8826 82.4762 44.4264C82.923 42.6535 83.5635 40.9353 84.386 39.3028C85.1175 37.8642 85.8612 36.4238 86.7288 35.0655C88.1137 32.9052 89.7772 30.9374 91.6762 29.213C92.4933 28.4666 93.3207 27.7271 94.2041 27.0663C95.3283 26.2238 96.5137 25.4651 97.6729 24.6697C99.1375 23.6629 100.494 22.5353 101.449 21.0093C102.668 19.0869 103.193 16.8042 102.936 14.5414C102.821 13.3876 102.515 12.261 102.03 11.2078C101.208 9.37765 99.8894 7.81512 98.2245 6.69782C97.0791 5.9234 95.7895 5.38831 94.4328 5.12456C93.1105 4.85118 91.7458 4.85773 90.4263 5.14379C88.6072 5.54584 87.0116 6.46533 85.4422 7.43201C84.0456 8.29206 82.6787 9.21155 81.1582 9.85659C81.0719 9.8878 80.9996 9.94876 80.9542 10.0285C80.9088 10.1083 80.8932 10.2016 80.9103 10.2919C80.9161 13.4023 80.9173 16.5144 80.9138 19.6283ZM77.4747 22.8745C77.4747 21.3222 77.4747 19.7716 77.4747 18.2194C77.4747 17.1967 77.5218 16.1776 77.2268 15.169C76.8519 13.8318 76.078 12.6412 75.0089 11.7565C73.9397 10.8718 72.6262 10.3352 71.2441 10.2184C70.0978 10.1018 68.9413 10.2963 67.8958 10.7813C65.2772 12.019 63.8981 14.1149 63.8405 16.9765C63.7654 20.8222 63.8143 24.668 63.8317 28.5225C63.8306 29.0954 63.901 29.6662 64.0412 30.2216C64.6278 32.4574 65.979 34.0516 68.135 34.9327C69.5716 35.5294 71.1727 35.5975 72.6547 35.125C73.7072 34.8072 74.6661 34.2365 75.4479 33.4625C76.6735 32.2968 77.3963 30.6981 77.4624 29.0067C77.5428 26.9667 77.4747 24.9197 77.4747 22.8745Z" fill="white"/>
<path d="M80.9136 19.6282C80.9136 16.5143 80.9136 13.3999 80.9136 10.2848C80.8965 10.1946 80.912 10.1012 80.9575 10.0215C81.0029 9.94171 81.0752 9.88075 81.1615 9.84954C82.682 9.2045 84.0472 8.28501 85.4455 7.42496C87.0167 6.45828 88.6105 5.53879 90.4296 5.13674C91.7491 4.85068 93.1138 4.84413 94.436 5.11751C95.7928 5.38126 97.0824 5.91635 98.2278 6.69077C99.8924 7.81046 101.21 9.37547 102.03 11.2078C102.513 12.2572 102.819 13.3795 102.936 14.5291C103.193 16.7919 102.668 19.0746 101.449 20.997C100.494 22.5231 99.1373 23.6506 97.6726 24.6574C96.5135 25.4528 95.3281 26.2115 94.2039 27.0541C93.3205 27.7148 92.493 28.4525 91.676 29.2007C89.7787 30.9288 88.1175 32.9002 86.7356 35.0637C85.8627 36.422 85.1243 37.8606 84.3928 39.301C83.5705 40.9324 82.93 42.6494 82.483 44.4211C82.1094 45.8773 81.7847 47.3474 81.5123 48.828C81.2976 50.015 81.1929 51.2386 81.0567 52.4325C80.9345 53.5548 80.8821 54.6858 80.725 55.8011C80.4666 57.6016 79.929 59.2972 78.8693 60.8233C78.07 62.0159 77.018 63.0175 75.7881 63.7565C74.6251 64.4352 73.3315 64.8588 71.9928 64.9994C71.0483 65.1154 70.0929 65.1125 69.149 64.9907C67.2497 64.7127 65.5406 64.0065 64.0864 62.7182C62.735 61.5225 61.7238 59.99 61.1553 58.2763C60.7159 56.9063 60.4662 55.4823 60.4134 54.0443C60.3627 53.151 60.2248 52.263 60.1218 51.3732C60.038 50.66 59.9577 49.9468 59.8565 49.2353C59.5049 46.6826 58.8696 44.1772 57.9623 41.7658C57.2431 39.8761 56.4418 38.0197 55.3612 36.3031C54.6384 35.1494 53.8319 34.0481 53.0376 32.9416C52.0606 31.6072 50.9491 30.3771 49.7207 29.2706C48.7458 28.3778 47.7261 27.5353 46.6657 26.7464C45.3145 25.7378 43.8899 24.8235 42.53 23.8306C41.1373 22.8421 40.0188 21.5147 39.28 19.9736C38.5412 18.4326 38.2064 16.7285 38.3071 15.0221C38.4419 12.6271 39.3806 10.348 40.9711 8.55422C42.0739 7.24942 43.4838 6.24014 45.0735 5.61746C46.0671 5.24515 47.1089 5.01733 48.167 4.94095C50.6198 4.75391 52.7757 5.59473 54.8375 6.81663C55.8657 7.42846 56.873 8.0735 57.9065 8.67309C58.6152 9.08563 59.3467 9.45972 60.0817 9.82332C60.1779 9.85472 60.2605 9.91814 60.3157 10.003C60.371 10.0879 60.3956 10.1892 60.3854 10.2901C60.3697 11.2323 60.3732 12.1727 60.3854 13.1132C60.3854 14.0117 60.4186 14.9102 60.4168 15.807C60.4099 18.8976 60.4 21.9858 60.3872 25.0717C60.3872 26.1992 60.3697 27.3267 60.3872 28.4543C60.4221 30.4838 60.9109 32.3892 62.0229 34.104C63.1358 35.8494 64.7505 37.2164 66.6544 38.0249C67.9814 38.5791 69.4094 38.8498 70.8469 38.8197C72.2843 38.7896 73.6997 38.4594 75.0025 37.8501C77.4552 36.6894 79.1573 34.8277 80.1873 32.3227C80.6915 31.0566 80.9355 29.7016 80.9048 28.3389C80.8909 26.6293 80.9048 24.9214 80.9048 23.2118C80.9153 22.0179 80.9136 20.8222 80.9136 19.6282Z" fill="white"/>
<path d="M77.4747 22.8745C77.4747 24.9197 77.5428 26.9667 77.4538 29.0067C77.3877 30.6981 76.6649 32.2968 75.4392 33.4625C74.6575 34.2365 73.6985 34.8072 72.646 35.1249C71.1641 35.5975 69.5629 35.5293 68.1263 34.9327C65.9703 34.0586 64.6191 32.4574 64.0326 30.2216C63.8923 29.6662 63.8219 29.0954 63.8231 28.5225C63.8056 24.6767 63.7567 20.831 63.8318 16.9765C63.8894 14.1149 65.2755 12.019 67.8871 10.7813C68.9326 10.2963 70.0891 10.1018 71.2355 10.2184C72.6172 10.3355 73.9304 10.8723 74.9992 11.757C76.068 12.6417 76.8416 13.8321 77.2164 15.169C77.5114 16.1776 77.459 17.1967 77.4643 18.2194C77.4643 19.7716 77.4643 21.3222 77.4643 22.8745H77.4747Z" fill="white"/>
</svg>
